<svg xmlns="http://www.w3.org/2000/svg" xmlns:xlink="http://www.w3.org/1999/xlink" contentStyleType="text/css" height="495px" preserveAspectRatio="none" style="width:1382px;height:495px;background:#FFFFFF;" version="1.1" viewBox="0 0 1382 495" width="1382px" zoomAndPan="magnify"><defs/><g><!--class ReservationController--><g id="elem_ReservationController"><rect codeLine="1" fill="#F1F1F1" height="33.3105" id="ReservationController" rx="1.25" ry="1.25" style="stroke:#181818;stroke-width:0.25;" width="186.1543" x="1028.75" y="3.5"/><ellipse cx="1085.854" cy="11.5" fill="#ADD1B2" rx="5.5" ry="5.5" style="stroke:#181818;stroke-width:0.5;"/><path d="M1087.2368,9.4375 Q1087.3149,9.3281 1087.4087,9.2734 Q1087.5024,9.2188 1087.6118,9.2188 Q1087.7993,9.2188 1087.9165,9.3516 Q1088.0337,9.4766 1088.0337,9.7813 L1088.0337,10.5078 Q1088.0337,10.8125 1087.9165,10.9453 Q1087.7993,11.0781 1087.6118,11.0781 Q1087.4399,11.0781 1087.3384,10.9766 Q1087.2368,10.8828 1087.1821,10.625 Q1087.1587,10.4453 1087.0649,10.3516 Q1086.9009,10.1641 1086.5962,10.0547 Q1086.2915,9.9453 1085.979,9.9453 Q1085.5962,9.9453 1085.2759,10.1094 Q1084.9634,10.2734 1084.7134,10.6484 Q1084.4712,11.0234 1084.4712,11.5391 L1084.4712,12.0859 Q1084.4712,12.7031 1084.9165,13.1172 Q1085.3618,13.5234 1086.1587,13.5234 Q1086.6274,13.5234 1086.9556,13.3984 Q1087.1509,13.3203 1087.3618,13.1016 Q1087.4946,12.9688 1087.5649,12.9297 Q1087.6431,12.8906 1087.7446,12.8906 Q1087.9087,12.8906 1088.0337,13.0234 Q1088.1665,13.1484 1088.1665,13.3203 Q1088.1665,13.4922 1087.9946,13.6953 Q1087.7446,13.9844 1087.3462,14.1484 Q1086.8071,14.375 1086.1587,14.375 Q1085.4009,14.375 1084.7993,14.0625 Q1084.3071,13.8125 1083.9634,13.2813 Q1083.6196,12.7422 1083.6196,12.1016 L1083.6196,11.5234 Q1083.6196,10.8594 1083.9243,10.2891 Q1084.2368,9.7109 1084.7837,9.4063 Q1085.3306,9.0938 1085.9478,9.0938 Q1086.3149,9.0938 1086.6353,9.1797 Q1086.9634,9.2578 1087.2368,9.4375 Z " fill="#000000"/><text fill="#000000" font-family="sans-serif" font-size="7" lengthAdjust="spacing" textLength="67.6963" x="1096.104" y="14.3984">ReservationController</text><line style="stroke:#181818;stroke-width:0.25;" x1="1029.25" x2="1214.4043" y1="19.5" y2="19.5"/><line style="stroke:#181818;stroke-width:0.25;" x1="1029.25" x2="1214.4043" y1="23.5" y2="23.5"/><ellipse cx="1034.25" cy="30.9053" fill="#84BE84" rx="1.5" ry="1.5" style="stroke:#038048;stroke-width:0.5;"/><text fill="#000000" font-family="sans-serif" font-size="7" lengthAdjust="spacing" textLength="173.1543" x="1038.75" y="33.0537">bookTrip(request: BookingRequest) : BookingResponse</text></g><!--class BookingVolgorde--><g id="elem_BookingVolgorde"><rect codeLine="5" fill="#F1F1F1" height="51.9316" id="BookingVolgorde" rx="1.25" ry="1.25" style="stroke:#181818;stroke-width:0.25;" width="208.7266" x="952" y="130.5"/><ellipse cx="1027.5798" cy="138.5" fill="#ADD1B2" rx="5.5" ry="5.5" style="stroke:#181818;stroke-width:0.5;"/><path d="M1028.9626,136.4375 Q1029.0408,136.3281 1029.1345,136.2734 Q1029.2283,136.2188 1029.3376,136.2188 Q1029.5251,136.2188 1029.6423,136.3516 Q1029.7595,136.4766 1029.7595,136.7813 L1029.7595,137.5078 Q1029.7595,137.8125 1029.6423,137.9453 Q1029.5251,138.0781 1029.3376,138.0781 Q1029.1658,138.0781 1029.0642,137.9766 Q1028.9626,137.8828 1028.908,137.625 Q1028.8845,137.4453 1028.7908,137.3516 Q1028.6267,137.1641 1028.322,137.0547 Q1028.0173,136.9453 1027.7048,136.9453 Q1027.322,136.9453 1027.0017,137.1094 Q1026.6892,137.2734 1026.4392,137.6484 Q1026.197,138.0234 1026.197,138.5391 L1026.197,139.0859 Q1026.197,139.7031 1026.6423,140.1172 Q1027.0876,140.5234 1027.8845,140.5234 Q1028.3533,140.5234 1028.6814,140.3984 Q1028.8767,140.3203 1029.0876,140.1016 Q1029.2205,139.9688 1029.2908,139.9297 Q1029.3689,139.8906 1029.4705,139.8906 Q1029.6345,139.8906 1029.7595,140.0234 Q1029.8923,140.1484 1029.8923,140.3203 Q1029.8923,140.4922 1029.7205,140.6953 Q1029.4705,140.9844 1029.072,141.1484 Q1028.533,141.375 1027.8845,141.375 Q1027.1267,141.375 1026.5251,141.0625 Q1026.033,140.8125 1025.6892,140.2813 Q1025.3455,139.7422 1025.3455,139.1016 L1025.3455,138.5234 Q1025.3455,137.8594 1025.6501,137.2891 Q1025.9626,136.7109 1026.5095,136.4063 Q1027.0564,136.0938 1027.6736,136.0938 Q1028.0408,136.0938 1028.3611,136.1797 Q1028.6892,136.2578 1028.9626,136.4375 Z " fill="#000000"/><text fill="#000000" font-family="sans-serif" font-size="7" lengthAdjust="spacing" textLength="53.3169" x="1037.8298" y="141.3984">BookingVolgorde</text><line style="stroke:#181818;stroke-width:0.25;" x1="952.5" x2="1160.2266" y1="146.5" y2="146.5"/><rect fill="none" height="3" style="stroke:#C82930;stroke-width:0.5;" width="3" x="956" y="152.4053"/><text fill="#000000" font-family="sans-serif" font-size="7" lengthAdjust="spacing" textLength="60.7065" x="962" y="156.0537">state: BookingState</text><line style="stroke:#181818;stroke-width:0.25;" x1="952.5" x2="1160.2266" y1="159.8105" y2="159.8105"/><ellipse cx="957.5" cy="167.2158" fill="#84BE84" rx="1.5" ry="1.5" style="stroke:#038048;stroke-width:0.5;"/><text fill="#000000" font-family="sans-serif" font-size="7" lengthAdjust="spacing" textLength="109.7271" x="962" y="169.3643">setState(state: BookingState) : void</text><ellipse cx="957.5" cy="176.5264" fill="#84BE84" rx="1.5" ry="1.5" style="stroke:#038048;stroke-width:0.5;"/><text fill="#000000" font-family="sans-serif" font-size="7" lengthAdjust="spacing" textLength="195.7266" x="962" y="178.6748">processBooking(request: BookingRequest) : BookingResponse</text></g><!--class BookingService--><g id="elem_BookingService"><rect codeLine="11" fill="#F1F1F1" height="33.3105" id="BookingService" rx="1.25" ry="1.25" style="stroke:#181818;stroke-width:0.25;" width="208.7266" x="1017.5" y="67"/><ellipse cx="1095.4194" cy="75" fill="#ADD1B2" rx="5.5" ry="5.5" style="stroke:#181818;stroke-width:0.5;"/><path d="M1096.8022,72.9375 Q1096.8804,72.8281 1096.9741,72.7734 Q1097.0679,72.7188 1097.1772,72.7188 Q1097.3647,72.7188 1097.4819,72.8516 Q1097.5991,72.9766 1097.5991,73.2813 L1097.5991,74.0078 Q1097.5991,74.3125 1097.4819,74.4453 Q1097.3647,74.5781 1097.1772,74.5781 Q1097.0054,74.5781 1096.9038,74.4766 Q1096.8022,74.3828 1096.7476,74.125 Q1096.7241,73.9453 1096.6304,73.8516 Q1096.4663,73.6641 1096.1616,73.5547 Q1095.8569,73.4453 1095.5444,73.4453 Q1095.1616,73.4453 1094.8413,73.6094 Q1094.5288,73.7734 1094.2788,74.1484 Q1094.0366,74.5234 1094.0366,75.0391 L1094.0366,75.5859 Q1094.0366,76.2031 1094.4819,76.6172 Q1094.9272,77.0234 1095.7241,77.0234 Q1096.1929,77.0234 1096.521,76.8984 Q1096.7163,76.8203 1096.9272,76.6016 Q1097.0601,76.4688 1097.1304,76.4297 Q1097.2085,76.3906 1097.3101,76.3906 Q1097.4741,76.3906 1097.5991,76.5234 Q1097.7319,76.6484 1097.7319,76.8203 Q1097.7319,76.9922 1097.5601,77.1953 Q1097.3101,77.4844 1096.9116,77.6484 Q1096.3726,77.875 1095.7241,77.875 Q1094.9663,77.875 1094.3647,77.5625 Q1093.8726,77.3125 1093.5288,76.7813 Q1093.1851,76.2422 1093.1851,75.6016 L1093.1851,75.0234 Q1093.1851,74.3594 1093.4897,73.7891 Q1093.8022,73.2109 1094.3491,72.9063 Q1094.896,72.5938 1095.5132,72.5938 Q1095.8804,72.5938 1096.2007,72.6797 Q1096.5288,72.7578 1096.8022,72.9375 Z " fill="#000000"/><text fill="#000000" font-family="sans-serif" font-size="7" lengthAdjust="spacing" textLength="48.6377" x="1105.6694" y="77.8984">BookingService</text><line style="stroke:#181818;stroke-width:0.25;" x1="1018" x2="1225.7266" y1="83" y2="83"/><line style="stroke:#181818;stroke-width:0.25;" x1="1018" x2="1225.7266" y1="87" y2="87"/><ellipse cx="1023" cy="94.4053" fill="#84BE84" rx="1.5" ry="1.5" style="stroke:#038048;stroke-width:0.5;"/><text fill="#000000" font-family="sans-serif" font-size="7" lengthAdjust="spacing" textLength="195.7266" x="1027.5" y="96.5537">processBooking(request: BookingRequest) : BookingResponse</text></g><!--class BookingState--><g id="elem_BookingState"><rect codeLine="15" fill="#F1F1F1" height="33.3105" id="BookingState" rx="1.25" ry="1.25" style="stroke:#181818;stroke-width:0.25;" width="245.7021" x="661" y="212.5"/><ellipse cx="760.9055" cy="220.5" fill="#B4A7E5" rx="5.5" ry="5.5" style="stroke:#181818;stroke-width:0.5;"/><path d="M761.3821,218.8203 L761.3821,222.1484 L762.2415,222.1484 Q762.5461,222.1484 762.679,222.2656 Q762.8118,222.3828 762.8118,222.5781 Q762.8118,222.7656 762.679,222.8828 Q762.5461,223 762.2415,223 L759.6711,223 Q759.3665,223 759.2336,222.8828 Q759.1008,222.7656 759.1008,222.5703 Q759.1008,222.3828 759.2336,222.2656 Q759.3665,222.1484 759.6711,222.1484 L760.5305,222.1484 L760.5305,218.8203 L759.6711,218.8203 Q759.3665,218.8203 759.2336,218.7031 Q759.1008,218.5859 759.1008,218.3906 Q759.1008,218.2031 759.2336,218.0859 Q759.3665,217.9688 759.6711,217.9688 L762.2415,217.9688 Q762.5461,217.9688 762.679,218.0859 Q762.8118,218.2031 762.8118,218.3906 Q762.8118,218.5859 762.679,218.7031 Q762.5461,218.8203 762.2415,218.8203 L761.3821,218.8203 Z " fill="#000000"/><text fill="#000000" font-family="sans-serif" font-size="7" font-style="italic" lengthAdjust="spacing" textLength="41.6411" x="771.1555" y="223.3984">BookingState</text><line style="stroke:#181818;stroke-width:0.25;" x1="661.5" x2="906.2021" y1="228.5" y2="228.5"/><line style="stroke:#181818;stroke-width:0.25;" x1="661.5" x2="906.2021" y1="232.5" y2="232.5"/><ellipse cx="666.5" cy="239.9053" fill="#84BE84" rx="1.5" ry="1.5" style="stroke:#038048;stroke-width:0.5;"/><text fill="#000000" font-family="sans-serif" font-size="7" lengthAdjust="spacing" textLength="232.7021" x="671" y="242.0537">handleRequest(context: BookingVolgorde, request: BookingRequest) : void</text></g><!--class AvailabilityState--><g id="elem_AvailabilityState"><rect codeLine="19" fill="#F1F1F1" height="33.3105" id="AvailabilityState" rx="1.25" ry="1.25" style="stroke:#181818;stroke-width:0.25;" width="245.7021" x="3.5" y="276"/><ellipse cx="99.5193" cy="284" fill="#ADD1B2" rx="5.5" ry="5.5" style="stroke:#181818;stroke-width:0.5;"/><path d="M100.9021,281.9375 Q100.9802,281.8281 101.074,281.7734 Q101.1677,281.7188 101.2771,281.7188 Q101.4646,281.7188 101.5818,281.8516 Q101.699,281.9766 101.699,282.2813 L101.699,283.0078 Q101.699,283.3125 101.5818,283.4453 Q101.4646,283.5781 101.2771,283.5781 Q101.1052,283.5781 101.0037,283.4766 Q100.9021,283.3828 100.8474,283.125 Q100.824,282.9453 100.7302,282.8516 Q100.5662,282.6641 100.2615,282.5547 Q99.9568,282.4453 99.6443,282.4453 Q99.2615,282.4453 98.9412,282.6094 Q98.6287,282.7734 98.3787,283.1484 Q98.1365,283.5234 98.1365,284.0391 L98.1365,284.5859 Q98.1365,285.2031 98.5818,285.6172 Q99.0271,286.0234 99.824,286.0234 Q100.2927,286.0234 100.6208,285.8984 Q100.8162,285.8203 101.0271,285.6016 Q101.1599,285.4688 101.2302,285.4297 Q101.3083,285.3906 101.4099,285.3906 Q101.574,285.3906 101.699,285.5234 Q101.8318,285.6484 101.8318,285.8203 Q101.8318,285.9922 101.6599,286.1953 Q101.4099,286.4844 101.0115,286.6484 Q100.4724,286.875 99.824,286.875 Q99.0662,286.875 98.4646,286.5625 Q97.9724,286.3125 97.6287,285.7813 Q97.2849,285.2422 97.2849,284.6016 L97.2849,284.0234 Q97.2849,283.3594 97.5896,282.7891 Q97.9021,282.2109 98.449,281.9063 Q98.9958,281.5938 99.613,281.5938 Q99.9802,281.5938 100.3005,281.6797 Q100.6287,281.7578 100.9021,281.9375 Z " fill="#000000"/><text fill="#000000" font-family="sans-serif" font-size="7" lengthAdjust="spacing" textLength="49.4136" x="109.7693" y="286.8984">AvailabilityState</text><line style="stroke:#181818;stroke-width:0.25;" x1="4" x2="248.7021" y1="292" y2="292"/><line style="stroke:#181818;stroke-width:0.25;" x1="4" x2="248.7021" y1="296" y2="296"/><ellipse cx="9" cy="303.4053" fill="#84BE84" rx="1.5" ry="1.5" style="stroke:#038048;stroke-width:0.5;"/><text fill="#000000" font-family="sans-serif" font-size="7" lengthAdjust="spacing" textLength="232.7021" x="13.5" y="305.5537">handleRequest(context: BookingVolgorde, request: BookingRequest) : void</text></g><!--class HotelBookingState--><g id="elem_HotelBookingState"><rect codeLine="23" fill="#F1F1F1" height="33.3105" id="HotelBookingState" rx="1.25" ry="1.25" style="stroke:#181818;stroke-width:0.25;" width="245.7021" x="266.5" y="276"/><ellipse cx="358.2349" cy="284" fill="#ADD1B2" rx="5.5" ry="5.5" style="stroke:#181818;stroke-width:0.5;"/><path d="M359.6177,281.9375 Q359.6958,281.8281 359.7896,281.7734 Q359.8833,281.7188 359.9927,281.7188 Q360.1802,281.7188 360.2974,281.8516 Q360.4146,281.9766 360.4146,282.2813 L360.4146,283.0078 Q360.4146,283.3125 360.2974,283.4453 Q360.1802,283.5781 359.9927,283.5781 Q359.8208,283.5781 359.7192,283.4766 Q359.6177,283.3828 359.563,283.125 Q359.5396,282.9453 359.4458,282.8516 Q359.2817,282.6641 358.9771,282.5547 Q358.6724,282.4453 358.3599,282.4453 Q357.9771,282.4453 357.6567,282.6094 Q357.3442,282.7734 357.0942,283.1484 Q356.8521,283.5234 356.8521,284.0391 L356.8521,284.5859 Q356.8521,285.2031 357.2974,285.6172 Q357.7427,286.0234 358.5396,286.0234 Q359.0083,286.0234 359.3364,285.8984 Q359.5317,285.8203 359.7427,285.6016 Q359.8755,285.4688 359.9458,285.4297 Q360.0239,285.3906 360.1255,285.3906 Q360.2896,285.3906 360.4146,285.5234 Q360.5474,285.6484 360.5474,285.8203 Q360.5474,285.9922 360.3755,286.1953 Q360.1255,286.4844 359.7271,286.6484 Q359.188,286.875 358.5396,286.875 Q357.7817,286.875 357.1802,286.5625 Q356.688,286.3125 356.3442,285.7813 Q356.0005,285.2422 356.0005,284.6016 L356.0005,284.0234 Q356.0005,283.3594 356.3052,282.7891 Q356.6177,282.2109 357.1646,281.9063 Q357.7114,281.5938 358.3286,281.5938 Q358.6958,281.5938 359.0161,281.6797 Q359.3442,281.7578 359.6177,281.9375 Z " fill="#000000"/><text fill="#000000" font-family="sans-serif" font-size="7" lengthAdjust="spacing" textLength="57.9824" x="368.4849" y="286.8984">HotelBookingState</text><line style="stroke:#181818;stroke-width:0.25;" x1="267" x2="511.7021" y1="292" y2="292"/><line style="stroke:#181818;stroke-width:0.25;" x1="267" x2="511.7021" y1="296" y2="296"/><ellipse cx="272" cy="303.4053" fill="#84BE84" rx="1.5" ry="1.5" style="stroke:#038048;stroke-width:0.5;"/><text fill="#000000" font-family="sans-serif" font-size="7" lengthAdjust="spacing" textLength="232.7021" x="276.5" y="305.5537">handleRequest(context: BookingVolgorde, request: BookingRequest) : void</text></g><!--class FlightBookingState--><g id="elem_FlightBookingState"><rect codeLine="27" fill="#F1F1F1" height="33.3105" id="FlightBookingState" rx="1.25" ry="1.25" style="stroke:#181818;stroke-width:0.25;" width="245.7021" x="529.5" y="276"/><ellipse cx="620.8469" cy="284" fill="#ADD1B2" rx="5.5" ry="5.5" style="stroke:#181818;stroke-width:0.5;"/><path d="M622.2297,281.9375 Q622.3079,281.8281 622.4016,281.7734 Q622.4954,281.7188 622.6047,281.7188 Q622.7922,281.7188 622.9094,281.8516 Q623.0266,281.9766 623.0266,282.2813 L623.0266,283.0078 Q623.0266,283.3125 622.9094,283.4453 Q622.7922,283.5781 622.6047,283.5781 Q622.4329,283.5781 622.3313,283.4766 Q622.2297,283.3828 622.175,283.125 Q622.1516,282.9453 622.0579,282.8516 Q621.8938,282.6641 621.5891,282.5547 Q621.2844,282.4453 620.9719,282.4453 Q620.5891,282.4453 620.2688,282.6094 Q619.9563,282.7734 619.7063,283.1484 Q619.4641,283.5234 619.4641,284.0391 L619.4641,284.5859 Q619.4641,285.2031 619.9094,285.6172 Q620.3547,286.0234 621.1516,286.0234 Q621.6204,286.0234 621.9485,285.8984 Q622.1438,285.8203 622.3547,285.6016 Q622.4875,285.4688 622.5579,285.4297 Q622.636,285.3906 622.7375,285.3906 Q622.9016,285.3906 623.0266,285.5234 Q623.1594,285.6484 623.1594,285.8203 Q623.1594,285.9922 622.9875,286.1953 Q622.7375,286.4844 622.3391,286.6484 Q621.8,286.875 621.1516,286.875 Q620.3938,286.875 619.7922,286.5625 Q619.3,286.3125 618.9563,285.7813 Q618.6125,285.2422 618.6125,284.6016 L618.6125,284.0234 Q618.6125,283.3594 618.9172,282.7891 Q619.2297,282.2109 619.7766,281.9063 Q620.3235,281.5938 620.9407,281.5938 Q621.3079,281.5938 621.6282,281.6797 Q621.9563,281.7578 622.2297,281.9375 Z " fill="#000000"/><text fill="#000000" font-family="sans-serif" font-size="7" lengthAdjust="spacing" textLength="58.7583" x="631.0969" y="286.8984">FlightBookingState</text><line style="stroke:#181818;stroke-width:0.25;" x1="530" x2="774.7021" y1="292" y2="292"/><line style="stroke:#181818;stroke-width:0.25;" x1="530" x2="774.7021" y1="296" y2="296"/><ellipse cx="535" cy="303.4053" fill="#84BE84" rx="1.5" ry="1.5" style="stroke:#038048;stroke-width:0.5;"/><text fill="#000000" font-family="sans-serif" font-size="7" lengthAdjust="spacing" textLength="232.7021" x="539.5" y="305.5537">handleRequest(context: BookingVolgorde, request: BookingRequest) : void</text></g><!--class CarBookingState--><g id="elem_CarBookingState"><rect codeLine="31" fill="#F1F1F1" height="33.3105" id="CarBookingState" rx="1.25" ry="1.25" style="stroke:#181818;stroke-width:0.25;" width="245.7021" x="792.5" y="276"/><ellipse cx="886.7659" cy="284" fill="#ADD1B2" rx="5.5" ry="5.5" style="stroke:#181818;stroke-width:0.5;"/><path d="M888.1487,281.9375 Q888.2268,281.8281 888.3206,281.7734 Q888.4143,281.7188 888.5237,281.7188 Q888.7112,281.7188 888.8284,281.8516 Q888.9456,281.9766 888.9456,282.2813 L888.9456,283.0078 Q888.9456,283.3125 888.8284,283.4453 Q888.7112,283.5781 888.5237,283.5781 Q888.3518,283.5781 888.2502,283.4766 Q888.1487,283.3828 888.094,283.125 Q888.0706,282.9453 887.9768,282.8516 Q887.8127,282.6641 887.5081,282.5547 Q887.2034,282.4453 886.8909,282.4453 Q886.5081,282.4453 886.1877,282.6094 Q885.8752,282.7734 885.6252,283.1484 Q885.3831,283.5234 885.3831,284.0391 L885.3831,284.5859 Q885.3831,285.2031 885.8284,285.6172 Q886.2737,286.0234 887.0706,286.0234 Q887.5393,286.0234 887.8674,285.8984 Q888.0627,285.8203 888.2737,285.6016 Q888.4065,285.4688 888.4768,285.4297 Q888.5549,285.3906 888.6565,285.3906 Q888.8206,285.3906 888.9456,285.5234 Q889.0784,285.6484 889.0784,285.8203 Q889.0784,285.9922 888.9065,286.1953 Q888.6565,286.4844 888.2581,286.6484 Q887.719,286.875 887.0706,286.875 Q886.3127,286.875 885.7112,286.5625 Q885.219,286.3125 884.8752,285.7813 Q884.5315,285.2422 884.5315,284.6016 L884.5315,284.0234 Q884.5315,283.3594 884.8362,282.7891 Q885.1487,282.2109 885.6956,281.9063 Q886.2424,281.5938 886.8596,281.5938 Q887.2268,281.5938 887.5471,281.6797 Q887.8752,281.7578 888.1487,281.9375 Z " fill="#000000"/><text fill="#000000" font-family="sans-serif" font-size="7" lengthAdjust="spacing" textLength="52.9204" x="897.0159" y="286.8984">CarBookingState</text><line style="stroke:#181818;stroke-width:0.25;" x1="793" x2="1037.7021" y1="292" y2="292"/><line style="stroke:#181818;stroke-width:0.25;" x1="793" x2="1037.7021" y1="296" y2="296"/><ellipse cx="798" cy="303.4053" fill="#84BE84" rx="1.5" ry="1.5" style="stroke:#038048;stroke-width:0.5;"/><text fill="#000000" font-family="sans-serif" font-size="7" lengthAdjust="spacing" textLength="232.7021" x="802.5" y="305.5537">handleRequest(context: BookingVolgorde, request: BookingRequest) : void</text></g><!--class CompletedState--><g id="elem_CompletedState"><rect codeLine="35" fill="#F1F1F1" height="33.3105" id="CompletedState" rx="1.25" ry="1.25" style="stroke:#181818;stroke-width:0.25;" width="245.7021" x="1055.5" y="276"/><ellipse cx="1151.1279" cy="284" fill="#ADD1B2" rx="5.5" ry="5.5" style="stroke:#181818;stroke-width:0.5;"/><path d="M1152.5107,281.9375 Q1152.5889,281.8281 1152.6826,281.7734 Q1152.7764,281.7188 1152.8857,281.7188 Q1153.0732,281.7188 1153.1904,281.8516 Q1153.3076,281.9766 1153.3076,282.2813 L1153.3076,283.0078 Q1153.3076,283.3125 1153.1904,283.4453 Q1153.0732,283.5781 1152.8857,283.5781 Q1152.7139,283.5781 1152.6123,283.4766 Q1152.5107,283.3828 1152.4561,283.125 Q1152.4326,282.9453 1152.3389,282.8516 Q1152.1748,282.6641 1151.8701,282.5547 Q1151.5654,282.4453 1151.2529,282.4453 Q1150.8701,282.4453 1150.5498,282.6094 Q1150.2373,282.7734 1149.9873,283.1484 Q1149.7451,283.5234 1149.7451,284.0391 L1149.7451,284.5859 Q1149.7451,285.2031 1150.1904,285.6172 Q1150.6357,286.0234 1151.4326,286.0234 Q1151.9014,286.0234 1152.2295,285.8984 Q1152.4248,285.8203 1152.6357,285.6016 Q1152.7686,285.4688 1152.8389,285.4297 Q1152.917,285.3906 1153.0186,285.3906 Q1153.1826,285.3906 1153.3076,285.5234 Q1153.4404,285.6484 1153.4404,285.8203 Q1153.4404,285.9922 1153.2686,286.1953 Q1153.0186,286.4844 1152.6201,286.6484 Q1152.0811,286.875 1151.4326,286.875 Q1150.6748,286.875 1150.0732,286.5625 Q1149.5811,286.3125 1149.2373,285.7813 Q1148.8936,285.2422 1148.8936,284.6016 L1148.8936,284.0234 Q1148.8936,283.3594 1149.1982,282.7891 Q1149.5107,282.2109 1150.0576,281.9063 Q1150.6045,281.5938 1151.2217,281.5938 Q1151.5889,281.5938 1151.9092,281.6797 Q1152.2373,281.7578 1152.5107,281.9375 Z " fill="#000000"/><text fill="#000000" font-family="sans-serif" font-size="7" lengthAdjust="spacing" textLength="50.1963" x="1161.3779" y="286.8984">CompletedState</text><line style="stroke:#181818;stroke-width:0.25;" x1="1056" x2="1300.7021" y1="292" y2="292"/><line style="stroke:#181818;stroke-width:0.25;" x1="1056" x2="1300.7021" y1="296" y2="296"/><ellipse cx="1061" cy="303.4053" fill="#84BE84" rx="1.5" ry="1.5" style="stroke:#038048;stroke-width:0.5;"/><text fill="#000000" font-family="sans-serif" font-size="7" lengthAdjust="spacing" textLength="232.7021" x="1065.5" y="305.5537">handleRequest(context: BookingVolgorde, request: BookingRequest) : void</text></g><!--class IAdapter--><g id="elem_IAdapter"><rect codeLine="39" fill="#F1F1F1" height="61.2422" id="IAdapter" rx="1.25" ry="1.25" style="stroke:#181818;stroke-width:0.25;" width="208.3335" x="548" y="430.5"/><ellipse cx="636.8108" cy="438.5" fill="#B4A7E5" rx="5.5" ry="5.5" style="stroke:#181818;stroke-width:0.5;"/><path d="M637.2874,436.8203 L637.2874,440.1484 L638.1467,440.1484 Q638.4514,440.1484 638.5842,440.2656 Q638.717,440.3828 638.717,440.5781 Q638.717,440.7656 638.5842,440.8828 Q638.4514,441 638.1467,441 L635.5764,441 Q635.2717,441 635.1389,440.8828 Q635.0061,440.7656 635.0061,440.5703 Q635.0061,440.3828 635.1389,440.2656 Q635.2717,440.1484 635.5764,440.1484 L636.4358,440.1484 L636.4358,436.8203 L635.5764,436.8203 Q635.2717,436.8203 635.1389,436.7031 Q635.0061,436.5859 635.0061,436.3906 Q635.0061,436.2031 635.1389,436.0859 Q635.2717,435.9688 635.5764,435.9688 L638.1467,435.9688 Q638.4514,435.9688 638.5842,436.0859 Q638.717,436.2031 638.717,436.3906 Q638.717,436.5859 638.5842,436.7031 Q638.4514,436.8203 638.1467,436.8203 L637.2874,436.8203 Z " fill="#000000"/><text fill="#000000" font-family="sans-serif" font-size="7" font-style="italic" lengthAdjust="spacing" textLength="26.4619" x="647.0608" y="441.3984">IAdapter</text><line style="stroke:#181818;stroke-width:0.25;" x1="548.5" x2="755.8335" y1="446.5" y2="446.5"/><line style="stroke:#181818;stroke-width:0.25;" x1="548.5" x2="755.8335" y1="450.5" y2="450.5"/><ellipse cx="553.5" cy="457.9053" fill="#84BE84" rx="1.5" ry="1.5" style="stroke:#038048;stroke-width:0.5;"/><text fill="#000000" font-family="sans-serif" font-size="7" lengthAdjust="spacing" textLength="165.3716" x="558" y="460.0537">checkAvailability(request: BookingRequest) : boolean</text><ellipse cx="553.5" cy="467.2158" fill="#84BE84" rx="1.5" ry="1.5" style="stroke:#038048;stroke-width:0.5;"/><text fill="#000000" font-family="sans-serif" font-size="7" lengthAdjust="spacing" textLength="193.7817" x="558" y="469.3643">bookHotel(request: BookingRequest) : HotelBookingResponse</text><ellipse cx="553.5" cy="476.5264" fill="#84BE84" rx="1.5" ry="1.5" style="stroke:#038048;stroke-width:0.5;"/><text fill="#000000" font-family="sans-serif" font-size="7" lengthAdjust="spacing" textLength="195.3335" x="558" y="478.6748">bookFlight(request: BookingRequest) : FlightBookingResponse</text><ellipse cx="553.5" cy="485.8369" fill="#84BE84" rx="1.5" ry="1.5" style="stroke:#038048;stroke-width:0.5;"/><text fill="#000000" font-family="sans-serif" font-size="7" lengthAdjust="spacing" textLength="178.5957" x="558" y="487.9854">bookCar(request: BookingRequest) : CarRentalResponse</text></g><!--class BookingAdapter--><g id="elem_BookingAdapter"><rect codeLine="46" fill="#F1F1F1" height="61.2422" id="BookingAdapter" rx="1.25" ry="1.25" style="stroke:#181818;stroke-width:0.25;" width="208.3335" x="548" y="339.5"/><ellipse cx="625.135" cy="347.5" fill="#ADD1B2" rx="5.5" ry="5.5" style="stroke:#181818;stroke-width:0.5;"/><path d="M626.5178,345.4375 Q626.5959,345.3281 626.6897,345.2734 Q626.7834,345.2188 626.8928,345.2188 Q627.0803,345.2188 627.1975,345.3516 Q627.3147,345.4766 627.3147,345.7813 L627.3147,346.5078 Q627.3147,346.8125 627.1975,346.9453 Q627.0803,347.0781 626.8928,347.0781 Q626.7209,347.0781 626.6194,346.9766 Q626.5178,346.8828 626.4631,346.625 Q626.4397,346.4453 626.3459,346.3516 Q626.1819,346.1641 625.8772,346.0547 Q625.5725,345.9453 625.26,345.9453 Q624.8772,345.9453 624.5569,346.1094 Q624.2444,346.2734 623.9944,346.6484 Q623.7522,347.0234 623.7522,347.5391 L623.7522,348.0859 Q623.7522,348.7031 624.1975,349.1172 Q624.6428,349.5234 625.4397,349.5234 Q625.9084,349.5234 626.2366,349.3984 Q626.4319,349.3203 626.6428,349.1016 Q626.7756,348.9688 626.8459,348.9297 Q626.9241,348.8906 627.0256,348.8906 Q627.1897,348.8906 627.3147,349.0234 Q627.4475,349.1484 627.4475,349.3203 Q627.4475,349.4922 627.2756,349.6953 Q627.0256,349.9844 626.6272,350.1484 Q626.0881,350.375 625.4397,350.375 Q624.6819,350.375 624.0803,350.0625 Q623.5881,349.8125 623.2444,349.2813 Q622.9006,348.7422 622.9006,348.1016 L622.9006,347.5234 Q622.9006,346.8594 623.2053,346.2891 Q623.5178,345.7109 624.0647,345.4063 Q624.6116,345.0938 625.2288,345.0938 Q625.5959,345.0938 625.9163,345.1797 Q626.2444,345.2578 626.5178,345.4375 Z " fill="#000000"/><text fill="#000000" font-family="sans-serif" font-size="7" lengthAdjust="spacing" textLength="49.8135" x="635.385" y="350.3984">BookingAdapter</text><line style="stroke:#181818;stroke-width:0.25;" x1="548.5" x2="755.8335" y1="355.5" y2="355.5"/><line style="stroke:#181818;stroke-width:0.25;" x1="548.5" x2="755.8335" y1="359.5" y2="359.5"/><ellipse cx="553.5" cy="366.9053" fill="#84BE84" rx="1.5" ry="1.5" style="stroke:#038048;stroke-width:0.5;"/><text fill="#000000" font-family="sans-serif" font-size="7" lengthAdjust="spacing" textLength="165.3716" x="558" y="369.0537">checkAvailability(request: BookingRequest) : boolean</text><ellipse cx="553.5" cy="376.2158" fill="#84BE84" rx="1.5" ry="1.5" style="stroke:#038048;stroke-width:0.5;"/><text fill="#000000" font-family="sans-serif" font-size="7" lengthAdjust="spacing" textLength="193.7817" x="558" y="378.3643">bookHotel(request: BookingRequest) : HotelBookingResponse</text><ellipse cx="553.5" cy="385.5264" fill="#84BE84" rx="1.5" ry="1.5" style="stroke:#038048;stroke-width:0.5;"/><text fill="#000000" font-family="sans-serif" font-size="7" lengthAdjust="spacing" textLength="195.3335" x="558" y="387.6748">bookFlight(request: BookingRequest) : FlightBookingResponse</text><ellipse cx="553.5" cy="394.8369" fill="#84BE84" rx="1.5" ry="1.5" style="stroke:#038048;stroke-width:0.5;"/><text fill="#000000" font-family="sans-serif" font-size="7" lengthAdjust="spacing" textLength="178.5957" x="558" y="396.9854">bookCar(request: BookingRequest) : CarRentalResponse</text></g><!--link ReservationController to BookingService--><g id="link_ReservationController_BookingService"><path codeLine="54" d="M1121.75,37.01 C1121.75,46.195 1121.75,54.645 1121.75,63.855 " fill="none" id="ReservationController-to-BookingService" style="stroke:#181818;stroke-width:0.5;"/><polygon fill="#181818" points="1121.75,66.855,1123.75,62.355,1121.75,64.355,1119.75,62.355,1121.75,66.855" style="stroke:#181818;stroke-width:0.5;"/></g><!--link BookingService to BookingAdapter--><g id="link_BookingService_BookingAdapter"><path codeLine="55" d="M1153.615,100.505 C1223.515,138.15 1378.78,233.885 1309.75,309.5 C1273.26,349.475 935.7091,363.0449 759.6291,367.4549 " fill="none" id="BookingService-to-BookingAdapter" style="stroke:#181818;stroke-width:0.5;"/><polygon fill="#181818" points="756.63,367.53,761.1787,369.4167,759.1292,367.4674,761.0785,365.418,756.63,367.53" style="stroke:#181818;stroke-width:0.5;"/></g><!--link BookingService to BookingVolgorde--><g id="link_BookingService_BookingVolgorde"><path codeLine="56" d="M1106.885,100.53 C1098.81,109.38 1090.6625,118.3043 1081.5575,128.2793 " fill="none" id="BookingService-to-BookingVolgorde" style="stroke:#181818;stroke-width:0.5;"/><polygon fill="#181818" points="1079.535,130.495,1084.0459,128.5197,1081.2204,128.6485,1081.0916,125.8231,1079.535,130.495" style="stroke:#181818;stroke-width:0.5;"/></g><!--link BookingVolgorde to BookingState--><g id="link_BookingVolgorde_BookingState"><path codeLine="57" d="M959.215,182.55 C921.37,192.515 882.0161,202.8759 848.4511,211.7159 " fill="none" id="BookingVolgorde-to-BookingState" style="stroke:#181818;stroke-width:0.5;"/><polygon fill="#181818" points="845.55,212.48,850.411,213.268,847.9676,211.8433,849.3922,209.3999,845.55,212.48" style="stroke:#181818;stroke-width:0.5;"/></g><!--reverse link BookingState to AvailabilityState--><g id="link_BookingState_AvailabilityState"><path codeLine="58" d="M651.9041,240.0436 C545.2291,248.6486 395.635,261.425 257.75,276 C254.89,276.3 251.995,276.615 249.08,276.935 " fill="none" id="BookingState-backto-AvailabilityState" style="stroke:#181818;stroke-width:0.5;stroke-dasharray:7.0,7.0;"/><polygon fill="none" points="660.875,239.32,651.6629,237.0534,652.1454,243.0339,660.875,239.32" style="stroke:#181818;stroke-width:0.5;"/></g><!--reverse link BookingState to HotelBookingState--><g id="link_BookingState_HotelBookingState"><path codeLine="59" d="M672.2408,247.4179 C613.9658,256.6479 550.145,266.76 491.87,275.99 " fill="none" id="BookingState-backto-HotelBookingState" style="stroke:#181818;stroke-width:0.5;stroke-dasharray:7.0,7.0;"/><polygon fill="none" points="681.13,246.01,671.7715,244.4549,672.7101,250.381,681.13,246.01" style="stroke:#181818;stroke-width:0.5;"/></g><!--reverse link BookingState to FlightBookingState--><g id="link_BookingState_FlightBookingState"><path codeLine="60" d="M741.4159,249.8724 C722.0109,259.0924 705.93,266.735 686.515,275.965 " fill="none" id="BookingState-backto-FlightBookingState" style="stroke:#181818;stroke-width:0.5;stroke-dasharray:7.0,7.0;"/><polygon fill="none" points="749.545,246.01,740.1285,247.1627,742.7034,252.5821,749.545,246.01" style="stroke:#181818;stroke-width:0.5;"/></g><!--reverse link BookingState to CarBookingState--><g id="link_BookingState_CarBookingState"><path codeLine="61" d="M826.0841,249.8724 C845.4891,259.0924 861.57,266.735 880.985,275.965 " fill="none" id="BookingState-backto-CarBookingState" style="stroke:#181818;stroke-width:0.5;stroke-dasharray:7.0,7.0;"/><polygon fill="none" points="817.955,246.01,824.7966,252.5821,827.3715,247.1627,817.955,246.01" style="stroke:#181818;stroke-width:0.5;"/></g><!--reverse link BookingState to CompletedState--><g id="link_BookingState_CompletedState"><path codeLine="62" d="M895.2592,247.4179 C953.5342,256.6479 1017.355,266.76 1075.63,275.99 " fill="none" id="BookingState-backto-CompletedState" style="stroke:#181818;stroke-width:0.5;stroke-dasharray:7.0,7.0;"/><polygon fill="none" points="886.37,246.01,894.7899,250.381,895.7285,244.4549,886.37,246.01" style="stroke:#181818;stroke-width:0.5;"/></g><!--link AvailabilityState to BookingAdapter--><g id="link_AvailabilityState_BookingAdapter"><path codeLine="63" d="M238.445,309.515 C330.015,322.79 455.461,340.9746 544.861,353.9346 " fill="none" id="AvailabilityState-to-BookingAdapter" style="stroke:#181818;stroke-width:0.5;"/><polygon fill="#181818" points="547.83,354.365,543.6635,351.7401,545.3559,354.0063,543.0896,355.6987,547.83,354.365" style="stroke:#181818;stroke-width:0.5;"/></g><!--link HotelBookingState to BookingAdapter--><g id="link_HotelBookingState_BookingAdapter"><path codeLine="64" d="M445.35,309.515 C475.445,318.24 510.6186,328.4398 545.8586,338.6548 " fill="none" id="HotelBookingState-to-BookingAdapter" style="stroke:#181818;stroke-width:0.5;"/><polygon fill="#181818" points="548.74,339.49,544.9747,336.3162,546.3388,338.794,543.8611,340.1581,548.74,339.49" style="stroke:#181818;stroke-width:0.5;"/></g><!--link FlightBookingState to BookingAdapter--><g id="link_FlightBookingState_BookingAdapter"><path codeLine="65" d="M652.25,309.61 C652.25,318.315 652.25,326.3 652.25,336.48 " fill="none" id="FlightBookingState-to-BookingAdapter" style="stroke:#181818;stroke-width:0.5;"/><polygon fill="#181818" points="652.25,339.48,654.25,334.98,652.25,336.98,650.25,334.98,652.25,339.48" style="stroke:#181818;stroke-width:0.5;"/></g><!--link CarBookingState to BookingAdapter--><g id="link_CarBookingState_BookingAdapter"><path codeLine="66" d="M859.15,309.515 C829.055,318.24 793.8814,328.4398 758.6414,338.6548 " fill="none" id="CarBookingState-to-BookingAdapter" style="stroke:#181818;stroke-width:0.5;"/><polygon fill="#181818" points="755.76,339.49,760.6389,340.1581,758.1612,338.794,759.5253,336.3162,755.76,339.49" style="stroke:#181818;stroke-width:0.5;"/></g><!--reverse link BookingAdapter to IAdapter--><g id="link_BookingAdapter_IAdapter"><path codeLine="67" d="M652.25,409.595 C652.25,419.2 652.25,420.83 652.25,430.435 " fill="none" id="BookingAdapter-backto-IAdapter" style="stroke:#181818;stroke-width:0.5;stroke-dasharray:7.0,7.0;"/><polygon fill="none" points="652.25,400.595,649.25,409.595,655.25,409.595,652.25,400.595" style="stroke:#181818;stroke-width:0.5;"/></g><!--SRC=[vLJBJiCm4BpxAtmCWlG3448gbH1SKyJTTPR4gci7Uub0mB_ZkacQX-jBrLmusfxTMU_k39VCMfg11LCp55gjj4AZfGH3lmcbrtIZzVR5Y2enyFu15c_fWxiHgiWEvolQkx6LLXR8Bo7S9suUNhKijCd1fqofHORGHQtt9qzb0VqX2G3sDBKMkGTMHdEmjda_fxAr-xVWqFprhBn28PWtvfBrwsuobqpb4fe42NTDXizZuhO_DpH2wN_VrR-icP1i8wJ0huiIFMa4ESUF7gKeIfo3QSNCB3HwLqb0o2_4SbouvsNEAkmaoqlWs_w2n3RPwLi2KvtM_RnZ0Vs5wFQ_ZJuCCHO-6FCateqc5koUCr38v4b1_-jEaB2Hf-dzoE_8oFvwYAQ14KIxf6JixdqUR-e3bTtzB1PJsmfW9euJm4pD8W0QwJo464YKJ4qrq9Yf8GP00JCBeCP6T7eCxLhxgbkv_m40]--></g></svg>