<svg xmlns="http://www.w3.org/2000/svg" xmlns:xlink="http://www.w3.org/1999/xlink" contentStyleType="text/css" height="789px" preserveAspectRatio="none" style="width:1402px;height:789px;background:#FFFFFF;" version="1.1" viewBox="0 0 1402 789" width="1402px" zoomAndPan="magnify"><defs/><g><!--class ReservationController--><g id="elem_ReservationController"><rect codeLine="1" fill="#F1F1F1" height="66.6211" id="ReservationController" rx="2.5" ry="2.5" style="stroke:#181818;stroke-width:0.5;" width="372.3086" x="66.5" y="7"/><ellipse cx="180.708" cy="23" fill="#ADD1B2" rx="11" ry="11" style="stroke:#181818;stroke-width:1.0;"/><path d="M183.4736,18.875 Q183.6299,18.6563 183.8174,18.5469 Q184.0049,18.4375 184.2236,18.4375 Q184.5986,18.4375 184.833,18.7031 Q185.0674,18.9531 185.0674,19.5625 L185.0674,21.0156 Q185.0674,21.625 184.833,21.8906 Q184.5986,22.1563 184.2236,22.1563 Q183.8799,22.1563 183.6768,21.9531 Q183.4736,21.7656 183.3643,21.25 Q183.3174,20.8906 183.1299,20.7031 Q182.8018,20.3281 182.1924,20.1094 Q181.583,19.8906 180.958,19.8906 Q180.1924,19.8906 179.5518,20.2188 Q178.9268,20.5469 178.4268,21.2969 Q177.9424,22.0469 177.9424,23.0781 L177.9424,24.1719 Q177.9424,25.4063 178.833,26.2344 Q179.7236,27.0469 181.3174,27.0469 Q182.2549,27.0469 182.9111,26.7969 Q183.3018,26.6406 183.7236,26.2031 Q183.9893,25.9375 184.1299,25.8594 Q184.2861,25.7813 184.4893,25.7813 Q184.8174,25.7813 185.0674,26.0469 Q185.333,26.2969 185.333,26.6406 Q185.333,26.9844 184.9893,27.3906 Q184.4893,27.9688 183.6924,28.2969 Q182.6143,28.75 181.3174,28.75 Q179.8018,28.75 178.5986,28.125 Q177.6143,27.625 176.9268,26.5625 Q176.2393,25.4844 176.2393,24.2031 L176.2393,23.0469 Q176.2393,21.7188 176.8486,20.5781 Q177.4736,19.4219 178.5674,18.8125 Q179.6611,18.1875 180.8955,18.1875 Q181.6299,18.1875 182.2705,18.3594 Q182.9268,18.5156 183.4736,18.875 Z " fill="#000000"/><text fill="#000000" font-family="sans-serif" font-size="14" lengthAdjust="spacing" textLength="135.3926" x="201.208" y="28.7969">ReservationController</text><line style="stroke:#181818;stroke-width:0.5;" x1="67.5" x2="437.8086" y1="39" y2="39"/><line style="stroke:#181818;stroke-width:0.5;" x1="67.5" x2="437.8086" y1="47" y2="47"/><ellipse cx="77.5" cy="61.8105" fill="#84BE84" rx="3" ry="3" style="stroke:#038048;stroke-width:1.0;"/><text fill="#000000" font-family="sans-serif" font-size="14" lengthAdjust="spacing" textLength="346.3086" x="86.5" y="66.1074">bookTrip(request: BookingRequest) : BookingResponse</text></g><!--class BookingService--><g id="elem_BookingService"><rect codeLine="5" fill="#F1F1F1" height="66.6211" id="BookingService" rx="2.5" ry="2.5" style="stroke:#181818;stroke-width:0.5;" width="417.4531" x="44" y="134"/><ellipse cx="199.8389" cy="150" fill="#ADD1B2" rx="11" ry="11" style="stroke:#181818;stroke-width:1.0;"/><path d="M202.6045,145.875 Q202.7607,145.6563 202.9482,145.5469 Q203.1357,145.4375 203.3545,145.4375 Q203.7295,145.4375 203.9639,145.7031 Q204.1982,145.9531 204.1982,146.5625 L204.1982,148.0156 Q204.1982,148.625 203.9639,148.8906 Q203.7295,149.1563 203.3545,149.1563 Q203.0107,149.1563 202.8076,148.9531 Q202.6045,148.7656 202.4951,148.25 Q202.4482,147.8906 202.2607,147.7031 Q201.9326,147.3281 201.3232,147.1094 Q200.7139,146.8906 200.0889,146.8906 Q199.3232,146.8906 198.6826,147.2188 Q198.0576,147.5469 197.5576,148.2969 Q197.0732,149.0469 197.0732,150.0781 L197.0732,151.1719 Q197.0732,152.4063 197.9639,153.2344 Q198.8545,154.0469 200.4482,154.0469 Q201.3857,154.0469 202.042,153.7969 Q202.4326,153.6406 202.8545,153.2031 Q203.1201,152.9375 203.2607,152.8594 Q203.417,152.7813 203.6201,152.7813 Q203.9482,152.7813 204.1982,153.0469 Q204.4639,153.2969 204.4639,153.6406 Q204.4639,153.9844 204.1201,154.3906 Q203.6201,154.9688 202.8232,155.2969 Q201.7451,155.75 200.4482,155.75 Q198.9326,155.75 197.7295,155.125 Q196.7451,154.625 196.0576,153.5625 Q195.3701,152.4844 195.3701,151.2031 L195.3701,150.0469 Q195.3701,148.7188 195.9795,147.5781 Q196.6045,146.4219 197.6982,145.8125 Q198.792,145.1875 200.0264,145.1875 Q200.7607,145.1875 201.4014,145.3594 Q202.0576,145.5156 202.6045,145.875 Z " fill="#000000"/><text fill="#000000" font-family="sans-serif" font-size="14" lengthAdjust="spacing" textLength="97.2754" x="220.3389" y="155.7969">BookingService</text><line style="stroke:#181818;stroke-width:0.5;" x1="45" x2="460.4531" y1="166" y2="166"/><line style="stroke:#181818;stroke-width:0.5;" x1="45" x2="460.4531" y1="174" y2="174"/><ellipse cx="55" cy="188.8105" fill="#84BE84" rx="3" ry="3" style="stroke:#038048;stroke-width:1.0;"/><text fill="#000000" font-family="sans-serif" font-size="14" lengthAdjust="spacing" textLength="391.4531" x="64" y="193.1074">processBooking(request: BookingRequest) : BookingResponse</text></g><!--class BookingState--><g id="elem_BookingState"><rect codeLine="9" fill="#F1F1F1" height="66.6211" id="BookingState" rx="2.5" ry="2.5" style="stroke:#181818;stroke-width:0.5;" width="491.4043" x="550" y="134"/><ellipse cx="749.811" cy="150" fill="#B4A7E5" rx="11" ry="11" style="stroke:#181818;stroke-width:1.0;"/><path d="M750.7642,146.6406 L750.7642,153.2969 L752.4829,153.2969 Q753.0923,153.2969 753.3579,153.5313 Q753.6235,153.7656 753.6235,154.1563 Q753.6235,154.5313 753.3579,154.7656 Q753.0923,155 752.4829,155 L747.3423,155 Q746.7329,155 746.4673,154.7656 Q746.2017,154.5313 746.2017,154.1406 Q746.2017,153.7656 746.4673,153.5313 Q746.7329,153.2969 747.3423,153.2969 L749.061,153.2969 L749.061,146.6406 L747.3423,146.6406 Q746.7329,146.6406 746.4673,146.4063 Q746.2017,146.1719 746.2017,145.7813 Q746.2017,145.4063 746.4673,145.1719 Q746.7329,144.9375 747.3423,144.9375 L752.4829,144.9375 Q753.0923,144.9375 753.3579,145.1719 Q753.6235,145.4063 753.6235,145.7813 Q753.6235,146.1719 753.3579,146.4063 Q753.0923,146.6406 752.4829,146.6406 L750.7642,146.6406 Z " fill="#000000"/><text fill="#000000" font-family="sans-serif" font-size="14" font-style="italic" lengthAdjust="spacing" textLength="83.2822" x="770.311" y="155.7969">BookingState</text><line style="stroke:#181818;stroke-width:0.5;" x1="551" x2="1040.4043" y1="166" y2="166"/><line style="stroke:#181818;stroke-width:0.5;" x1="551" x2="1040.4043" y1="174" y2="174"/><ellipse cx="561" cy="188.8105" fill="#84BE84" rx="3" ry="3" style="stroke:#038048;stroke-width:1.0;"/><text fill="#000000" font-family="sans-serif" font-size="14" lengthAdjust="spacing" textLength="465.4043" x="570" y="193.1074">handleRequest(context: BookingVolgorde, request: BookingRequest) : void</text></g><!--class InitialState--><g id="elem_InitialState"><rect codeLine="13" fill="#F1F1F1" height="66.6211" id="InitialState" rx="2.5" ry="2.5" style="stroke:#181818;stroke-width:0.5;" width="491.4043" x="7" y="261"/><ellipse cx="215.7661" cy="277" fill="#ADD1B2" rx="11" ry="11" style="stroke:#181818;stroke-width:1.0;"/><path d="M218.5317,272.875 Q218.688,272.6563 218.8755,272.5469 Q219.063,272.4375 219.2817,272.4375 Q219.6567,272.4375 219.8911,272.7031 Q220.1255,272.9531 220.1255,273.5625 L220.1255,275.0156 Q220.1255,275.625 219.8911,275.8906 Q219.6567,276.1563 219.2817,276.1563 Q218.938,276.1563 218.7349,275.9531 Q218.5317,275.7656 218.4224,275.25 Q218.3755,274.8906 218.188,274.7031 Q217.8599,274.3281 217.2505,274.1094 Q216.6411,273.8906 216.0161,273.8906 Q215.2505,273.8906 214.6099,274.2188 Q213.9849,274.5469 213.4849,275.2969 Q213.0005,276.0469 213.0005,277.0781 L213.0005,278.1719 Q213.0005,279.4063 213.8911,280.2344 Q214.7817,281.0469 216.3755,281.0469 Q217.313,281.0469 217.9692,280.7969 Q218.3599,280.6406 218.7817,280.2031 Q219.0474,279.9375 219.188,279.8594 Q219.3442,279.7813 219.5474,279.7813 Q219.8755,279.7813 220.1255,280.0469 Q220.3911,280.2969 220.3911,280.6406 Q220.3911,280.9844 220.0474,281.3906 Q219.5474,281.9688 218.7505,282.2969 Q217.6724,282.75 216.3755,282.75 Q214.8599,282.75 213.6567,282.125 Q212.6724,281.625 211.9849,280.5625 Q211.2974,279.4844 211.2974,278.2031 L211.2974,277.0469 Q211.2974,275.7188 211.9067,274.5781 Q212.5317,273.4219 213.6255,272.8125 Q214.7192,272.1875 215.9536,272.1875 Q216.688,272.1875 217.3286,272.3594 Q217.9849,272.5156 218.5317,272.875 Z " fill="#000000"/><text fill="#000000" font-family="sans-serif" font-size="14" lengthAdjust="spacing" textLength="65.3721" x="236.2661" y="282.7969">InitialState</text><line style="stroke:#181818;stroke-width:0.5;" x1="8" x2="497.4043" y1="293" y2="293"/><line style="stroke:#181818;stroke-width:0.5;" x1="8" x2="497.4043" y1="301" y2="301"/><ellipse cx="18" cy="315.8105" fill="#84BE84" rx="3" ry="3" style="stroke:#038048;stroke-width:1.0;"/><text fill="#000000" font-family="sans-serif" font-size="14" lengthAdjust="spacing" textLength="465.4043" x="27" y="320.1074">handleRequest(context: BookingVolgorde, request: BookingRequest) : void</text></g><!--class HotelBookingState--><g id="elem_HotelBookingState"><rect codeLine="17" fill="#F1F1F1" height="66.6211" id="HotelBookingState" rx="2.5" ry="2.5" style="stroke:#181818;stroke-width:0.5;" width="491.4043" x="306" y="388"/><ellipse cx="489.4697" cy="404" fill="#ADD1B2" rx="11" ry="11" style="stroke:#181818;stroke-width:1.0;"/><path d="M492.2354,399.875 Q492.3916,399.6563 492.5791,399.5469 Q492.7666,399.4375 492.9854,399.4375 Q493.3604,399.4375 493.5947,399.7031 Q493.8291,399.9531 493.8291,400.5625 L493.8291,402.0156 Q493.8291,402.625 493.5947,402.8906 Q493.3604,403.1563 492.9854,403.1563 Q492.6416,403.1563 492.4385,402.9531 Q492.2354,402.7656 492.126,402.25 Q492.0791,401.8906 491.8916,401.7031 Q491.5635,401.3281 490.9541,401.1094 Q490.3447,400.8906 489.7197,400.8906 Q488.9541,400.8906 488.3135,401.2188 Q487.6885,401.5469 487.1885,402.2969 Q486.7041,403.0469 486.7041,404.0781 L486.7041,405.1719 Q486.7041,406.4063 487.5947,407.2344 Q488.4854,408.0469 490.0791,408.0469 Q491.0166,408.0469 491.6729,407.7969 Q492.0635,407.6406 492.4854,407.2031 Q492.751,406.9375 492.8916,406.8594 Q493.0479,406.7813 493.251,406.7813 Q493.5791,406.7813 493.8291,407.0469 Q494.0947,407.2969 494.0947,407.6406 Q494.0947,407.9844 493.751,408.3906 Q493.251,408.9688 492.4541,409.2969 Q491.376,409.75 490.0791,409.75 Q488.5635,409.75 487.3604,409.125 Q486.376,408.625 485.6885,407.5625 Q485.001,406.4844 485.001,405.2031 L485.001,404.0469 Q485.001,402.7188 485.6104,401.5781 Q486.2354,400.4219 487.3291,399.8125 Q488.4229,399.1875 489.6572,399.1875 Q490.3916,399.1875 491.0322,399.3594 Q491.6885,399.5156 492.2354,399.875 Z " fill="#000000"/><text fill="#000000" font-family="sans-serif" font-size="14" lengthAdjust="spacing" textLength="115.9648" x="509.9697" y="409.7969">HotelBookingState</text><line style="stroke:#181818;stroke-width:0.5;" x1="307" x2="796.4043" y1="420" y2="420"/><line style="stroke:#181818;stroke-width:0.5;" x1="307" x2="796.4043" y1="428" y2="428"/><ellipse cx="317" cy="442.8105" fill="#84BE84" rx="3" ry="3" style="stroke:#038048;stroke-width:1.0;"/><text fill="#000000" font-family="sans-serif" font-size="14" lengthAdjust="spacing" textLength="465.4043" x="326" y="447.1074">handleRequest(context: BookingVolgorde, request: BookingRequest) : void</text></g><!--class FlightBookingState--><g id="elem_FlightBookingState"><rect codeLine="21" fill="#F1F1F1" height="66.6211" id="FlightBookingState" rx="2.5" ry="2.5" style="stroke:#181818;stroke-width:0.5;" width="491.4043" x="605" y="261"/><ellipse cx="787.6938" cy="277" fill="#ADD1B2" rx="11" ry="11" style="stroke:#181818;stroke-width:1.0;"/><path d="M790.4595,272.875 Q790.6157,272.6563 790.8032,272.5469 Q790.9907,272.4375 791.2095,272.4375 Q791.5845,272.4375 791.8188,272.7031 Q792.0532,272.9531 792.0532,273.5625 L792.0532,275.0156 Q792.0532,275.625 791.8188,275.8906 Q791.5845,276.1563 791.2095,276.1563 Q790.8657,276.1563 790.6626,275.9531 Q790.4595,275.7656 790.3501,275.25 Q790.3032,274.8906 790.1157,274.7031 Q789.7876,274.3281 789.1782,274.1094 Q788.5688,273.8906 787.9438,273.8906 Q787.1782,273.8906 786.5376,274.2188 Q785.9126,274.5469 785.4126,275.2969 Q784.9282,276.0469 784.9282,277.0781 L784.9282,278.1719 Q784.9282,279.4063 785.8188,280.2344 Q786.7095,281.0469 788.3032,281.0469 Q789.2407,281.0469 789.897,280.7969 Q790.2876,280.6406 790.7095,280.2031 Q790.9751,279.9375 791.1157,279.8594 Q791.272,279.7813 791.4751,279.7813 Q791.8032,279.7813 792.0532,280.0469 Q792.3188,280.2969 792.3188,280.6406 Q792.3188,280.9844 791.9751,281.3906 Q791.4751,281.9688 790.6782,282.2969 Q789.6001,282.75 788.3032,282.75 Q786.7876,282.75 785.5845,282.125 Q784.6001,281.625 783.9126,280.5625 Q783.2251,279.4844 783.2251,278.2031 L783.2251,277.0469 Q783.2251,275.7188 783.8345,274.5781 Q784.4595,273.4219 785.5532,272.8125 Q786.647,272.1875 787.8813,272.1875 Q788.6157,272.1875 789.2563,272.3594 Q789.9126,272.5156 790.4595,272.875 Z " fill="#000000"/><text fill="#000000" font-family="sans-serif" font-size="14" lengthAdjust="spacing" textLength="117.5166" x="808.1938" y="282.7969">FlightBookingState</text><line style="stroke:#181818;stroke-width:0.5;" x1="606" x2="1095.4043" y1="293" y2="293"/><line style="stroke:#181818;stroke-width:0.5;" x1="606" x2="1095.4043" y1="301" y2="301"/><ellipse cx="616" cy="315.8105" fill="#84BE84" rx="3" ry="3" style="stroke:#038048;stroke-width:1.0;"/><text fill="#000000" font-family="sans-serif" font-size="14" lengthAdjust="spacing" textLength="465.4043" x="625" y="320.1074">handleRequest(context: BookingVolgorde, request: BookingRequest) : void</text></g><!--class CarBookingState--><g id="elem_CarBookingState"><rect codeLine="25" fill="#F1F1F1" height="66.6211" id="CarBookingState" rx="2.5" ry="2.5" style="stroke:#181818;stroke-width:0.5;" width="491.4043" x="904" y="388"/><ellipse cx="1092.5317" cy="404" fill="#ADD1B2" rx="11" ry="11" style="stroke:#181818;stroke-width:1.0;"/><path d="M1095.2974,399.875 Q1095.4536,399.6563 1095.6411,399.5469 Q1095.8286,399.4375 1096.0474,399.4375 Q1096.4224,399.4375 1096.6567,399.7031 Q1096.8911,399.9531 1096.8911,400.5625 L1096.8911,402.0156 Q1096.8911,402.625 1096.6567,402.8906 Q1096.4224,403.1563 1096.0474,403.1563 Q1095.7036,403.1563 1095.5005,402.9531 Q1095.2974,402.7656 1095.188,402.25 Q1095.1411,401.8906 1094.9536,401.7031 Q1094.6255,401.3281 1094.0161,401.1094 Q1093.4067,400.8906 1092.7817,400.8906 Q1092.0161,400.8906 1091.3755,401.2188 Q1090.7505,401.5469 1090.2505,402.2969 Q1089.7661,403.0469 1089.7661,404.0781 L1089.7661,405.1719 Q1089.7661,406.4063 1090.6567,407.2344 Q1091.5474,408.0469 1093.1411,408.0469 Q1094.0786,408.0469 1094.7349,407.7969 Q1095.1255,407.6406 1095.5474,407.2031 Q1095.813,406.9375 1095.9536,406.8594 Q1096.1099,406.7813 1096.313,406.7813 Q1096.6411,406.7813 1096.8911,407.0469 Q1097.1567,407.2969 1097.1567,407.6406 Q1097.1567,407.9844 1096.813,408.3906 Q1096.313,408.9688 1095.5161,409.2969 Q1094.438,409.75 1093.1411,409.75 Q1091.6255,409.75 1090.4224,409.125 Q1089.438,408.625 1088.7505,407.5625 Q1088.063,406.4844 1088.063,405.2031 L1088.063,404.0469 Q1088.063,402.7188 1088.6724,401.5781 Q1089.2974,400.4219 1090.3911,399.8125 Q1091.4849,399.1875 1092.7192,399.1875 Q1093.4536,399.1875 1094.0942,399.3594 Q1094.7505,399.5156 1095.2974,399.875 Z " fill="#000000"/><text fill="#000000" font-family="sans-serif" font-size="14" lengthAdjust="spacing" textLength="105.8408" x="1113.0317" y="409.7969">CarBookingState</text><line style="stroke:#181818;stroke-width:0.5;" x1="905" x2="1394.4043" y1="420" y2="420"/><line style="stroke:#181818;stroke-width:0.5;" x1="905" x2="1394.4043" y1="428" y2="428"/><ellipse cx="915" cy="442.8105" fill="#84BE84" rx="3" ry="3" style="stroke:#038048;stroke-width:1.0;"/><text fill="#000000" font-family="sans-serif" font-size="14" lengthAdjust="spacing" textLength="465.4043" x="924" y="447.1074">handleRequest(context: BookingVolgorde, request: BookingRequest) : void</text></g><!--class IAdapter--><g id="elem_IAdapter"><rect codeLine="29" fill="#F1F1F1" height="103.8633" id="IAdapter" rx="2.5" ry="2.5" style="stroke:#181818;stroke-width:0.5;" width="416.667" x="642" y="679"/><ellipse cx="819.6216" cy="695" fill="#B4A7E5" rx="11" ry="11" style="stroke:#181818;stroke-width:1.0;"/><path d="M820.5747,691.6406 L820.5747,698.2969 L822.2935,698.2969 Q822.9028,698.2969 823.1685,698.5313 Q823.4341,698.7656 823.4341,699.1563 Q823.4341,699.5313 823.1685,699.7656 Q822.9028,700 822.2935,700 L817.1528,700 Q816.5435,700 816.2778,699.7656 Q816.0122,699.5313 816.0122,699.1406 Q816.0122,698.7656 816.2778,698.5313 Q816.5435,698.2969 817.1528,698.2969 L818.8716,698.2969 L818.8716,691.6406 L817.1528,691.6406 Q816.5435,691.6406 816.2778,691.4063 Q816.0122,691.1719 816.0122,690.7813 Q816.0122,690.4063 816.2778,690.1719 Q816.5435,689.9375 817.1528,689.9375 L822.2935,689.9375 Q822.9028,689.9375 823.1685,690.1719 Q823.4341,690.4063 823.4341,690.7813 Q823.4341,691.1719 823.1685,691.4063 Q822.9028,691.6406 822.2935,691.6406 L820.5747,691.6406 Z " fill="#000000"/><text fill="#000000" font-family="sans-serif" font-size="14" font-style="italic" lengthAdjust="spacing" textLength="52.9238" x="840.1216" y="700.7969">IAdapter</text><line style="stroke:#181818;stroke-width:0.5;" x1="643" x2="1057.667" y1="711" y2="711"/><line style="stroke:#181818;stroke-width:0.5;" x1="643" x2="1057.667" y1="719" y2="719"/><ellipse cx="653" cy="733.8105" fill="#84BE84" rx="3" ry="3" style="stroke:#038048;stroke-width:1.0;"/><text fill="#000000" font-family="sans-serif" font-size="14" lengthAdjust="spacing" textLength="387.5635" x="662" y="738.1074">bookHotel(request: BookingRequest) : HotelBookingResponse</text><ellipse cx="653" cy="752.4316" fill="#84BE84" rx="3" ry="3" style="stroke:#038048;stroke-width:1.0;"/><text fill="#000000" font-family="sans-serif" font-size="14" lengthAdjust="spacing" textLength="390.667" x="662" y="756.7285">bookFlight(request: BookingRequest) : FlightBookingResponse</text><ellipse cx="653" cy="771.0527" fill="#84BE84" rx="3" ry="3" style="stroke:#038048;stroke-width:1.0;"/><text fill="#000000" font-family="sans-serif" font-size="14" lengthAdjust="spacing" textLength="357.1914" x="662" y="775.3496">bookCar(request: BookingRequest) : CarRentalResponse</text></g><!--class BookingAdapter--><g id="elem_BookingAdapter"><rect codeLine="35" fill="#F1F1F1" height="103.8633" id="BookingAdapter" rx="2.5" ry="2.5" style="stroke:#181818;stroke-width:0.5;" width="416.667" x="642" y="515"/><ellipse cx="796.27" cy="531" fill="#ADD1B2" rx="11" ry="11" style="stroke:#181818;stroke-width:1.0;"/><path d="M799.0356,526.875 Q799.1919,526.6563 799.3794,526.5469 Q799.5669,526.4375 799.7856,526.4375 Q800.1606,526.4375 800.395,526.7031 Q800.6294,526.9531 800.6294,527.5625 L800.6294,529.0156 Q800.6294,529.625 800.395,529.8906 Q800.1606,530.1563 799.7856,530.1563 Q799.4419,530.1563 799.2388,529.9531 Q799.0356,529.7656 798.9263,529.25 Q798.8794,528.8906 798.6919,528.7031 Q798.3638,528.3281 797.7544,528.1094 Q797.145,527.8906 796.52,527.8906 Q795.7544,527.8906 795.1138,528.2188 Q794.4888,528.5469 793.9888,529.2969 Q793.5044,530.0469 793.5044,531.0781 L793.5044,532.1719 Q793.5044,533.4063 794.395,534.2344 Q795.2856,535.0469 796.8794,535.0469 Q797.8169,535.0469 798.4731,534.7969 Q798.8638,534.6406 799.2856,534.2031 Q799.5513,533.9375 799.6919,533.8594 Q799.8481,533.7813 800.0513,533.7813 Q800.3794,533.7813 800.6294,534.0469 Q800.895,534.2969 800.895,534.6406 Q800.895,534.9844 800.5513,535.3906 Q800.0513,535.9688 799.2544,536.2969 Q798.1763,536.75 796.8794,536.75 Q795.3638,536.75 794.1606,536.125 Q793.1763,535.625 792.4888,534.5625 Q791.8013,533.4844 791.8013,532.2031 L791.8013,531.0469 Q791.8013,529.7188 792.4106,528.5781 Q793.0356,527.4219 794.1294,526.8125 Q795.2231,526.1875 796.4575,526.1875 Q797.1919,526.1875 797.8325,526.3594 Q798.4888,526.5156 799.0356,526.875 Z " fill="#000000"/><text fill="#000000" font-family="sans-serif" font-size="14" lengthAdjust="spacing" textLength="99.627" x="816.77" y="536.7969">BookingAdapter</text><line style="stroke:#181818;stroke-width:0.5;" x1="643" x2="1057.667" y1="547" y2="547"/><line style="stroke:#181818;stroke-width:0.5;" x1="643" x2="1057.667" y1="555" y2="555"/><ellipse cx="653" cy="569.8105" fill="#84BE84" rx="3" ry="3" style="stroke:#038048;stroke-width:1.0;"/><text fill="#000000" font-family="sans-serif" font-size="14" lengthAdjust="spacing" textLength="387.5635" x="662" y="574.1074">bookHotel(request: BookingRequest) : HotelBookingResponse</text><ellipse cx="653" cy="588.4316" fill="#84BE84" rx="3" ry="3" style="stroke:#038048;stroke-width:1.0;"/><text fill="#000000" font-family="sans-serif" font-size="14" lengthAdjust="spacing" textLength="390.667" x="662" y="592.7285">bookFlight(request: BookingRequest) : FlightBookingResponse</text><ellipse cx="653" cy="607.0527" fill="#84BE84" rx="3" ry="3" style="stroke:#038048;stroke-width:1.0;"/><text fill="#000000" font-family="sans-serif" font-size="14" lengthAdjust="spacing" textLength="357.1914" x="662" y="611.3496">bookCar(request: BookingRequest) : CarRentalResponse</text></g><!--link ReservationController to BookingService--><g id="link_ReservationController_BookingService"><path codeLine="42" d="M252.5,74.02 C252.5,92.39 252.5,109.29 252.5,127.71 " fill="none" id="ReservationController-to-BookingService" style="stroke:#181818;stroke-width:1.0;"/><polygon fill="#181818" points="252.5,133.71,256.5,124.71,252.5,128.71,248.5,124.71,252.5,133.71" style="stroke:#181818;stroke-width:1.0;"/><text fill="#000000" font-family="sans-serif" font-size="13" lengthAdjust="spacing" textLength="34.6899" x="215.2819" y="122.7406">Roept</text></g><!--link BookingService to InitialState--><g id="link_BookingService_InitialState"><path codeLine="43" d="M252.5,201.02 C252.5,219.39 252.5,236.29 252.5,254.71 " fill="none" id="BookingService-to-InitialState" style="stroke:#181818;stroke-width:1.0;"/><polygon fill="#181818" points="252.5,260.71,256.5,251.71,252.5,255.71,248.5,251.71,252.5,260.71" style="stroke:#181818;stroke-width:1.0;"/><text fill="#000000" font-family="sans-serif" font-size="13" lengthAdjust="spacing" textLength="62.1436" x="184.5658" y="249.7406">Begint met</text></g><!--reverse link BookingState to InitialState--><g id="link_BookingState_InitialState"><path codeLine="44" d="M636.7085,205.0568 C556.5785,223.4968 474.15,242.47 393.98,260.93 " fill="none" id="BookingState-backto-InitialState" style="stroke:#181818;stroke-width:1.0;stroke-dasharray:7.0,7.0;"/><polygon fill="none" points="654.25,201.02,635.3629,199.2096,638.0541,210.9039,654.25,201.02" style="stroke:#181818;stroke-width:1.0;"/><text fill="#000000" font-family="sans-serif" font-size="13" lengthAdjust="spacing" textLength="83.0908" x="538.6697" y="222.5928">Implementeert</text></g><!--reverse link BookingState to HotelBookingState--><g id="link_BookingState_HotelBookingState"><path codeLine="45" d="M656.0614,208.284 C624.3514,222.064 609.5,234.19 587.5,261 C557.88,297.1 551.46,352.66 550.66,387.77 " fill="none" id="BookingState-backto-HotelBookingState" style="stroke:#181818;stroke-width:1.0;stroke-dasharray:7.0,7.0;"/><polygon fill="none" points="672.57,201.11,653.6701,202.7812,658.4528,213.7869,672.57,201.11" style="stroke:#181818;stroke-width:1.0;"/><text fill="#000000" font-family="sans-serif" font-size="13" lengthAdjust="spacing" textLength="83.0908" x="658.0374" y="222.6988">Implementeert</text></g><!--reverse link BookingState to FlightBookingState--><g id="link_BookingState_FlightBookingState"><path codeLine="46" d="M817.0572,217.4966 C825.1372,235.8666 827.97,242.29 836.07,260.71 " fill="none" id="BookingState-backto-FlightBookingState" style="stroke:#181818;stroke-width:1.0;stroke-dasharray:7.0,7.0;"/><polygon fill="none" points="809.81,201.02,811.565,219.9123,822.5494,215.0809,809.81,201.02" style="stroke:#181818;stroke-width:1.0;"/><text fill="#000000" font-family="sans-serif" font-size="13" lengthAdjust="spacing" textLength="83.0908" x="819.7232" y="222.5928">Implementeert</text></g><!--reverse link BookingState to CarBookingState--><g id="link_BookingState_CarBookingState"><path codeLine="47" d="M1037.6001,207.7759 C1072.2901,221.4859 1088.19,234.09 1113.5,261 C1145.79,295.32 1151.34,352.2 1151.25,387.95 " fill="none" id="BookingState-backto-CarBookingState" style="stroke:#181818;stroke-width:1.0;stroke-dasharray:7.0,7.0;"/><polygon fill="none" points="1020.86,201.16,1035.3948,213.3559,1039.8054,202.1959,1020.86,201.16" style="stroke:#181818;stroke-width:1.0;"/><text fill="#000000" font-family="sans-serif" font-size="13" lengthAdjust="spacing" textLength="83.0908" x="970.5821" y="222.7577">Implementeert</text></g><!--link InitialState to HotelBookingState--><g id="link_InitialState_HotelBookingState"><path codeLine="48" d="M330.28,328.02 C374.4,346.46 423.9146,367.155 468.0546,385.615 " fill="none" id="InitialState-to-HotelBookingState" style="stroke:#181818;stroke-width:1.0;"/><polygon fill="#181818" points="473.59,387.93,466.8302,380.7672,468.9772,386.0008,463.7436,388.1478,473.59,387.93" style="stroke:#181818;stroke-width:1.0;"/><text fill="#000000" font-family="sans-serif" font-size="13" lengthAdjust="spacing" textLength="75.1563" x="375.8442" y="376.7417">Gaat over na</text></g><!--link HotelBookingState to BookingAdapter--><g id="link_HotelBookingState_BookingAdapter"><path codeLine="49" d="M619.35,455.06 C656.22,472.76 697.2409,492.4435 738.8009,512.3935 " fill="none" id="HotelBookingState-to-BookingAdapter" style="stroke:#181818;stroke-width:1.0;"/><polygon fill="#181818" points="744.21,514.99,737.8274,507.4892,739.7024,512.8262,734.3654,514.7013,744.21,514.99" style="stroke:#181818;stroke-width:1.0;"/><text fill="#000000" font-family="sans-serif" font-size="13" lengthAdjust="spacing" textLength="49.1309" x="677.6663" y="503.916">Gebruikt</text></g><!--link FlightBookingState to BookingAdapter--><g id="link_FlightBookingState_BookingAdapter"><path codeLine="50" d="M850.5,328.13 C850.5,374.5 850.5,453.91 850.5,508.78 " fill="none" id="FlightBookingState-to-BookingAdapter" style="stroke:#181818;stroke-width:1.0;"/><polygon fill="#181818" points="850.5,514.78,854.5,505.78,850.5,509.78,846.5,505.78,850.5,514.78" style="stroke:#181818;stroke-width:1.0;"/><text fill="#000000" font-family="sans-serif" font-size="13" lengthAdjust="spacing" textLength="49.1309" x="798.239" y="503.6778">Gebruikt</text></g><!--link CarBookingState to BookingAdapter--><g id="link_CarBookingState_BookingAdapter"><path codeLine="51" d="M1081.65,455.06 C1044.78,472.76 1003.7591,492.4435 962.1991,512.3935 " fill="none" id="CarBookingState-to-BookingAdapter" style="stroke:#181818;stroke-width:1.0;"/><polygon fill="#181818" points="956.79,514.99,966.6346,514.7013,961.2976,512.8262,963.1726,507.4892,956.79,514.99" style="stroke:#181818;stroke-width:1.0;"/><text fill="#000000" font-family="sans-serif" font-size="13" lengthAdjust="spacing" textLength="49.1309" x="918.8117" y="503.916">Gebruikt</text></g><!--reverse link BookingAdapter to IAdapter--><g id="link_BookingAdapter_IAdapter"><path codeLine="52" d="M850.5,637.26 C850.5,656.26 850.5,659.8 850.5,678.8 " fill="none" id="BookingAdapter-backto-IAdapter" style="stroke:#181818;stroke-width:1.0;stroke-dasharray:7.0,7.0;"/><polygon fill="none" points="850.5,619.26,844.5,637.26,856.5,637.26,850.5,619.26" style="stroke:#181818;stroke-width:1.0;"/><text fill="#000000" font-family="sans-serif" font-size="13" lengthAdjust="spacing" textLength="83.0908" x="762.468" y="640.7195">Implementeert</text></g><!--SRC=[tLHDJyCm3BtdLqGz3S7s0n12OfC6lHR4FMjD5osDG-9LIC1_9sfJkdvGROVjm36nttFilETK2UTu0WviAKYYNg4cYqg1vP-Cysk-GTozM6bc5jxtuEYMB_sDr7bIdw_umOqpg1smRyRIYZW4dZsxJ24m6eifE1TY9_9AJM3VX2Thk4bGmxmLEbCG26QfRmK-Mk9NL3dQ36xuHCaIPTQ-FzQIf51dhV641EeIpQoLpBTqYKehOSzRfbL1_909GnsrLWETajNXn7-rrQ3hAKt1EtCSu7tlKs0VJa2JK7-QvJyqnCOtodn-pwC4mL3KMmsijocgp2Na_gDv0Jxzq8ci8wueBeo2mhy1mFhCkw_5ujJqWGUFm0pjT0IevmpMMJ1Lquz24CVIJqkBQEHXmtLHms1ZztBN3ZR8Y8suVXhGD-zqTa-quvyHeZy0]--></g></svg>