<svg xmlns="http://www.w3.org/2000/svg" xmlns:xlink="http://www.w3.org/1999/xlink" contentStyleType="text/css" height="749px" preserveAspectRatio="none" style="width:2128px;height:749px;background:#FFFFFF;" version="1.1" viewBox="0 0 2128 749" width="2128px" zoomAndPan="magnify"><defs/><g><line style="stroke:#181818;stroke-width:0.5;stroke-dasharray:5.0,5.0;" x1="33" x2="33" y1="83.6211" y2="666.8594"/><line style="stroke:#181818;stroke-width:0.5;stroke-dasharray:5.0,5.0;" x1="276.3633" x2="276.3633" y1="83.6211" y2="666.8594"/><line style="stroke:#181818;stroke-width:0.5;stroke-dasharray:5.0,5.0;" x1="520.4399" x2="520.4399" y1="83.6211" y2="666.8594"/><line style="stroke:#181818;stroke-width:0.5;stroke-dasharray:5.0,5.0;" x1="802.373" x2="802.373" y1="83.6211" y2="666.8594"/><line style="stroke:#181818;stroke-width:0.5;stroke-dasharray:5.0,5.0;" x1="1047.9082" x2="1047.9082" y1="83.6211" y2="666.8594"/><line style="stroke:#181818;stroke-width:0.5;stroke-dasharray:5.0,5.0;" x1="1291.793" x2="1291.793" y1="83.6211" y2="666.8594"/><line style="stroke:#181818;stroke-width:0.5;stroke-dasharray:5.0,5.0;" x1="1531.6797" x2="1531.6797" y1="83.6211" y2="666.8594"/><line style="stroke:#181818;stroke-width:0.5;stroke-dasharray:5.0,5.0;" x1="2063.0913" x2="2063.0913" y1="83.6211" y2="666.8594"/><text fill="#000000" font-family="sans-serif" font-size="14" lengthAdjust="spacing" textLength="51.3516" x="5" y="80.1074">Reiziger</text><ellipse cx="33.6758" cy="13.5" fill="#E2E2F0" rx="8" ry="8" style="stroke:#181818;stroke-width:0.5;"/><path d="M33.6758,21.5 L33.6758,48.5 M20.6758,29.5 L46.6758,29.5 M33.6758,48.5 L20.6758,63.5 M33.6758,48.5 L46.6758,63.5 " fill="none" style="stroke:#181818;stroke-width:0.5;"/><text fill="#000000" font-family="sans-serif" font-size="14" lengthAdjust="spacing" textLength="51.3516" x="5" y="680.9668">Reiziger</text><ellipse cx="33.6758" cy="692.9805" fill="#E2E2F0" rx="8" ry="8" style="stroke:#181818;stroke-width:0.5;"/><path d="M33.6758,700.9805 L33.6758,727.9805 M20.6758,708.9805 L46.6758,708.9805 M33.6758,727.9805 L20.6758,742.9805 M33.6758,727.9805 L46.6758,742.9805 " fill="none" style="stroke:#181818;stroke-width:0.5;"/><rect fill="#E2E2F0" height="51.2422" rx="2.5" ry="2.5" style="stroke:#181818;stroke-width:0.5;" width="213.9717" x="170.3633" y="31.3789"/><text fill="#000000" font-family="sans-serif" font-size="14" lengthAdjust="spacing" textLength="133.834" x="210.4321" y="53.4863">reservationController:</text><text fill="#000000" font-family="sans-serif" font-size="14" lengthAdjust="spacing" textLength="196.082" x="181.2529" y="72.1074">ReservationControllerController</text><rect fill="#E2E2F0" height="51.2422" rx="2.5" ry="2.5" style="stroke:#181818;stroke-width:0.5;" width="213.9717" x="170.3633" y="665.8594"/><text fill="#000000" font-family="sans-serif" font-size="14" lengthAdjust="spacing" textLength="133.834" x="210.4321" y="687.9668">reservationController:</text><text fill="#000000" font-family="sans-serif" font-size="14" lengthAdjust="spacing" textLength="196.082" x="181.2529" y="706.5879">ReservationControllerController</text><rect fill="#E2E2F0" height="51.2422" rx="2.5" ry="2.5" style="stroke:#181818;stroke-width:0.5;" width="115.165" x="463.4399" y="31.3789"/><text fill="#000000" font-family="sans-serif" font-size="14" lengthAdjust="spacing" textLength="99.6133" x="471.2158" y="53.4863">bookingService:</text><text fill="#000000" font-family="sans-serif" font-size="14" lengthAdjust="spacing" textLength="97.2754" x="474.3296" y="72.1074">BookingService</text><rect fill="#E2E2F0" height="51.2422" rx="2.5" ry="2.5" style="stroke:#181818;stroke-width:0.5;" width="115.165" x="463.4399" y="665.8594"/><text fill="#000000" font-family="sans-serif" font-size="14" lengthAdjust="spacing" textLength="99.6133" x="471.2158" y="687.9668">bookingService:</text><text fill="#000000" font-family="sans-serif" font-size="14" lengthAdjust="spacing" textLength="97.2754" x="474.3296" y="706.5879">BookingService</text><rect fill="#E2E2F0" height="51.2422" rx="2.5" ry="2.5" style="stroke:#181818;stroke-width:0.5;" width="83.2617" x="761.373" y="31.3789"/><text fill="#000000" font-family="sans-serif" font-size="14" lengthAdjust="spacing" textLength="68.4824" x="768.7627" y="53.4863">initialState:</text><text fill="#000000" font-family="sans-serif" font-size="14" lengthAdjust="spacing" textLength="65.3721" x="772.2627" y="72.1074">InitialState</text><rect fill="#E2E2F0" height="51.2422" rx="2.5" ry="2.5" style="stroke:#181818;stroke-width:0.5;" width="83.2617" x="761.373" y="665.8594"/><text fill="#000000" font-family="sans-serif" font-size="14" lengthAdjust="spacing" textLength="68.4824" x="768.7627" y="687.9668">initialState:</text><text fill="#000000" font-family="sans-serif" font-size="14" lengthAdjust="spacing" textLength="65.3721" x="772.2627" y="706.5879">InitialState</text><rect fill="#E2E2F0" height="51.2422" rx="2.5" ry="2.5" style="stroke:#181818;stroke-width:0.5;" width="133.8545" x="981.9082" y="31.3789"/><text fill="#000000" font-family="sans-serif" font-size="14" lengthAdjust="spacing" textLength="117.5303" x="990.0703" y="53.4863">hotelBookingState:</text><text fill="#000000" font-family="sans-serif" font-size="14" lengthAdjust="spacing" textLength="115.9648" x="992.7979" y="72.1074">HotelBookingState</text><rect fill="#E2E2F0" height="51.2422" rx="2.5" ry="2.5" style="stroke:#181818;stroke-width:0.5;" width="133.8545" x="981.9082" y="665.8594"/><text fill="#000000" font-family="sans-serif" font-size="14" lengthAdjust="spacing" textLength="117.5303" x="990.0703" y="687.9668">hotelBookingState:</text><text fill="#000000" font-family="sans-serif" font-size="14" lengthAdjust="spacing" textLength="115.9648" x="992.7979" y="706.5879">HotelBookingState</text><rect fill="#E2E2F0" height="51.2422" rx="2.5" ry="2.5" style="stroke:#181818;stroke-width:0.5;" width="135.4063" x="1224.793" y="31.3789"/><text fill="#000000" font-family="sans-serif" font-size="14" lengthAdjust="spacing" textLength="116.7441" x="1234.124" y="53.4863">flightBookingState:</text><text fill="#000000" font-family="sans-serif" font-size="14" lengthAdjust="spacing" textLength="117.5166" x="1235.6826" y="72.1074">FlightBookingState</text><rect fill="#E2E2F0" height="51.2422" rx="2.5" ry="2.5" style="stroke:#181818;stroke-width:0.5;" width="135.4063" x="1224.793" y="665.8594"/><text fill="#000000" font-family="sans-serif" font-size="14" lengthAdjust="spacing" textLength="116.7441" x="1234.124" y="687.9668">flightBookingState:</text><text fill="#000000" font-family="sans-serif" font-size="14" lengthAdjust="spacing" textLength="117.5166" x="1235.6826" y="706.5879">FlightBookingState</text><rect fill="#E2E2F0" height="51.2422" rx="2.5" ry="2.5" style="stroke:#181818;stroke-width:0.5;" width="123.7305" x="1470.6797" y="31.3789"/><text fill="#000000" font-family="sans-serif" font-size="14" lengthAdjust="spacing" textLength="106.6201" x="1479.2349" y="53.4863">carBookingState:</text><text fill="#000000" font-family="sans-serif" font-size="14" lengthAdjust="spacing" textLength="105.8408" x="1481.5693" y="72.1074">CarBookingState</text><rect fill="#E2E2F0" height="51.2422" rx="2.5" ry="2.5" style="stroke:#181818;stroke-width:0.5;" width="123.7305" x="1470.6797" y="665.8594"/><text fill="#000000" font-family="sans-serif" font-size="14" lengthAdjust="spacing" textLength="106.6201" x="1479.2349" y="687.9668">carBookingState:</text><text fill="#000000" font-family="sans-serif" font-size="14" lengthAdjust="spacing" textLength="105.8408" x="1481.5693" y="706.5879">CarBookingState</text><rect fill="#E2E2F0" height="51.2422" rx="2.5" ry="2.5" style="stroke:#181818;stroke-width:0.5;" width="117.5166" x="2005.0913" y="31.3789"/><text fill="#000000" font-family="sans-serif" font-size="14" lengthAdjust="spacing" textLength="101.9648" x="2012.8672" y="53.4863">bookingAdapter:</text><text fill="#000000" font-family="sans-serif" font-size="14" lengthAdjust="spacing" textLength="99.627" x="2015.981" y="72.1074">BookingAdapter</text><rect fill="#E2E2F0" height="51.2422" rx="2.5" ry="2.5" style="stroke:#181818;stroke-width:0.5;" width="117.5166" x="2005.0913" y="665.8594"/><text fill="#000000" font-family="sans-serif" font-size="14" lengthAdjust="spacing" textLength="101.9648" x="2012.8672" y="687.9668">bookingAdapter:</text><text fill="#000000" font-family="sans-serif" font-size="14" lengthAdjust="spacing" textLength="99.627" x="2015.981" y="706.5879">BookingAdapter</text><polygon fill="#181818" points="265.3491,112.9121,275.3491,116.9121,265.3491,120.9121,269.3491,116.9121" style="stroke:#181818;stroke-width:1.0;"/><line style="stroke:#181818;stroke-width:1.0;" x1="33.6758" x2="271.3491" y1="116.9121" y2="116.9121"/><text fill="#000000" font-family="sans-serif" font-size="13" lengthAdjust="spacing" textLength="219.6733" x="40.6758" y="111.6494">1. bookTrip(request: BookingRequest)</text><polygon fill="#181818" points="509.0225,144.2031,519.0225,148.2031,509.0225,152.2031,513.0225,148.2031" style="stroke:#181818;stroke-width:1.0;"/><line style="stroke:#181818;stroke-width:1.0;" x1="277.3491" x2="515.0225" y1="148.2031" y2="148.2031"/><text fill="#000000" font-family="sans-serif" font-size="13" lengthAdjust="spacing" textLength="219.6733" x="284.3491" y="142.9404">2. bookTrip(request: BookingRequest)</text><polygon fill="#181818" points="791.0039,175.4941,801.0039,179.4941,791.0039,183.4941,795.0039,179.4941" style="stroke:#181818;stroke-width:1.0;"/><line style="stroke:#181818;stroke-width:1.0;" x1="521.0225" x2="797.0039" y1="179.4941" y2="179.4941"/><text fill="#000000" font-family="sans-serif" font-size="13" lengthAdjust="spacing" textLength="257.9814" x="528.0225" y="174.2314">3. processBooking(BookingRequest request)</text><polygon fill="#181818" points="1036.8354,206.7852,1046.8354,210.7852,1036.8354,214.7852,1040.8354,210.7852" style="stroke:#181818;stroke-width:1.0;"/><line style="stroke:#181818;stroke-width:1.0;" x1="803.0039" x2="1042.8354" y1="210.7852" y2="210.7852"/><text fill="#000000" font-family="sans-serif" font-size="13" lengthAdjust="spacing" textLength="221.8315" x="810.0039" y="205.5225">4. setState(new HoteltBookingState());</text><polygon fill="#181818" points="2051.8496,238.0762,2061.8496,242.0762,2051.8496,246.0762,2055.8496,242.0762" style="stroke:#181818;stroke-width:1.0;"/><line style="stroke:#181818;stroke-width:1.0;" x1="1048.8354" x2="2057.8496" y1="242.0762" y2="242.0762"/><text fill="#000000" font-family="sans-serif" font-size="13" lengthAdjust="spacing" textLength="500.0747" x="1055.8354" y="236.8135">5. handleRequest(BookingRequest request, BookingAdapterWrapper adapterWrapper)</text><polygon fill="#181818" points="1059.8354,269.3672,1049.8354,273.3672,1059.8354,277.3672,1055.8354,273.3672" style="stroke:#181818;stroke-width:1.0;"/><line style="stroke:#181818;stroke-width:1.0;stroke-dasharray:2.0,2.0;" x1="1053.8354" x2="2062.8496" y1="273.3672" y2="273.3672"/><text fill="#000000" font-family="sans-serif" font-size="13" lengthAdjust="spacing" textLength="148.1606" x="1065.8354" y="268.1045">6. hotelBookingResponse</text><polygon fill="#181818" points="532.0225,300.6582,522.0225,304.6582,532.0225,308.6582,528.0225,304.6582" style="stroke:#181818;stroke-width:1.0;"/><line style="stroke:#181818;stroke-width:1.0;stroke-dasharray:2.0,2.0;" x1="526.0225" x2="1047.8354" y1="304.6582" y2="304.6582"/><text fill="#000000" font-family="sans-serif" font-size="13" lengthAdjust="spacing" textLength="148.1606" x="538.0225" y="299.3955">7. hotelBookingResponse</text><polygon fill="#181818" points="1280.4961,331.9492,1290.4961,335.9492,1280.4961,339.9492,1284.4961,335.9492" style="stroke:#181818;stroke-width:1.0;"/><line style="stroke:#181818;stroke-width:1.0;" x1="1048.8354" x2="1286.4961" y1="335.9492" y2="335.9492"/><text fill="#000000" font-family="sans-serif" font-size="13" lengthAdjust="spacing" textLength="219.6606" x="1055.8354" y="330.6865">8. setState(new FlightBookingState());</text><polygon fill="#181818" points="2051.8496,363.2402,2061.8496,367.2402,2051.8496,371.2402,2055.8496,367.2402" style="stroke:#181818;stroke-width:1.0;"/><line style="stroke:#181818;stroke-width:1.0;" x1="1292.4961" x2="2057.8496" y1="367.2402" y2="367.2402"/><text fill="#000000" font-family="sans-serif" font-size="13" lengthAdjust="spacing" textLength="500.0747" x="1299.4961" y="361.9775">9. handleRequest(BookingRequest request, BookingAdapterWrapper adapterWrapper)</text><polygon fill="#181818" points="1303.4961,394.5313,1293.4961,398.5313,1303.4961,402.5313,1299.4961,398.5313" style="stroke:#181818;stroke-width:1.0;"/><line style="stroke:#181818;stroke-width:1.0;stroke-dasharray:2.0,2.0;" x1="1297.4961" x2="2062.8496" y1="398.5313" y2="398.5313"/><text fill="#000000" font-family="sans-serif" font-size="13" lengthAdjust="spacing" textLength="154.6606" x="1309.4961" y="393.2686">10. flightBookingResponse</text><polygon fill="#181818" points="532.0225,425.8223,522.0225,429.8223,532.0225,433.8223,528.0225,429.8223" style="stroke:#181818;stroke-width:1.0;"/><line style="stroke:#181818;stroke-width:1.0;stroke-dasharray:2.0,2.0;" x1="526.0225" x2="1291.4961" y1="429.8223" y2="429.8223"/><text fill="#000000" font-family="sans-serif" font-size="13" lengthAdjust="spacing" textLength="154.6606" x="538.0225" y="424.5596">11. flightBookingResponse</text><polygon fill="#181818" points="1520.5449,457.1133,1530.5449,461.1133,1520.5449,465.1133,1524.5449,461.1133" style="stroke:#181818;stroke-width:1.0;"/><line style="stroke:#181818;stroke-width:1.0;" x1="1292.4961" x2="1526.5449" y1="461.1133" y2="461.1133"/><text fill="#000000" font-family="sans-serif" font-size="13" lengthAdjust="spacing" textLength="216.0488" x="1299.4961" y="455.8506">12. setState(new CarBookingState());</text><polygon fill="#181818" points="2051.8496,488.4043,2061.8496,492.4043,2051.8496,496.4043,2055.8496,492.4043" style="stroke:#181818;stroke-width:1.0;"/><line style="stroke:#181818;stroke-width:1.0;" x1="1532.5449" x2="2057.8496" y1="492.4043" y2="492.4043"/><text fill="#000000" font-family="sans-serif" font-size="13" lengthAdjust="spacing" textLength="507.3047" x="1539.5449" y="487.1416">13. handleRequest(BookingRequest request, BookingAdapterWrapper adapterWrapper)</text><polygon fill="#181818" points="1543.5449,519.6953,1533.5449,523.6953,1543.5449,527.6953,1539.5449,523.6953" style="stroke:#181818;stroke-width:1.0;"/><line style="stroke:#181818;stroke-width:1.0;stroke-dasharray:2.0,2.0;" x1="1537.5449" x2="2062.8496" y1="523.6953" y2="523.6953"/><text fill="#000000" font-family="sans-serif" font-size="13" lengthAdjust="spacing" textLength="145.2598" x="1549.5449" y="518.4326">14. carBookingResponse</text><polygon fill="#181818" points="532.0225,550.9863,522.0225,554.9863,532.0225,558.9863,528.0225,554.9863" style="stroke:#181818;stroke-width:1.0;"/><line style="stroke:#181818;stroke-width:1.0;stroke-dasharray:2.0,2.0;" x1="526.0225" x2="1531.5449" y1="554.9863" y2="554.9863"/><text fill="#000000" font-family="sans-serif" font-size="13" lengthAdjust="spacing" textLength="145.2598" x="538.0225" y="549.7236">15. carBookingResponse</text><polygon fill="#181818" points="814.0039,582.2773,804.0039,586.2773,814.0039,590.2773,810.0039,586.2773" style="stroke:#181818;stroke-width:1.0;"/><line style="stroke:#181818;stroke-width:1.0;" x1="808.0039" x2="1531.5449" y1="586.2773" y2="586.2773"/><text fill="#000000" font-family="sans-serif" font-size="13" lengthAdjust="spacing" textLength="178.4707" x="820.0039" y="581.0146">16. setState(new InitialState());</text><polygon fill="#181818" points="288.3491,613.5684,278.3491,617.5684,288.3491,621.5684,284.3491,617.5684" style="stroke:#181818;stroke-width:1.0;"/><line style="stroke:#181818;stroke-width:1.0;stroke-dasharray:2.0,2.0;" x1="282.3491" x2="520.0225" y1="617.5684" y2="617.5684"/><text fill="#000000" font-family="sans-serif" font-size="13" lengthAdjust="spacing" textLength="164.7725" x="294.3491" y="612.3057">17. return BookingResponse</text><polygon fill="#181818" points="44.6758,644.8594,34.6758,648.8594,44.6758,652.8594,40.6758,648.8594" style="stroke:#181818;stroke-width:1.0;"/><line style="stroke:#181818;stroke-width:1.0;stroke-dasharray:2.0,2.0;" x1="38.6758" x2="276.3491" y1="648.8594" y2="648.8594"/><text fill="#000000" font-family="sans-serif" font-size="13" lengthAdjust="spacing" textLength="164.7725" x="50.6758" y="643.5967">18. return BookingResponse</text><!--SRC=[jPHDJy9048Rl_HMJdjf46Wk2Y8a9aXYzWeaNBsjPOMEpMxUB9lvwjn-KpkxKUE76lcMUpBppmJAZD6WkViIEQs0bXEls4GO5qqPaec3IsB-KN7yn8vHSAMcqodFx_-K6GlBBubN2clfm-eNvRqfz2BdRs0YHyHgCfOfuZnGC458OmVADOQO9xmjLy5FlZKFtol3yoExYFRM2FBeY9htdOhSt7igNAzQ3fs9OnhH7ShGAiy8IQUjoomhJzWjBFLjR9Go2RXv6TtJZ5v0cDVjPYoBI_FF0IxCuWjRDEmxeeR5GfxKm_WyjS6R4Sb2FOP90eLN6ox8DZJ02T8T2qs91VhFXAe6Ic_eHIVxTj1wrAuhZsy0VdbDzHuzXci2UoMtEsqm64hjmMl6YML5KQucUSU1qTKGNC4kGQjUnKBBaLCP4Iwu7ekc2YGc7kMEWF- -rWSJE40xUdDr1geJqCi5wPmELDU5YcWu11kfs5npIiMEZi- -rX-wf80nC9sTtqC_Txj19x4htigMCcvAXLANu2AGpnw_-tQ_DSi_87qVEBe7cvg0bk8aCdBQQrHnF6puV2ly5]--></g></svg>