<svg xmlns="http://www.w3.org/2000/svg" xmlns:xlink="http://www.w3.org/1999/xlink" contentStyleType="text/css" height="687px" preserveAspectRatio="none" style="width:1871px;height:687px;background:#FFFFFF;" version="1.1" viewBox="0 0 1871 687" width="1871px" zoomAndPan="magnify"><defs/><g><line style="stroke:#181818;stroke-width:0.5;stroke-dasharray:5.0,5.0;" x1="33" x2="33" y1="83.6211" y2="604.2773"/><line style="stroke:#181818;stroke-width:0.5;stroke-dasharray:5.0,5.0;" x1="276.6528" x2="276.6528" y1="83.6211" y2="604.2773"/><line style="stroke:#181818;stroke-width:0.5;stroke-dasharray:5.0,5.0;" x1="520.3848" x2="520.3848" y1="83.6211" y2="604.2773"/><line style="stroke:#181818;stroke-width:0.5;stroke-dasharray:5.0,5.0;" x1="802.3179" x2="802.3179" y1="83.6211" y2="604.2773"/><line style="stroke:#181818;stroke-width:0.5;stroke-dasharray:5.0,5.0;" x1="960.4268" x2="960.4268" y1="83.6211" y2="604.2773"/><line style="stroke:#181818;stroke-width:0.5;stroke-dasharray:5.0,5.0;" x1="1120.4971" x2="1120.4971" y1="83.6211" y2="604.2773"/><line style="stroke:#181818;stroke-width:0.5;stroke-dasharray:5.0,5.0;" x1="1276.5693" x2="1276.5693" y1="83.6211" y2="604.2773"/><line style="stroke:#181818;stroke-width:0.5;stroke-dasharray:5.0,5.0;" x1="1807.981" x2="1807.981" y1="83.6211" y2="604.2773"/><text fill="#000000" font-family="sans-serif" font-size="14" lengthAdjust="spacing" textLength="51.3516" x="5" y="80.1074">Reiziger</text><ellipse cx="33.6758" cy="13.5" fill="#E2E2F0" rx="8" ry="8" style="stroke:#181818;stroke-width:0.5;"/><path d="M33.6758,21.5 L33.6758,48.5 M20.6758,29.5 L46.6758,29.5 M33.6758,48.5 L20.6758,63.5 M33.6758,48.5 L46.6758,63.5 " fill="none" style="stroke:#181818;stroke-width:0.5;"/><text fill="#000000" font-family="sans-serif" font-size="14" lengthAdjust="spacing" textLength="51.3516" x="5" y="618.3848">Reiziger</text><ellipse cx="33.6758" cy="630.3984" fill="#E2E2F0" rx="8" ry="8" style="stroke:#181818;stroke-width:0.5;"/><path d="M33.6758,638.3984 L33.6758,665.3984 M20.6758,646.3984 L46.6758,646.3984 M33.6758,665.3984 L20.6758,680.3984 M33.6758,665.3984 L46.6758,680.3984 " fill="none" style="stroke:#181818;stroke-width:0.5;"/><rect fill="#E2E2F0" height="32.6211" rx="2.5" ry="2.5" style="stroke:#181818;stroke-width:0.5;" width="149.3926" x="202.6528" y="50"/><text fill="#000000" font-family="sans-serif" font-size="14" lengthAdjust="spacing" textLength="135.3926" x="209.6528" y="72.1074">ReservationController</text><rect fill="#E2E2F0" height="32.6211" rx="2.5" ry="2.5" style="stroke:#181818;stroke-width:0.5;" width="149.3926" x="202.6528" y="603.2773"/><text fill="#000000" font-family="sans-serif" font-size="14" lengthAdjust="spacing" textLength="135.3926" x="209.6528" y="625.3848">ReservationController</text><rect fill="#E2E2F0" height="32.6211" rx="2.5" ry="2.5" style="stroke:#181818;stroke-width:0.5;" width="111.2754" x="465.3848" y="50"/><text fill="#000000" font-family="sans-serif" font-size="14" lengthAdjust="spacing" textLength="97.2754" x="472.3848" y="72.1074">BookingService</text><rect fill="#E2E2F0" height="32.6211" rx="2.5" ry="2.5" style="stroke:#181818;stroke-width:0.5;" width="111.2754" x="465.3848" y="603.2773"/><text fill="#000000" font-family="sans-serif" font-size="14" lengthAdjust="spacing" textLength="97.2754" x="472.3848" y="625.3848">BookingService</text><rect fill="#E2E2F0" height="32.6211" rx="2.5" ry="2.5" style="stroke:#181818;stroke-width:0.5;" width="79.3721" x="763.3179" y="50"/><text fill="#000000" font-family="sans-serif" font-size="14" lengthAdjust="spacing" textLength="65.3721" x="770.3179" y="72.1074">InitialState</text><rect fill="#E2E2F0" height="32.6211" rx="2.5" ry="2.5" style="stroke:#181818;stroke-width:0.5;" width="79.3721" x="763.3179" y="603.2773"/><text fill="#000000" font-family="sans-serif" font-size="14" lengthAdjust="spacing" textLength="65.3721" x="770.3179" y="625.3848">InitialState</text><rect fill="#E2E2F0" height="32.6211" rx="2.5" ry="2.5" style="stroke:#181818;stroke-width:0.5;" width="129.9648" x="896.4268" y="50"/><text fill="#000000" font-family="sans-serif" font-size="14" lengthAdjust="spacing" textLength="115.9648" x="903.4268" y="72.1074">HotelBookingState</text><rect fill="#E2E2F0" height="32.6211" rx="2.5" ry="2.5" style="stroke:#181818;stroke-width:0.5;" width="129.9648" x="896.4268" y="603.2773"/><text fill="#000000" font-family="sans-serif" font-size="14" lengthAdjust="spacing" textLength="115.9648" x="903.4268" y="625.3848">HotelBookingState</text><rect fill="#E2E2F0" height="32.6211" rx="2.5" ry="2.5" style="stroke:#181818;stroke-width:0.5;" width="131.5166" x="1055.4971" y="50"/><text fill="#000000" font-family="sans-serif" font-size="14" lengthAdjust="spacing" textLength="117.5166" x="1062.4971" y="72.1074">FlightBookingState</text><rect fill="#E2E2F0" height="32.6211" rx="2.5" ry="2.5" style="stroke:#181818;stroke-width:0.5;" width="131.5166" x="1055.4971" y="603.2773"/><text fill="#000000" font-family="sans-serif" font-size="14" lengthAdjust="spacing" textLength="117.5166" x="1062.4971" y="625.3848">FlightBookingState</text><rect fill="#E2E2F0" height="32.6211" rx="2.5" ry="2.5" style="stroke:#181818;stroke-width:0.5;" width="119.8408" x="1217.5693" y="50"/><text fill="#000000" font-family="sans-serif" font-size="14" lengthAdjust="spacing" textLength="105.8408" x="1224.5693" y="72.1074">CarBookingState</text><rect fill="#E2E2F0" height="32.6211" rx="2.5" ry="2.5" style="stroke:#181818;stroke-width:0.5;" width="119.8408" x="1217.5693" y="603.2773"/><text fill="#000000" font-family="sans-serif" font-size="14" lengthAdjust="spacing" textLength="105.8408" x="1224.5693" y="625.3848">CarBookingState</text><rect fill="#E2E2F0" height="32.6211" rx="2.5" ry="2.5" style="stroke:#181818;stroke-width:0.5;" width="113.627" x="1751.981" y="50"/><text fill="#000000" font-family="sans-serif" font-size="14" lengthAdjust="spacing" textLength="99.627" x="1758.981" y="72.1074">BookingAdapter</text><rect fill="#E2E2F0" height="32.6211" rx="2.5" ry="2.5" style="stroke:#181818;stroke-width:0.5;" width="113.627" x="1751.981" y="603.2773"/><text fill="#000000" font-family="sans-serif" font-size="14" lengthAdjust="spacing" textLength="99.627" x="1758.981" y="625.3848">BookingAdapter</text><polygon fill="#181818" points="265.3491,112.9121,275.3491,116.9121,265.3491,120.9121,269.3491,116.9121" style="stroke:#181818;stroke-width:1.0;"/><line style="stroke:#181818;stroke-width:1.0;" x1="33.6758" x2="271.3491" y1="116.9121" y2="116.9121"/><text fill="#000000" font-family="sans-serif" font-size="13" lengthAdjust="spacing" textLength="219.6733" x="40.6758" y="111.6494">1. bookTrip(request: BookingRequest)</text><polygon fill="#181818" points="509.0225,144.2031,519.0225,148.2031,509.0225,152.2031,513.0225,148.2031" style="stroke:#181818;stroke-width:1.0;"/><line style="stroke:#181818;stroke-width:1.0;" x1="277.3491" x2="515.0225" y1="148.2031" y2="148.2031"/><text fill="#000000" font-family="sans-serif" font-size="13" lengthAdjust="spacing" textLength="219.6733" x="284.3491" y="142.9404">2. bookTrip(request: BookingRequest)</text><polygon fill="#181818" points="791.0039,175.4941,801.0039,179.4941,791.0039,183.4941,795.0039,179.4941" style="stroke:#181818;stroke-width:1.0;"/><line style="stroke:#181818;stroke-width:1.0;" x1="521.0225" x2="797.0039" y1="179.4941" y2="179.4941"/><text fill="#000000" font-family="sans-serif" font-size="13" lengthAdjust="spacing" textLength="257.9814" x="528.0225" y="174.2314">3. processBooking(BookingRequest request)</text><polygon fill="#181818" points="949.4092,206.7852,959.4092,210.7852,949.4092,214.7852,953.4092,210.7852" style="stroke:#181818;stroke-width:1.0;"/><line style="stroke:#181818;stroke-width:1.0;" x1="803.0039" x2="955.4092" y1="210.7852" y2="210.7852"/><text fill="#000000" font-family="sans-serif" font-size="13" lengthAdjust="spacing" textLength="134.4053" x="810.0039" y="205.5225">4. HotelBookingState();</text><polygon fill="#181818" points="1796.7944,238.0762,1806.7944,242.0762,1796.7944,246.0762,1800.7944,242.0762" style="stroke:#181818;stroke-width:1.0;"/><line style="stroke:#181818;stroke-width:1.0;" x1="961.4092" x2="1802.7944" y1="242.0762" y2="242.0762"/><text fill="#000000" font-family="sans-serif" font-size="13" lengthAdjust="spacing" textLength="500.0747" x="968.4092" y="236.8135">5. handleRequest(BookingRequest request, BookingAdapterWrapper adapterWrapper)</text><polygon fill="#181818" points="972.4092,269.3672,962.4092,273.3672,972.4092,277.3672,968.4092,273.3672" style="stroke:#181818;stroke-width:1.0;"/><line style="stroke:#181818;stroke-width:1.0;stroke-dasharray:2.0,2.0;" x1="966.4092" x2="1807.7944" y1="273.3672" y2="273.3672"/><text fill="#000000" font-family="sans-serif" font-size="13" lengthAdjust="spacing" textLength="148.1606" x="978.4092" y="268.1045">6. hotelBookingResponse</text><polygon fill="#181818" points="1109.2554,300.6582,1119.2554,304.6582,1109.2554,308.6582,1113.2554,304.6582" style="stroke:#181818;stroke-width:1.0;"/><line style="stroke:#181818;stroke-width:1.0;" x1="961.4092" x2="1115.2554" y1="304.6582" y2="304.6582"/><text fill="#000000" font-family="sans-serif" font-size="13" lengthAdjust="spacing" textLength="135.8462" x="968.4092" y="299.3955">7. FlightBookingState();</text><polygon fill="#181818" points="1796.7944,331.9492,1806.7944,335.9492,1796.7944,339.9492,1800.7944,335.9492" style="stroke:#181818;stroke-width:1.0;"/><line style="stroke:#181818;stroke-width:1.0;" x1="1121.2554" x2="1802.7944" y1="335.9492" y2="335.9492"/><text fill="#000000" font-family="sans-serif" font-size="13" lengthAdjust="spacing" textLength="500.0747" x="1128.2554" y="330.6865">8. handleRequest(BookingRequest request, BookingAdapterWrapper adapterWrapper)</text><polygon fill="#181818" points="1132.2554,363.2402,1122.2554,367.2402,1132.2554,371.2402,1128.2554,367.2402" style="stroke:#181818;stroke-width:1.0;"/><line style="stroke:#181818;stroke-width:1.0;stroke-dasharray:2.0,2.0;" x1="1126.2554" x2="1807.7944" y1="367.2402" y2="367.2402"/><text fill="#000000" font-family="sans-serif" font-size="13" lengthAdjust="spacing" textLength="147.4307" x="1138.2554" y="361.9775">9. flightBookingResponse</text><polygon fill="#181818" points="1265.4897,394.5313,1275.4897,398.5313,1265.4897,402.5313,1269.4897,398.5313" style="stroke:#181818;stroke-width:1.0;"/><line style="stroke:#181818;stroke-width:1.0;" x1="1121.2554" x2="1271.4897" y1="398.5313" y2="398.5313"/><text fill="#000000" font-family="sans-serif" font-size="13" lengthAdjust="spacing" textLength="132.2344" x="1128.2554" y="393.2686">10. CarBookingState();</text><polygon fill="#181818" points="1796.7944,425.8223,1806.7944,429.8223,1796.7944,433.8223,1800.7944,429.8223" style="stroke:#181818;stroke-width:1.0;"/><line style="stroke:#181818;stroke-width:1.0;" x1="1277.4897" x2="1802.7944" y1="429.8223" y2="429.8223"/><text fill="#000000" font-family="sans-serif" font-size="13" lengthAdjust="spacing" textLength="507.3047" x="1284.4897" y="424.5596">11. handleRequest(BookingRequest request, BookingAdapterWrapper adapterWrapper)</text><polygon fill="#181818" points="1288.4897,457.1133,1278.4897,461.1133,1288.4897,465.1133,1284.4897,461.1133" style="stroke:#181818;stroke-width:1.0;"/><line style="stroke:#181818;stroke-width:1.0;stroke-dasharray:2.0,2.0;" x1="1282.4897" x2="1807.7944" y1="461.1133" y2="461.1133"/><text fill="#000000" font-family="sans-serif" font-size="13" lengthAdjust="spacing" textLength="145.2598" x="1294.4897" y="455.8506">12. carBookingResponse</text><polygon fill="#181818" points="814.0039,488.4043,804.0039,492.4043,814.0039,496.4043,810.0039,492.4043" style="stroke:#181818;stroke-width:1.0;"/><line style="stroke:#181818;stroke-width:1.0;" x1="808.0039" x2="1276.4897" y1="492.4043" y2="492.4043"/><text fill="#000000" font-family="sans-serif" font-size="13" lengthAdjust="spacing" textLength="94.6563" x="820.0039" y="487.1416">13. InitialState();</text><polygon fill="#181818" points="532.0225,519.6953,522.0225,523.6953,532.0225,527.6953,528.0225,523.6953" style="stroke:#181818;stroke-width:1.0;"/><line style="stroke:#181818;stroke-width:1.0;stroke-dasharray:2.0,2.0;" x1="526.0225" x2="802.0039" y1="523.6953" y2="523.6953"/><text fill="#000000" font-family="sans-serif" font-size="13" lengthAdjust="spacing" textLength="164.7725" x="538.0225" y="518.4326">14. return BookingResponse</text><polygon fill="#181818" points="288.3491,550.9863,278.3491,554.9863,288.3491,558.9863,284.3491,554.9863" style="stroke:#181818;stroke-width:1.0;"/><line style="stroke:#181818;stroke-width:1.0;stroke-dasharray:2.0,2.0;" x1="282.3491" x2="520.0225" y1="554.9863" y2="554.9863"/><text fill="#000000" font-family="sans-serif" font-size="13" lengthAdjust="spacing" textLength="164.7725" x="294.3491" y="549.7236">15. return BookingResponse</text><polygon fill="#181818" points="44.6758,582.2773,34.6758,586.2773,44.6758,590.2773,40.6758,586.2773" style="stroke:#181818;stroke-width:1.0;"/><line style="stroke:#181818;stroke-width:1.0;stroke-dasharray:2.0,2.0;" x1="38.6758" x2="276.3491" y1="586.2773" y2="586.2773"/><text fill="#000000" font-family="sans-serif" font-size="13" lengthAdjust="spacing" textLength="164.7725" x="50.6758" y="581.0146">16. return BookingResponse</text><!--SRC=[jLJBJiCm4BpxA_ROIjGYG0iO2Gag8RYsI9pTrBGMaMqsMmvyFGvDslWHnAL7p-wEPrOUov8imaBfRxrHo9n4qgLsqf07QuLVahGrSsi8RLL57O_MVcYpMVesNQgWz68qQLajIL9OUBQagcumgJvLUhEbmV9Suc2jBJoifIElatMUO7AVjoAWuB3oKw-etGZLvqxL93gUnVuyPjdPXZHqB-3YFsmid6fu-giISCd1eIrLNRUTev02y43L7so8ajKAkE8fEXhViGJi6MetA63AOIlDkbBjrGDApgB1DvJE-HN9u3XcOHTCyefd_j8UwhVlhAaLoqjEtuk0Qvw16zCfcdDzStBNET6t7DxxyD5tNdMK1F-MptaCDfuZA6UuA4xkE5Nhmr8UmAFPZDmm7eNFHnzfF8Ovo2Ipy350HJiq4DyOn_6Fps8wI3BmHVnoxJyXFpuR6ly1]--></g></svg>