<svg xmlns="http://www.w3.org/2000/svg" xmlns:xlink="http://www.w3.org/1999/xlink" contentStyleType="text/css" height="483px" preserveAspectRatio="none" style="width:742px;height:483px;background:#FFFFFF;" version="1.1" viewBox="0 0 742 483" width="742px" zoomAndPan="magnify"><defs/><g><!--class RestaurantController--><g id="elem_RestaurantController"><rect codeLine="3" fill="#F1F1F1" height="85.2422" id="RestaurantController" rx="2.5" ry="2.5" style="stroke:#181818;stroke-width:0.5;" width="258.6611" x="121" y="7"/><ellipse cx="181.4946" cy="23" fill="#ADD1B2" rx="11" ry="11" style="stroke:#181818;stroke-width:1.0;"/><path d="M184.2603,18.875 Q184.4165,18.6563 184.604,18.5469 Q184.7915,18.4375 185.0103,18.4375 Q185.3853,18.4375 185.6196,18.7031 Q185.854,18.9531 185.854,19.5625 L185.854,21.0156 Q185.854,21.625 185.6196,21.8906 Q185.3853,22.1563 185.0103,22.1563 Q184.6665,22.1563 184.4634,21.9531 Q184.2603,21.7656 184.1509,21.25 Q184.104,20.8906 183.9165,20.7031 Q183.5884,20.3281 182.979,20.1094 Q182.3696,19.8906 181.7446,19.8906 Q180.979,19.8906 180.3384,20.2188 Q179.7134,20.5469 179.2134,21.2969 Q178.729,22.0469 178.729,23.0781 L178.729,24.1719 Q178.729,25.4063 179.6196,26.2344 Q180.5103,27.0469 182.104,27.0469 Q183.0415,27.0469 183.6978,26.7969 Q184.0884,26.6406 184.5103,26.2031 Q184.7759,25.9375 184.9165,25.8594 Q185.0728,25.7813 185.2759,25.7813 Q185.604,25.7813 185.854,26.0469 Q186.1196,26.2969 186.1196,26.6406 Q186.1196,26.9844 185.7759,27.3906 Q185.2759,27.9688 184.479,28.2969 Q183.4009,28.75 182.104,28.75 Q180.5884,28.75 179.3853,28.125 Q178.4009,27.625 177.7134,26.5625 Q177.0259,25.4844 177.0259,24.2031 L177.0259,23.0469 Q177.0259,21.7188 177.6353,20.5781 Q178.2603,19.4219 179.354,18.8125 Q180.4478,18.1875 181.6821,18.1875 Q182.4165,18.1875 183.0571,18.3594 Q183.7134,18.5156 184.2603,18.875 Z " fill="#000000"/><text fill="#000000" font-family="sans-serif" font-size="14" lengthAdjust="spacing" textLength="129.1719" x="201.9946" y="28.7969">RestaurantController</text><line style="stroke:#181818;stroke-width:0.5;" x1="122" x2="378.6611" y1="39" y2="39"/><rect fill="none" height="6" style="stroke:#C82930;stroke-width:1.0;" width="6" x="129" y="50.8105"/><text fill="#000000" font-family="sans-serif" font-size="14" lengthAdjust="spacing" textLength="232.6611" x="141" y="58.1074">restaurantService: RestaurantService</text><line style="stroke:#181818;stroke-width:0.5;" x1="122" x2="378.6611" y1="65.6211" y2="65.6211"/><ellipse cx="132" cy="80.4316" fill="#84BE84" rx="3" ry="3" style="stroke:#038048;stroke-width:1.0;"/><text fill="#000000" font-family="sans-serif" font-size="14" lengthAdjust="spacing" textLength="218.668" x="141" y="84.7285">getRestaurants(): List&lt;Restaurant&gt;</text></g><!--class RestaurantService--><g id="elem_RestaurantService"><rect codeLine="9" fill="#F1F1F1" height="85.2422" id="RestaurantService" rx="2.5" ry="2.5" style="stroke:#181818;stroke-width:0.5;" width="244.668" x="7" y="189.5"/><ellipse cx="67.5015" cy="205.5" fill="#ADD1B2" rx="11" ry="11" style="stroke:#181818;stroke-width:1.0;"/><path d="M70.2671,201.375 Q70.4233,201.1563 70.6108,201.0469 Q70.7983,200.9375 71.0171,200.9375 Q71.3921,200.9375 71.6265,201.2031 Q71.8608,201.4531 71.8608,202.0625 L71.8608,203.5156 Q71.8608,204.125 71.6265,204.3906 Q71.3921,204.6563 71.0171,204.6563 Q70.6733,204.6563 70.4702,204.4531 Q70.2671,204.2656 70.1577,203.75 Q70.1108,203.3906 69.9233,203.2031 Q69.5952,202.8281 68.9858,202.6094 Q68.3765,202.3906 67.7515,202.3906 Q66.9858,202.3906 66.3452,202.7188 Q65.7202,203.0469 65.2202,203.7969 Q64.7358,204.5469 64.7358,205.5781 L64.7358,206.6719 Q64.7358,207.9063 65.6265,208.7344 Q66.5171,209.5469 68.1108,209.5469 Q69.0483,209.5469 69.7046,209.2969 Q70.0952,209.1406 70.5171,208.7031 Q70.7827,208.4375 70.9233,208.3594 Q71.0796,208.2813 71.2827,208.2813 Q71.6108,208.2813 71.8608,208.5469 Q72.1265,208.7969 72.1265,209.1406 Q72.1265,209.4844 71.7827,209.8906 Q71.2827,210.4688 70.4858,210.7969 Q69.4077,211.25 68.1108,211.25 Q66.5952,211.25 65.3921,210.625 Q64.4077,210.125 63.7202,209.0625 Q63.0327,207.9844 63.0327,206.7031 L63.0327,205.5469 Q63.0327,204.2188 63.6421,203.0781 Q64.2671,201.9219 65.3608,201.3125 Q66.4546,200.6875 67.689,200.6875 Q68.4233,200.6875 69.064,200.8594 Q69.7202,201.0156 70.2671,201.375 Z " fill="#000000"/><text fill="#000000" font-family="sans-serif" font-size="14" lengthAdjust="spacing" textLength="115.165" x="88.0015" y="211.2969">RestaurantService</text><line style="stroke:#181818;stroke-width:0.5;" x1="8" x2="250.668" y1="221.5" y2="221.5"/><rect fill="none" height="6" style="stroke:#C82930;stroke-width:1.0;" width="6" x="15" y="233.3105"/><text fill="#000000" font-family="sans-serif" font-size="14" lengthAdjust="spacing" textLength="190.6475" x="27" y="240.6074">restaurantPort: RestaurantPort</text><line style="stroke:#181818;stroke-width:0.5;" x1="8" x2="250.668" y1="248.1211" y2="248.1211"/><ellipse cx="18" cy="262.9316" fill="#84BE84" rx="3" ry="3" style="stroke:#038048;stroke-width:1.0;"/><text fill="#000000" font-family="sans-serif" font-size="14" lengthAdjust="spacing" textLength="218.668" x="27" y="267.2285">getRestaurants(): List&lt;Restaurant&gt;</text></g><!--class APICaller--><g id="elem_APICaller"><rect codeLine="15" fill="#F1F1F1" height="122.4844" id="APICaller" rx="2.5" ry="2.5" style="stroke:#181818;stroke-width:0.5;" width="175.3926" x="526" y="354"/><ellipse cx="579.8809" cy="370" fill="#A9DCDF" rx="11" ry="11" style="stroke:#181818;stroke-width:1.0;"/><path d="M582.0684,371.7656 L577.9277,371.7656 L577.5059,372.7969 L577.9277,372.7969 Q578.5371,372.7969 578.8027,373.0313 Q579.0684,373.2656 579.0684,373.6563 Q579.0684,374.0313 578.8027,374.2656 Q578.5371,374.5 577.9277,374.5 L575.6309,374.5 Q575.0215,374.5 574.7715,374.2656 Q574.5059,374.0313 574.5059,373.6406 Q574.5059,373.2656 574.7871,373.0313 Q575.0527,372.7813 575.6777,372.7969 L578.3496,366.1406 L577.2402,366.1406 Q576.6309,366.1406 576.3652,365.9063 Q576.0996,365.6719 576.0996,365.2813 Q576.0996,364.9063 576.3652,364.6719 Q576.6309,364.4375 577.2402,364.4375 L580.9121,364.4375 L584.3027,372.7969 Q584.8965,372.7969 585.084,372.9375 Q585.4746,373.2031 585.4746,373.6563 Q585.4746,374.0313 585.209,374.2656 Q584.959,374.5 584.3496,374.5 L582.0527,374.5 Q581.4434,374.5 581.1777,374.2656 Q580.9121,374.0313 580.9121,373.6406 Q580.9121,373.2656 581.1777,373.0313 Q581.4434,372.7969 582.0527,372.7969 L582.4746,372.7969 L582.0684,371.7656 Z M581.3496,370.0625 L579.9902,366.6875 L578.6152,370.0625 L581.3496,370.0625 Z " fill="#000000"/><text fill="#000000" font-family="sans-serif" font-size="14" font-style="italic" lengthAdjust="spacing" textLength="59.1309" x="600.3809" y="375.7969">APICaller</text><line style="stroke:#181818;stroke-width:0.5;" x1="527" x2="700.3926" y1="386" y2="386"/><line style="stroke:#181818;stroke-width:0.5;" x1="527" x2="700.3926" y1="394" y2="394"/><ellipse cx="537" cy="408.8105" fill="#84BE84" rx="3" ry="3" style="stroke:#038048;stroke-width:1.0;"/><text fill="#000000" font-family="sans-serif" font-size="14" lengthAdjust="spacing" textLength="149.3926" x="546" y="413.1074">executeAPICall(): String</text><polygon fill="#FFFF44" points="537,422.4316,541,426.4316,537,430.4316,533,426.4316" style="stroke:#B38D22;stroke-width:1.0;"/><text fill="#000000" font-family="sans-serif" font-size="14" lengthAdjust="spacing" textLength="72.3652" x="546" y="431.7285">login(): void</text><polygon fill="#FFFF44" points="537,441.0527,541,445.0527,537,449.0527,533,445.0527" style="stroke:#B38D22;stroke-width:1.0;"/><text fill="#000000" font-family="sans-serif" font-size="14" lengthAdjust="spacing" textLength="118.2686" x="546" y="450.3496">checkToken(): void</text><polygon fill="#FFFF44" points="537,459.6738,541,463.6738,537,467.6738,533,463.6738" style="stroke:#B38D22;stroke-width:1.0;"/><text fill="#000000" font-family="sans-serif" font-size="14" lengthAdjust="spacing" textLength="97.248" x="546" y="468.9707">callAPI(): String</text></g><!--class RestaurantPort--><g id="elem_RestaurantPort"><rect codeLine="22" fill="#F1F1F1" height="66.6211" id="RestaurantPort" rx="2.5" ry="2.5" style="stroke:#181818;stroke-width:0.5;" width="244.668" x="186" y="381.5"/><ellipse cx="257.0049" cy="397.5" fill="#B4A7E5" rx="11" ry="11" style="stroke:#181818;stroke-width:1.0;"/><path d="M257.958,394.1406 L257.958,400.7969 L259.6768,400.7969 Q260.2861,400.7969 260.5518,401.0313 Q260.8174,401.2656 260.8174,401.6563 Q260.8174,402.0313 260.5518,402.2656 Q260.2861,402.5 259.6768,402.5 L254.5361,402.5 Q253.9268,402.5 253.6611,402.2656 Q253.3955,402.0313 253.3955,401.6406 Q253.3955,401.2656 253.6611,401.0313 Q253.9268,400.7969 254.5361,400.7969 L256.2549,400.7969 L256.2549,394.1406 L254.5361,394.1406 Q253.9268,394.1406 253.6611,393.9063 Q253.3955,393.6719 253.3955,393.2813 Q253.3955,392.9063 253.6611,392.6719 Q253.9268,392.4375 254.5361,392.4375 L259.6768,392.4375 Q260.2861,392.4375 260.5518,392.6719 Q260.8174,392.9063 260.8174,393.2813 Q260.8174,393.6719 260.5518,393.9063 Q260.2861,394.1406 259.6768,394.1406 L257.958,394.1406 Z " fill="#000000"/><text fill="#000000" font-family="sans-serif" font-size="14" font-style="italic" lengthAdjust="spacing" textLength="94.1582" x="277.5049" y="403.2969">RestaurantPort</text><line style="stroke:#181818;stroke-width:0.5;" x1="187" x2="429.668" y1="413.5" y2="413.5"/><line style="stroke:#181818;stroke-width:0.5;" x1="187" x2="429.668" y1="421.5" y2="421.5"/><ellipse cx="197" cy="436.3105" fill="#84BE84" rx="3" ry="3" style="stroke:#038048;stroke-width:1.0;"/><text fill="#000000" font-family="sans-serif" font-size="14" lengthAdjust="spacing" textLength="218.668" x="206" y="440.6074">getRestaurants(): List&lt;Restaurant&gt;</text></g><!--class UberEatsScraperAdapter--><g id="elem_UberEatsScraperAdapter"><rect codeLine="26" fill="#F1F1F1" height="122.4844" id="UberEatsScraperAdapter" rx="2.5" ry="2.5" style="stroke:#181818;stroke-width:0.5;" width="244.668" x="491" y="171"/><ellipse cx="531.3147" cy="187" fill="#ADD1B2" rx="11" ry="11" style="stroke:#181818;stroke-width:1.0;"/><path d="M534.0803,182.875 Q534.2366,182.6563 534.4241,182.5469 Q534.6116,182.4375 534.8303,182.4375 Q535.2053,182.4375 535.4397,182.7031 Q535.6741,182.9531 535.6741,183.5625 L535.6741,185.0156 Q535.6741,185.625 535.4397,185.8906 Q535.2053,186.1563 534.8303,186.1563 Q534.4866,186.1563 534.2834,185.9531 Q534.0803,185.7656 533.9709,185.25 Q533.9241,184.8906 533.7366,184.7031 Q533.4084,184.3281 532.7991,184.1094 Q532.1897,183.8906 531.5647,183.8906 Q530.7991,183.8906 530.1584,184.2188 Q529.5334,184.5469 529.0334,185.2969 Q528.5491,186.0469 528.5491,187.0781 L528.5491,188.1719 Q528.5491,189.4063 529.4397,190.2344 Q530.3303,191.0469 531.9241,191.0469 Q532.8616,191.0469 533.5178,190.7969 Q533.9084,190.6406 534.3303,190.2031 Q534.5959,189.9375 534.7366,189.8594 Q534.8928,189.7813 535.0959,189.7813 Q535.4241,189.7813 535.6741,190.0469 Q535.9397,190.2969 535.9397,190.6406 Q535.9397,190.9844 535.5959,191.3906 Q535.0959,191.9688 534.2991,192.2969 Q533.2209,192.75 531.9241,192.75 Q530.4084,192.75 529.2053,192.125 Q528.2209,191.625 527.5334,190.5625 Q526.8459,189.4844 526.8459,188.2031 L526.8459,187.0469 Q526.8459,185.7188 527.4553,184.5781 Q528.0803,183.4219 529.1741,182.8125 Q530.2678,182.1875 531.5022,182.1875 Q532.2366,182.1875 532.8772,182.3594 Q533.5334,182.5156 534.0803,182.875 Z " fill="#000000"/><text fill="#000000" font-family="sans-serif" font-size="14" lengthAdjust="spacing" textLength="156.4131" x="550.9402" y="192.7969">UberEatsScraperAdapter</text><line style="stroke:#181818;stroke-width:0.5;" x1="492" x2="734.668" y1="203" y2="203"/><line style="stroke:#181818;stroke-width:0.5;" x1="492" x2="734.668" y1="211" y2="211"/><ellipse cx="502" cy="225.8105" fill="#84BE84" rx="3" ry="3" style="stroke:#038048;stroke-width:1.0;"/><text fill="#000000" font-family="sans-serif" font-size="14" lengthAdjust="spacing" textLength="218.668" x="511" y="230.1074">getRestaurants(): List&lt;Restaurant&gt;</text><polygon fill="#FFFF44" points="502,239.4316,506,243.4316,502,247.4316,498,243.4316" style="stroke:#B38D22;stroke-width:1.0;"/><text fill="#000000" font-family="sans-serif" font-size="14" lengthAdjust="spacing" textLength="72.3652" x="511" y="248.7285">login(): void</text><polygon fill="#FFFF44" points="502,258.0527,506,262.0527,502,266.0527,498,262.0527" style="stroke:#B38D22;stroke-width:1.0;"/><text fill="#000000" font-family="sans-serif" font-size="14" lengthAdjust="spacing" textLength="118.2686" x="511" y="267.3496">checkToken(): void</text><polygon fill="#FFFF44" points="502,276.6738,506,280.6738,502,284.6738,498,280.6738" style="stroke:#B38D22;stroke-width:1.0;"/><text fill="#000000" font-family="sans-serif" font-size="14" lengthAdjust="spacing" textLength="97.248" x="511" y="285.9707">callAPI(): String</text></g><!--class Restaurant--><g id="elem_Restaurant"><rect codeLine="33" fill="#F1F1F1" height="122.4844" id="Restaurant" rx="2.5" ry="2.5" style="stroke:#181818;stroke-width:0.5;" width="168.4268" x="287.5" y="171"/><ellipse cx="333.2222" cy="187" fill="#ADD1B2" rx="11" ry="11" style="stroke:#181818;stroke-width:1.0;"/><path d="M335.9878,182.875 Q336.144,182.6563 336.3315,182.5469 Q336.519,182.4375 336.7378,182.4375 Q337.1128,182.4375 337.3472,182.7031 Q337.5815,182.9531 337.5815,183.5625 L337.5815,185.0156 Q337.5815,185.625 337.3472,185.8906 Q337.1128,186.1563 336.7378,186.1563 Q336.394,186.1563 336.1909,185.9531 Q335.9878,185.7656 335.8784,185.25 Q335.8315,184.8906 335.644,184.7031 Q335.3159,184.3281 334.7065,184.1094 Q334.0972,183.8906 333.4722,183.8906 Q332.7065,183.8906 332.0659,184.2188 Q331.4409,184.5469 330.9409,185.2969 Q330.4565,186.0469 330.4565,187.0781 L330.4565,188.1719 Q330.4565,189.4063 331.3472,190.2344 Q332.2378,191.0469 333.8315,191.0469 Q334.769,191.0469 335.4253,190.7969 Q335.8159,190.6406 336.2378,190.2031 Q336.5034,189.9375 336.644,189.8594 Q336.8003,189.7813 337.0034,189.7813 Q337.3315,189.7813 337.5815,190.0469 Q337.8472,190.2969 337.8472,190.6406 Q337.8472,190.9844 337.5034,191.3906 Q337.0034,191.9688 336.2065,192.2969 Q335.1284,192.75 333.8315,192.75 Q332.3159,192.75 331.1128,192.125 Q330.1284,191.625 329.4409,190.5625 Q328.7534,189.4844 328.7534,188.2031 L328.7534,187.0469 Q328.7534,185.7188 329.3628,184.5781 Q329.9878,183.4219 331.0815,182.8125 Q332.1753,182.1875 333.4097,182.1875 Q334.144,182.1875 334.7847,182.3594 Q335.4409,182.5156 335.9878,182.875 Z " fill="#000000"/><text fill="#000000" font-family="sans-serif" font-size="14" lengthAdjust="spacing" textLength="68.4824" x="353.7222" y="192.7969">Restaurant</text><line style="stroke:#181818;stroke-width:0.5;" x1="288.5" x2="454.9268" y1="203" y2="203"/><rect fill="none" height="6" style="stroke:#C82930;stroke-width:1.0;" width="6" x="295.5" y="214.8105"/><text fill="#000000" font-family="sans-serif" font-size="14" lengthAdjust="spacing" textLength="79.3721" x="307.5" y="222.1074">name: String</text><rect fill="none" height="6" style="stroke:#C82930;stroke-width:1.0;" width="6" x="295.5" y="233.4316"/><text fill="#000000" font-family="sans-serif" font-size="14" lengthAdjust="spacing" textLength="108.9648" x="307.5" y="240.7285">location: Location</text><line style="stroke:#181818;stroke-width:0.5;" x1="288.5" x2="454.9268" y1="248.2422" y2="248.2422"/><ellipse cx="298.5" cy="263.0527" fill="#84BE84" rx="3" ry="3" style="stroke:#038048;stroke-width:1.0;"/><text fill="#000000" font-family="sans-serif" font-size="14" lengthAdjust="spacing" textLength="110.4824" x="307.5" y="267.3496">getName(): String</text><ellipse cx="298.5" cy="281.6738" fill="#84BE84" rx="3" ry="3" style="stroke:#038048;stroke-width:1.0;"/><text fill="#000000" font-family="sans-serif" font-size="14" lengthAdjust="spacing" textLength="142.4268" x="307.5" y="285.9707">getLocation(): Location</text></g><!--link RestaurantController to RestaurantService--><g id="link_RestaurantController_RestaurantService"><path codeLine="40" d="M222.44,92.36 C202.89,121.52 180.2716,155.2667 160.7516,184.3767 " fill="none" id="RestaurantController-to-RestaurantService" style="stroke:#181818;stroke-width:1.0;"/><polygon fill="#181818" points="157.41,189.36,165.7447,184.1128,160.1947,185.2072,159.1002,179.6573,157.41,189.36" style="stroke:#181818;stroke-width:1.0;"/></g><!--link RestaurantService to RestaurantPort--><g id="link_RestaurantService_RestaurantPort"><path codeLine="41" d="M170.57,274.53 C202.67,306.98 242.4409,347.2039 272.0409,377.1339 " fill="none" id="RestaurantService-to-RestaurantPort" style="stroke:#181818;stroke-width:1.0;"/><polygon fill="#181818" points="276.26,381.4,272.7755,372.1882,272.7441,377.8449,267.0874,377.8136,276.26,381.4" style="stroke:#181818;stroke-width:1.0;"/></g><!--link UberEatsScraperAdapter to RestaurantPort--><g id="link_UberEatsScraperAdapter_RestaurantPort"><path codeLine="42" d="M512.36,293.02 C462.77,322.45 420.4486,347.5624 379.0886,372.1124 " fill="none" id="UberEatsScraperAdapter-to-RestaurantPort" style="stroke:#181818;stroke-width:1.0;stroke-dasharray:7.0,7.0;"/><polygon fill="none" points="363.61,381.3,382.1512,377.2719,376.0261,366.9528,363.61,381.3" style="stroke:#181818;stroke-width:1.0;"/></g><!--link UberEatsScraperAdapter to APICaller--><g id="link_UberEatsScraperAdapter_APICaller"><path codeLine="43" d="M613.5,293.02 C613.5,312.57 613.5,316.27 613.5,335.83 " fill="none" id="UberEatsScraperAdapter-to-APICaller" style="stroke:#181818;stroke-width:1.0;"/><polygon fill="none" points="613.5,353.83,619.5,335.83,607.5,335.83,613.5,353.83" style="stroke:#181818;stroke-width:1.0;"/></g><!--link RestaurantController to Restaurant--><g id="link_RestaurantController_Restaurant"><path codeLine="44" d="M278.56,92.36 C294.2,115.69 310.6102,140.1555 327.8702,165.9155 " fill="none" id="RestaurantController-to-Restaurant" style="stroke:#181818;stroke-width:1.0;"/><polygon fill="#181818" points="331.21,170.9,329.5233,161.1966,328.4268,166.7462,322.8773,165.6497,331.21,170.9" style="stroke:#181818;stroke-width:1.0;"/><text fill="#000000" font-family="sans-serif" font-size="13" lengthAdjust="spacing" textLength="65.0317" x="312.5" y="137.0283">restaurants</text></g><!--SRC=[fLBBQiCm4BphAqHwQ4kGVJSb448FXL92tNx0Hjaw8hPaLkjGQFllbHqdjlC0bzwqezcTMMbkDyobJ-AupC5oLUIHTaMiS_1UhGra18KGJIbVqJDK56WBPvbSdYF9Bw4a7IzIf9tHcFIuBIJ4L6R87UxlxXFvR3m_TDXC_9oBjGDEb9QEk2zJr-CrOEMPGBFSYysNJmjervbA_4HTCRPWFI9bCZOJDp9tcR4ridDc7MgzGRrzSriSWA4hDFSQWwAnZFG1OO-XvqRnBm_pla9w1FQf9YYHvciekJK-Oin_LZZzcEP7B1Hu9AamNGCRPuDqUzhxUWcqthG6Ep0QemTsqBcOCwLc5q9rdf8Xhqd5bHUBek-nLAK2zHYICGPb8YTTMFr4Y5y0]--></g></svg>