<svg xmlns="http://www.w3.org/2000/svg" xmlns:xlink="http://www.w3.org/1999/xlink" contentStyleType="text/css" height="558px" preserveAspectRatio="none" style="width:909px;height:558px;background:#FFFFFF;" version="1.1" viewBox="0 0 909 558" width="909px" zoomAndPan="magnify"><defs/><g><!--class RestaurantController--><g id="elem_RestaurantController"><rect codeLine="3" fill="#F1F1F1" height="85.2422" id="RestaurantController" rx="2.5" ry="2.5" style="stroke:#181818;stroke-width:0.5;" width="337.2744" x="147" y="7"/><ellipse cx="246.8013" cy="23" fill="#ADD1B2" rx="11" ry="11" style="stroke:#181818;stroke-width:1.0;"/><path d="M249.5669,18.875 Q249.7231,18.6563 249.9106,18.5469 Q250.0981,18.4375 250.3169,18.4375 Q250.6919,18.4375 250.9263,18.7031 Q251.1606,18.9531 251.1606,19.5625 L251.1606,21.0156 Q251.1606,21.625 250.9263,21.8906 Q250.6919,22.1563 250.3169,22.1563 Q249.9731,22.1563 249.77,21.9531 Q249.5669,21.7656 249.4575,21.25 Q249.4106,20.8906 249.2231,20.7031 Q248.895,20.3281 248.2856,20.1094 Q247.6763,19.8906 247.0513,19.8906 Q246.2856,19.8906 245.645,20.2188 Q245.02,20.5469 244.52,21.2969 Q244.0356,22.0469 244.0356,23.0781 L244.0356,24.1719 Q244.0356,25.4063 244.9263,26.2344 Q245.8169,27.0469 247.4106,27.0469 Q248.3481,27.0469 249.0044,26.7969 Q249.395,26.6406 249.8169,26.2031 Q250.0825,25.9375 250.2231,25.8594 Q250.3794,25.7813 250.5825,25.7813 Q250.9106,25.7813 251.1606,26.0469 Q251.4263,26.2969 251.4263,26.6406 Q251.4263,26.9844 251.0825,27.3906 Q250.5825,27.9688 249.7856,28.2969 Q248.7075,28.75 247.4106,28.75 Q245.895,28.75 244.6919,28.125 Q243.7075,27.625 243.02,26.5625 Q242.3325,25.4844 242.3325,24.2031 L242.3325,23.0469 Q242.3325,21.7188 242.9419,20.5781 Q243.5669,19.4219 244.6606,18.8125 Q245.7544,18.1875 246.9888,18.1875 Q247.7231,18.1875 248.3638,18.3594 Q249.02,18.5156 249.5669,18.875 Z " fill="#000000"/><text fill="#000000" font-family="sans-serif" font-size="14" lengthAdjust="spacing" textLength="129.1719" x="267.3013" y="28.7969">RestaurantController</text><line style="stroke:#181818;stroke-width:0.5;" x1="148" x2="483.2744" y1="39" y2="39"/><rect fill="none" height="6" style="stroke:#C82930;stroke-width:1.0;" width="6" x="155" y="50.8105"/><text fill="#000000" font-family="sans-serif" font-size="14" lengthAdjust="spacing" textLength="232.6611" x="167" y="58.1074">restaurantService: RestaurantService</text><line style="stroke:#181818;stroke-width:0.5;" x1="148" x2="483.2744" y1="65.6211" y2="65.6211"/><ellipse cx="158" cy="80.4316" fill="#84BE84" rx="3" ry="3" style="stroke:#038048;stroke-width:1.0;"/><text fill="#000000" font-family="sans-serif" font-size="14" lengthAdjust="spacing" textLength="311.2744" x="167" y="84.7285">getRestaurants(query, address): List&lt;Restaurant&gt;</text></g><!--class RestaurantService--><g id="elem_RestaurantService"><rect codeLine="9" fill="#F1F1F1" height="85.2422" id="RestaurantService" rx="2.5" ry="2.5" style="stroke:#181818;stroke-width:0.5;" width="337.2744" x="7" y="217.5"/><ellipse cx="113.8047" cy="233.5" fill="#ADD1B2" rx="11" ry="11" style="stroke:#181818;stroke-width:1.0;"/><path d="M116.5703,229.375 Q116.7266,229.1563 116.9141,229.0469 Q117.1016,228.9375 117.3203,228.9375 Q117.6953,228.9375 117.9297,229.2031 Q118.1641,229.4531 118.1641,230.0625 L118.1641,231.5156 Q118.1641,232.125 117.9297,232.3906 Q117.6953,232.6563 117.3203,232.6563 Q116.9766,232.6563 116.7734,232.4531 Q116.5703,232.2656 116.4609,231.75 Q116.4141,231.3906 116.2266,231.2031 Q115.8984,230.8281 115.2891,230.6094 Q114.6797,230.3906 114.0547,230.3906 Q113.2891,230.3906 112.6484,230.7188 Q112.0234,231.0469 111.5234,231.7969 Q111.0391,232.5469 111.0391,233.5781 L111.0391,234.6719 Q111.0391,235.9063 111.9297,236.7344 Q112.8203,237.5469 114.4141,237.5469 Q115.3516,237.5469 116.0078,237.2969 Q116.3984,237.1406 116.8203,236.7031 Q117.0859,236.4375 117.2266,236.3594 Q117.3828,236.2813 117.5859,236.2813 Q117.9141,236.2813 118.1641,236.5469 Q118.4297,236.7969 118.4297,237.1406 Q118.4297,237.4844 118.0859,237.8906 Q117.5859,238.4688 116.7891,238.7969 Q115.7109,239.25 114.4141,239.25 Q112.8984,239.25 111.6953,238.625 Q110.7109,238.125 110.0234,237.0625 Q109.3359,235.9844 109.3359,234.7031 L109.3359,233.5469 Q109.3359,232.2188 109.9453,231.0781 Q110.5703,229.9219 111.6641,229.3125 Q112.7578,228.6875 113.9922,228.6875 Q114.7266,228.6875 115.3672,228.8594 Q116.0234,229.0156 116.5703,229.375 Z " fill="#000000"/><text fill="#000000" font-family="sans-serif" font-size="14" lengthAdjust="spacing" textLength="115.165" x="134.3047" y="239.2969">RestaurantService</text><line style="stroke:#181818;stroke-width:0.5;" x1="8" x2="343.2744" y1="249.5" y2="249.5"/><rect fill="none" height="6" style="stroke:#C82930;stroke-width:1.0;" width="6" x="15" y="261.3105"/><text fill="#000000" font-family="sans-serif" font-size="14" lengthAdjust="spacing" textLength="190.6475" x="27" y="268.6074">restaurantPort: RestaurantPort</text><line style="stroke:#181818;stroke-width:0.5;" x1="8" x2="343.2744" y1="276.1211" y2="276.1211"/><ellipse cx="18" cy="290.9316" fill="#84BE84" rx="3" ry="3" style="stroke:#038048;stroke-width:1.0;"/><text fill="#000000" font-family="sans-serif" font-size="14" lengthAdjust="spacing" textLength="311.2744" x="27" y="295.2285">getRestaurants(query, address): List&lt;Restaurant&gt;</text></g><!--class APICaller--><g id="elem_APICaller"><rect codeLine="15" fill="#F1F1F1" height="141.1055" id="APICaller" rx="2.5" ry="2.5" style="stroke:#181818;stroke-width:0.5;" width="246.1992" x="610.5" y="410"/><ellipse cx="699.7842" cy="426" fill="#A9DCDF" rx="11" ry="11" style="stroke:#181818;stroke-width:1.0;"/><path d="M701.9717,427.7656 L697.8311,427.7656 L697.4092,428.7969 L697.8311,428.7969 Q698.4404,428.7969 698.7061,429.0313 Q698.9717,429.2656 698.9717,429.6563 Q698.9717,430.0313 698.7061,430.2656 Q698.4404,430.5 697.8311,430.5 L695.5342,430.5 Q694.9248,430.5 694.6748,430.2656 Q694.4092,430.0313 694.4092,429.6406 Q694.4092,429.2656 694.6904,429.0313 Q694.9561,428.7813 695.5811,428.7969 L698.2529,422.1406 L697.1436,422.1406 Q696.5342,422.1406 696.2686,421.9063 Q696.0029,421.6719 696.0029,421.2813 Q696.0029,420.9063 696.2686,420.6719 Q696.5342,420.4375 697.1436,420.4375 L700.8154,420.4375 L704.2061,428.7969 Q704.7998,428.7969 704.9873,428.9375 Q705.3779,429.2031 705.3779,429.6563 Q705.3779,430.0313 705.1123,430.2656 Q704.8623,430.5 704.2529,430.5 L701.9561,430.5 Q701.3467,430.5 701.0811,430.2656 Q700.8154,430.0313 700.8154,429.6406 Q700.8154,429.2656 701.0811,429.0313 Q701.3467,428.7969 701.9561,428.7969 L702.3779,428.7969 L701.9717,427.7656 Z M701.2529,426.0625 L699.8936,422.6875 L698.5186,426.0625 L701.2529,426.0625 Z " fill="#000000"/><text fill="#000000" font-family="sans-serif" font-size="14" font-style="italic" lengthAdjust="spacing" textLength="59.1309" x="720.2842" y="431.7969">APICaller</text><line style="stroke:#181818;stroke-width:0.5;" x1="611.5" x2="855.6992" y1="442" y2="442"/><line style="stroke:#181818;stroke-width:0.5;" x1="611.5" x2="855.6992" y1="450" y2="450"/><ellipse cx="621.5" cy="464.8105" fill="#84BE84" rx="3" ry="3" style="stroke:#038048;stroke-width:1.0;"/><text fill="#000000" font-family="sans-serif" font-size="14" lengthAdjust="spacing" textLength="149.3926" x="630.5" y="469.1074">executeAPICall(): String</text><ellipse cx="621.5" cy="483.4316" fill="#84BE84" rx="3" ry="3" style="stroke:#038048;stroke-width:1.0;"/><text fill="#000000" font-family="sans-serif" font-size="14" lengthAdjust="spacing" textLength="220.1992" x="630.5" y="487.7285">executeAPICall(parameters): String</text><polygon fill="#FFFF44" points="621.5,497.0527,625.5,501.0527,621.5,505.0527,617.5,501.0527" style="stroke:#B38D22;stroke-width:1.0;"/><text fill="#000000" font-family="sans-serif" font-size="14" lengthAdjust="spacing" textLength="72.3652" x="630.5" y="506.3496">login(): void</text><polygon fill="#FFFF44" points="621.5,515.6738,625.5,519.6738,621.5,523.6738,617.5,519.6738" style="stroke:#B38D22;stroke-width:1.0;"/><text fill="#000000" font-family="sans-serif" font-size="14" lengthAdjust="spacing" textLength="118.2686" x="630.5" y="524.9707">checkToken(): void</text><polygon fill="#FFFF44" points="621.5,534.2949,625.5,538.2949,621.5,542.2949,617.5,538.2949" style="stroke:#B38D22;stroke-width:1.0;"/><text fill="#000000" font-family="sans-serif" font-size="14" lengthAdjust="spacing" textLength="168.0547" x="630.5" y="543.5918">callAPI(parameters): String</text></g><!--class RestaurantPort--><g id="elem_RestaurantPort"><rect codeLine="23" fill="#F1F1F1" height="66.6211" id="RestaurantPort" rx="2.5" ry="2.5" style="stroke:#181818;stroke-width:0.5;" width="337.2744" x="180" y="447"/><ellipse cx="297.3081" cy="463" fill="#B4A7E5" rx="11" ry="11" style="stroke:#181818;stroke-width:1.0;"/><path d="M298.2612,459.6406 L298.2612,466.2969 L299.98,466.2969 Q300.5894,466.2969 300.855,466.5313 Q301.1206,466.7656 301.1206,467.1563 Q301.1206,467.5313 300.855,467.7656 Q300.5894,468 299.98,468 L294.8394,468 Q294.23,468 293.9644,467.7656 Q293.6987,467.5313 293.6987,467.1406 Q293.6987,466.7656 293.9644,466.5313 Q294.23,466.2969 294.8394,466.2969 L296.5581,466.2969 L296.5581,459.6406 L294.8394,459.6406 Q294.23,459.6406 293.9644,459.4063 Q293.6987,459.1719 293.6987,458.7813 Q293.6987,458.4063 293.9644,458.1719 Q294.23,457.9375 294.8394,457.9375 L299.98,457.9375 Q300.5894,457.9375 300.855,458.1719 Q301.1206,458.4063 301.1206,458.7813 Q301.1206,459.1719 300.855,459.4063 Q300.5894,459.6406 299.98,459.6406 L298.2612,459.6406 Z " fill="#000000"/><text fill="#000000" font-family="sans-serif" font-size="14" font-style="italic" lengthAdjust="spacing" textLength="94.1582" x="317.8081" y="468.7969">RestaurantPort</text><line style="stroke:#181818;stroke-width:0.5;" x1="181" x2="516.2744" y1="479" y2="479"/><line style="stroke:#181818;stroke-width:0.5;" x1="181" x2="516.2744" y1="487" y2="487"/><ellipse cx="191" cy="501.8105" fill="#84BE84" rx="3" ry="3" style="stroke:#038048;stroke-width:1.0;"/><text fill="#000000" font-family="sans-serif" font-size="14" lengthAdjust="spacing" textLength="311.2744" x="200" y="506.1074">getRestaurants(query, address): List&lt;Restaurant&gt;</text></g><!--class UberEatsScraperAdapter--><g id="elem_UberEatsScraperAdapter"><rect codeLine="27" fill="#F1F1F1" height="178.3477" id="UberEatsScraperAdapter" rx="2.5" ry="2.5" style="stroke:#181818;stroke-width:0.5;" width="337.2744" x="565" y="171"/><ellipse cx="651.1807" cy="187" fill="#ADD1B2" rx="11" ry="11" style="stroke:#181818;stroke-width:1.0;"/><path d="M653.9463,182.875 Q654.1025,182.6563 654.29,182.5469 Q654.4775,182.4375 654.6963,182.4375 Q655.0713,182.4375 655.3057,182.7031 Q655.54,182.9531 655.54,183.5625 L655.54,185.0156 Q655.54,185.625 655.3057,185.8906 Q655.0713,186.1563 654.6963,186.1563 Q654.3525,186.1563 654.1494,185.9531 Q653.9463,185.7656 653.8369,185.25 Q653.79,184.8906 653.6025,184.7031 Q653.2744,184.3281 652.665,184.1094 Q652.0557,183.8906 651.4307,183.8906 Q650.665,183.8906 650.0244,184.2188 Q649.3994,184.5469 648.8994,185.2969 Q648.415,186.0469 648.415,187.0781 L648.415,188.1719 Q648.415,189.4063 649.3057,190.2344 Q650.1963,191.0469 651.79,191.0469 Q652.7275,191.0469 653.3838,190.7969 Q653.7744,190.6406 654.1963,190.2031 Q654.4619,189.9375 654.6025,189.8594 Q654.7588,189.7813 654.9619,189.7813 Q655.29,189.7813 655.54,190.0469 Q655.8057,190.2969 655.8057,190.6406 Q655.8057,190.9844 655.4619,191.3906 Q654.9619,191.9688 654.165,192.2969 Q653.0869,192.75 651.79,192.75 Q650.2744,192.75 649.0713,192.125 Q648.0869,191.625 647.3994,190.5625 Q646.7119,189.4844 646.7119,188.2031 L646.7119,187.0469 Q646.7119,185.7188 647.3213,184.5781 Q647.9463,183.4219 649.04,182.8125 Q650.1338,182.1875 651.3682,182.1875 Q652.1025,182.1875 652.7432,182.3594 Q653.3994,182.5156 653.9463,182.875 Z " fill="#000000"/><text fill="#000000" font-family="sans-serif" font-size="14" lengthAdjust="spacing" textLength="156.4131" x="671.6807" y="192.7969">UberEatsScraperAdapter</text><line style="stroke:#181818;stroke-width:0.5;" x1="566" x2="901.2744" y1="203" y2="203"/><polygon fill="none" points="576,212.8105,580,216.8105,576,220.8105,572,216.8105" style="stroke:#B38D22;stroke-width:1.0;"/><text fill="#000000" font-family="sans-serif" font-size="14" lengthAdjust="spacing" textLength="82.4893" x="585" y="222.1074">token : String</text><polygon fill="none" points="576,231.4316,580,235.4316,576,239.4316,572,235.4316" style="stroke:#B38D22;stroke-width:1.0;"/><text fill="#000000" font-family="sans-serif" font-size="14" lengthAdjust="spacing" textLength="94.9307" x="585" y="240.7285">APIKey : String</text><polygon fill="none" points="576,250.0527,580,254.0527,576,258.0527,572,254.0527" style="stroke:#B38D22;stroke-width:1.0;"/><text fill="#000000" font-family="sans-serif" font-size="14" lengthAdjust="spacing" textLength="98.8135" x="585" y="259.3496">APIURL : String</text><line style="stroke:#181818;stroke-width:0.5;" x1="566" x2="901.2744" y1="266.8633" y2="266.8633"/><ellipse cx="576" cy="281.6738" fill="#84BE84" rx="3" ry="3" style="stroke:#038048;stroke-width:1.0;"/><text fill="#000000" font-family="sans-serif" font-size="14" lengthAdjust="spacing" textLength="311.2744" x="585" y="285.9707">getRestaurants(query, address): List&lt;Restaurant&gt;</text><polygon fill="#FFFF44" points="576,295.2949,580,299.2949,576,303.2949,572,299.2949" style="stroke:#B38D22;stroke-width:1.0;"/><text fill="#000000" font-family="sans-serif" font-size="14" lengthAdjust="spacing" textLength="72.3652" x="585" y="304.5918">login(): void</text><polygon fill="#FFFF44" points="576,313.916,580,317.916,576,321.916,572,317.916" style="stroke:#B38D22;stroke-width:1.0;"/><text fill="#000000" font-family="sans-serif" font-size="14" lengthAdjust="spacing" textLength="118.2686" x="585" y="323.2129">checkToken(): void</text><polygon fill="#FFFF44" points="576,332.5371,580,336.5371,576,340.5371,572,336.5371" style="stroke:#B38D22;stroke-width:1.0;"/><text fill="#000000" font-family="sans-serif" font-size="14" lengthAdjust="spacing" textLength="168.0547" x="585" y="341.834">callAPI(parameters): String</text></g><!--class Restaurant--><g id="elem_Restaurant"><rect codeLine="38" fill="#F1F1F1" height="159.7266" id="Restaurant" rx="2.5" ry="2.5" style="stroke:#181818;stroke-width:0.5;" width="150.4961" x="379.5" y="180"/><ellipse cx="417.0062" cy="196" fill="#ADD1B2" rx="11" ry="11" style="stroke:#181818;stroke-width:1.0;"/><path d="M419.7718,191.875 Q419.928,191.6563 420.1155,191.5469 Q420.303,191.4375 420.5218,191.4375 Q420.8968,191.4375 421.1312,191.7031 Q421.3655,191.9531 421.3655,192.5625 L421.3655,194.0156 Q421.3655,194.625 421.1312,194.8906 Q420.8968,195.1563 420.5218,195.1563 Q420.178,195.1563 419.9749,194.9531 Q419.7718,194.7656 419.6624,194.25 Q419.6155,193.8906 419.428,193.7031 Q419.0999,193.3281 418.4905,193.1094 Q417.8812,192.8906 417.2562,192.8906 Q416.4905,192.8906 415.8499,193.2188 Q415.2249,193.5469 414.7249,194.2969 Q414.2405,195.0469 414.2405,196.0781 L414.2405,197.1719 Q414.2405,198.4063 415.1312,199.2344 Q416.0218,200.0469 417.6155,200.0469 Q418.553,200.0469 419.2093,199.7969 Q419.5999,199.6406 420.0218,199.2031 Q420.2874,198.9375 420.428,198.8594 Q420.5843,198.7813 420.7874,198.7813 Q421.1155,198.7813 421.3655,199.0469 Q421.6312,199.2969 421.6312,199.6406 Q421.6312,199.9844 421.2874,200.3906 Q420.7874,200.9688 419.9905,201.2969 Q418.9124,201.75 417.6155,201.75 Q416.0999,201.75 414.8968,201.125 Q413.9124,200.625 413.2249,199.5625 Q412.5374,198.4844 412.5374,197.2031 L412.5374,196.0469 Q412.5374,194.7188 413.1468,193.5781 Q413.7718,192.4219 414.8655,191.8125 Q415.9593,191.1875 417.1937,191.1875 Q417.928,191.1875 418.5687,191.3594 Q419.2249,191.5156 419.7718,191.875 Z " fill="#000000"/><text fill="#000000" font-family="sans-serif" font-size="14" lengthAdjust="spacing" textLength="68.4824" x="436.0075" y="201.7969">Restaurant</text><line style="stroke:#181818;stroke-width:0.5;" x1="380.5" x2="528.9961" y1="212" y2="212"/><rect fill="none" height="6" style="stroke:#C82930;stroke-width:1.0;" width="6" x="387.5" y="223.8105"/><text fill="#000000" font-family="sans-serif" font-size="14" lengthAdjust="spacing" textLength="55.248" x="399.5" y="231.1074">id: String</text><rect fill="none" height="6" style="stroke:#C82930;stroke-width:1.0;" width="6" x="387.5" y="242.4316"/><text fill="#000000" font-family="sans-serif" font-size="14" lengthAdjust="spacing" textLength="79.3721" x="399.5" y="249.7285">name: String</text><rect fill="none" height="6" style="stroke:#C82930;stroke-width:1.0;" width="6" x="387.5" y="261.0527"/><text fill="#000000" font-family="sans-serif" font-size="14" lengthAdjust="spacing" textLength="94.1582" x="399.5" y="268.3496">address: String</text><line style="stroke:#181818;stroke-width:0.5;" x1="380.5" x2="528.9961" y1="275.8633" y2="275.8633"/><ellipse cx="390.5" cy="290.6738" fill="#84BE84" rx="3" ry="3" style="stroke:#038048;stroke-width:1.0;"/><text fill="#000000" font-family="sans-serif" font-size="14" lengthAdjust="spacing" textLength="84.8135" x="399.5" y="294.9707">getId(): String</text><ellipse cx="390.5" cy="309.2949" fill="#84BE84" rx="3" ry="3" style="stroke:#038048;stroke-width:1.0;"/><text fill="#000000" font-family="sans-serif" font-size="14" lengthAdjust="spacing" textLength="110.4824" x="399.5" y="313.5918">getName(): String</text><ellipse cx="390.5" cy="327.916" fill="#84BE84" rx="3" ry="3" style="stroke:#038048;stroke-width:1.0;"/><text fill="#000000" font-family="sans-serif" font-size="14" lengthAdjust="spacing" textLength="124.4961" x="399.5" y="332.2129">getAddress(): String</text></g><!--link RestaurantController to RestaurantService--><g id="link_RestaurantController_RestaurantService"><path codeLine="47" d="M287.51,92.19 C263.09,128.56 231.1946,176.0587 206.7946,212.3987 " fill="none" id="RestaurantController-to-RestaurantService" style="stroke:#181818;stroke-width:1.0;"/><polygon fill="#181818" points="203.45,217.38,211.7878,212.1378,206.2372,213.2289,205.1461,207.6783,203.45,217.38" style="stroke:#181818;stroke-width:1.0;"/></g><!--link RestaurantService to RestaurantPort--><g id="link_RestaurantService_RestaurantPort"><path codeLine="48" d="M208.45,302.61 C241.68,344.59 288.5755,403.816 318.9955,442.236 " fill="none" id="RestaurantService-to-RestaurantPort" style="stroke:#181818;stroke-width:1.0;"/><polygon fill="#181818" points="322.72,446.94,320.2692,437.4009,319.6162,443.02,313.9972,442.367,322.72,446.94" style="stroke:#181818;stroke-width:1.0;"/></g><!--link UberEatsScraperAdapter to RestaurantPort--><g id="link_UberEatsScraperAdapter_RestaurantPort"><path codeLine="49" d="M578.29,349.09 C517.53,383.57 467.2543,412.105 421.6743,437.975 " fill="none" id="UberEatsScraperAdapter-to-RestaurantPort" style="stroke:#181818;stroke-width:1.0;stroke-dasharray:7.0,7.0;"/><polygon fill="none" points="406.02,446.86,424.636,443.1931,418.7127,432.7569,406.02,446.86" style="stroke:#181818;stroke-width:1.0;"/></g><!--link UberEatsScraperAdapter to APICaller--><g id="link_UberEatsScraperAdapter_APICaller"><path codeLine="50" d="M733.5,349.24 C733.5,369.38 733.5,372.5 733.5,391.74 " fill="none" id="UberEatsScraperAdapter-to-APICaller" style="stroke:#181818;stroke-width:1.0;"/><polygon fill="none" points="733.5,409.74,739.5,391.74,727.5,391.74,733.5,409.74" style="stroke:#181818;stroke-width:1.0;"/></g><!--link RestaurantController to Restaurant--><g id="link_RestaurantController_Restaurant"><path codeLine="51" d="M343.29,92.19 C360.01,117.27 378.5126,145.0072 398.3926,174.8372 " fill="none" id="RestaurantController-to-Restaurant" style="stroke:#181818;stroke-width:1.0;"/><polygon fill="#181818" points="401.72,179.83,400.0574,170.1225,398.9471,175.6693,393.4003,174.5591,401.72,179.83" style="stroke:#181818;stroke-width:1.0;"/><text fill="#000000" font-family="sans-serif" font-size="13" lengthAdjust="spacing" textLength="65.0317" x="374.5" y="137.0283">restaurants</text></g><!--SRC=[hLFRQW9137sVhnZqeHOx-Yv54Ec3L8fe_O1n9bq7rvrj9YkLjl_Uk2xkHGMHFkRa93cvFQo9qZ3ezzDO9vHjuvxnsxw9TGZAEXsXtWgHct8EWNI6J1lxXD37CQ3y5ahYoR40t3a3WmgtW8JeoWYen4FdCmFSFqbjBIS8ZmCvTO6UIyPG_9wNBj8rwiuyKhNemRwtebu5Gcr87akFPfEnBbhjIlW2an4KO8TJB0XT4fsxKisZ0m8C9QajOn-vv12syywoRTPWDkz-0pMGupdDnHGiq2KCVMWUGhtXNE3zCrwk05yqXOL1dGAEh4ufxxejwI1GLjfWTQ-mRo3B-RH4xf7oF-DfNan-AiwUA4ec75On2qMLLRBoYQqjbv4tZcfYesDefoRWufyeDRpm5ETtNUVbTtnbCRtUpwrKfPXwEkHR1F8YM-LxXPOGVm00]--></g></svg>