<svg xmlns="http://www.w3.org/2000/svg" xmlns:xlink="http://www.w3.org/1999/xlink" contentStyleType="text/css" height="463px" preserveAspectRatio="none" style="width:545px;height:463px;background:#FFFFFF;" version="1.1" viewBox="0 0 545 463" width="545px" zoomAndPan="magnify"><defs/><g><!--class RestaurantController--><g id="elem_RestaurantController"><rect codeLine="3" fill="#F1F1F1" height="85.2422" id="RestaurantController" rx="2.5" ry="2.5" style="stroke:#181818;stroke-width:0.5;" width="258.6611" x="7" y="25.5"/><ellipse cx="67.4946" cy="41.5" fill="#ADD1B2" rx="11" ry="11" style="stroke:#181818;stroke-width:1.0;"/><path d="M70.2603,37.375 Q70.4165,37.1563 70.604,37.0469 Q70.7915,36.9375 71.0103,36.9375 Q71.3853,36.9375 71.6196,37.2031 Q71.854,37.4531 71.854,38.0625 L71.854,39.5156 Q71.854,40.125 71.6196,40.3906 Q71.3853,40.6563 71.0103,40.6563 Q70.6665,40.6563 70.4634,40.4531 Q70.2603,40.2656 70.1509,39.75 Q70.104,39.3906 69.9165,39.2031 Q69.5884,38.8281 68.979,38.6094 Q68.3696,38.3906 67.7446,38.3906 Q66.979,38.3906 66.3384,38.7188 Q65.7134,39.0469 65.2134,39.7969 Q64.729,40.5469 64.729,41.5781 L64.729,42.6719 Q64.729,43.9063 65.6196,44.7344 Q66.5103,45.5469 68.104,45.5469 Q69.0415,45.5469 69.6978,45.2969 Q70.0884,45.1406 70.5103,44.7031 Q70.7759,44.4375 70.9165,44.3594 Q71.0728,44.2813 71.2759,44.2813 Q71.604,44.2813 71.854,44.5469 Q72.1196,44.7969 72.1196,45.1406 Q72.1196,45.4844 71.7759,45.8906 Q71.2759,46.4688 70.479,46.7969 Q69.4009,47.25 68.104,47.25 Q66.5884,47.25 65.3853,46.625 Q64.4009,46.125 63.7134,45.0625 Q63.0259,43.9844 63.0259,42.7031 L63.0259,41.5469 Q63.0259,40.2188 63.6353,39.0781 Q64.2603,37.9219 65.354,37.3125 Q66.4478,36.6875 67.6821,36.6875 Q68.4165,36.6875 69.0571,36.8594 Q69.7134,37.0156 70.2603,37.375 Z " fill="#000000"/><text fill="#000000" font-family="sans-serif" font-size="14" lengthAdjust="spacing" textLength="129.1719" x="87.9946" y="47.2969">RestaurantController</text><line style="stroke:#181818;stroke-width:0.5;" x1="8" x2="264.6611" y1="57.5" y2="57.5"/><rect fill="none" height="6" style="stroke:#C82930;stroke-width:1.0;" width="6" x="15" y="69.3105"/><text fill="#000000" font-family="sans-serif" font-size="14" lengthAdjust="spacing" textLength="232.6611" x="27" y="76.6074">restaurantService: RestaurantService</text><line style="stroke:#181818;stroke-width:0.5;" x1="8" x2="264.6611" y1="84.1211" y2="84.1211"/><ellipse cx="18" cy="98.9316" fill="#84BE84" rx="3" ry="3" style="stroke:#038048;stroke-width:1.0;"/><text fill="#000000" font-family="sans-serif" font-size="14" lengthAdjust="spacing" textLength="218.668" x="27" y="103.2285">getRestaurants(): List&lt;Restaurant&gt;</text></g><!--class RestaurantService--><g id="elem_RestaurantService"><rect codeLine="9" fill="#F1F1F1" height="85.2422" id="RestaurantService" rx="2.5" ry="2.5" style="stroke:#181818;stroke-width:0.5;" width="244.668" x="14" y="189"/><ellipse cx="74.5015" cy="205" fill="#ADD1B2" rx="11" ry="11" style="stroke:#181818;stroke-width:1.0;"/><path d="M77.2671,200.875 Q77.4233,200.6563 77.6108,200.5469 Q77.7983,200.4375 78.0171,200.4375 Q78.3921,200.4375 78.6265,200.7031 Q78.8608,200.9531 78.8608,201.5625 L78.8608,203.0156 Q78.8608,203.625 78.6265,203.8906 Q78.3921,204.1563 78.0171,204.1563 Q77.6733,204.1563 77.4702,203.9531 Q77.2671,203.7656 77.1577,203.25 Q77.1108,202.8906 76.9233,202.7031 Q76.5952,202.3281 75.9858,202.1094 Q75.3765,201.8906 74.7515,201.8906 Q73.9858,201.8906 73.3452,202.2188 Q72.7202,202.5469 72.2202,203.2969 Q71.7358,204.0469 71.7358,205.0781 L71.7358,206.1719 Q71.7358,207.4063 72.6265,208.2344 Q73.5171,209.0469 75.1108,209.0469 Q76.0483,209.0469 76.7046,208.7969 Q77.0952,208.6406 77.5171,208.2031 Q77.7827,207.9375 77.9233,207.8594 Q78.0796,207.7813 78.2827,207.7813 Q78.6108,207.7813 78.8608,208.0469 Q79.1265,208.2969 79.1265,208.6406 Q79.1265,208.9844 78.7827,209.3906 Q78.2827,209.9688 77.4858,210.2969 Q76.4077,210.75 75.1108,210.75 Q73.5952,210.75 72.3921,210.125 Q71.4077,209.625 70.7202,208.5625 Q70.0327,207.4844 70.0327,206.2031 L70.0327,205.0469 Q70.0327,203.7188 70.6421,202.5781 Q71.2671,201.4219 72.3608,200.8125 Q73.4546,200.1875 74.689,200.1875 Q75.4233,200.1875 76.064,200.3594 Q76.7202,200.5156 77.2671,200.875 Z " fill="#000000"/><text fill="#000000" font-family="sans-serif" font-size="14" lengthAdjust="spacing" textLength="115.165" x="95.0015" y="210.7969">RestaurantService</text><line style="stroke:#181818;stroke-width:0.5;" x1="15" x2="257.668" y1="221" y2="221"/><rect fill="none" height="6" style="stroke:#C82930;stroke-width:1.0;" width="6" x="22" y="232.8105"/><text fill="#000000" font-family="sans-serif" font-size="14" lengthAdjust="spacing" textLength="190.6475" x="34" y="240.1074">restaurantPort: RestaurantPort</text><line style="stroke:#181818;stroke-width:0.5;" x1="15" x2="257.668" y1="247.6211" y2="247.6211"/><ellipse cx="25" cy="262.4316" fill="#84BE84" rx="3" ry="3" style="stroke:#038048;stroke-width:1.0;"/><text fill="#000000" font-family="sans-serif" font-size="14" lengthAdjust="spacing" textLength="218.668" x="34" y="266.7285">getRestaurants(): List&lt;Restaurant&gt;</text></g><!--class APICaller--><g id="elem_APICaller"><rect codeLine="15" fill="#F1F1F1" height="122.4844" id="APICaller" rx="2.5" ry="2.5" style="stroke:#181818;stroke-width:0.5;" width="175.3926" x="329" y="334"/><ellipse cx="382.8809" cy="350" fill="#A9DCDF" rx="11" ry="11" style="stroke:#181818;stroke-width:1.0;"/><path d="M385.0684,351.7656 L380.9277,351.7656 L380.5059,352.7969 L380.9277,352.7969 Q381.5371,352.7969 381.8027,353.0313 Q382.0684,353.2656 382.0684,353.6563 Q382.0684,354.0313 381.8027,354.2656 Q381.5371,354.5 380.9277,354.5 L378.6309,354.5 Q378.0215,354.5 377.7715,354.2656 Q377.5059,354.0313 377.5059,353.6406 Q377.5059,353.2656 377.7871,353.0313 Q378.0527,352.7813 378.6777,352.7969 L381.3496,346.1406 L380.2402,346.1406 Q379.6309,346.1406 379.3652,345.9063 Q379.0996,345.6719 379.0996,345.2813 Q379.0996,344.9063 379.3652,344.6719 Q379.6309,344.4375 380.2402,344.4375 L383.9121,344.4375 L387.3027,352.7969 Q387.8965,352.7969 388.084,352.9375 Q388.4746,353.2031 388.4746,353.6563 Q388.4746,354.0313 388.209,354.2656 Q387.959,354.5 387.3496,354.5 L385.0527,354.5 Q384.4434,354.5 384.1777,354.2656 Q383.9121,354.0313 383.9121,353.6406 Q383.9121,353.2656 384.1777,353.0313 Q384.4434,352.7969 385.0527,352.7969 L385.4746,352.7969 L385.0684,351.7656 Z M384.3496,350.0625 L382.9902,346.6875 L381.6152,350.0625 L384.3496,350.0625 Z " fill="#000000"/><text fill="#000000" font-family="sans-serif" font-size="14" font-style="italic" lengthAdjust="spacing" textLength="59.1309" x="403.3809" y="355.7969">APICaller</text><line style="stroke:#181818;stroke-width:0.5;" x1="330" x2="503.3926" y1="366" y2="366"/><line style="stroke:#181818;stroke-width:0.5;" x1="330" x2="503.3926" y1="374" y2="374"/><ellipse cx="340" cy="388.8105" fill="#84BE84" rx="3" ry="3" style="stroke:#038048;stroke-width:1.0;"/><text fill="#000000" font-family="sans-serif" font-size="14" lengthAdjust="spacing" textLength="149.3926" x="349" y="393.1074">executeAPICall(): String</text><polygon fill="#FFFF44" points="340,402.4316,344,406.4316,340,410.4316,336,406.4316" style="stroke:#B38D22;stroke-width:1.0;"/><text fill="#000000" font-family="sans-serif" font-size="14" lengthAdjust="spacing" textLength="72.3652" x="349" y="411.7285">login(): void</text><polygon fill="#FFFF44" points="340,421.0527,344,425.0527,340,429.0527,336,425.0527" style="stroke:#B38D22;stroke-width:1.0;"/><text fill="#000000" font-family="sans-serif" font-size="14" lengthAdjust="spacing" textLength="116.7168" x="349" y="430.3496">tokenCheck(): void</text><polygon fill="#FFFF44" points="340,439.6738,344,443.6738,340,447.6738,336,443.6738" style="stroke:#B38D22;stroke-width:1.0;"/><text fill="#000000" font-family="sans-serif" font-size="14" lengthAdjust="spacing" textLength="100.3584" x="349" y="448.9707">APICall(): String</text></g><!--class RestaurantPort--><g id="elem_RestaurantPort"><rect codeLine="22" fill="#F1F1F1" height="66.6211" id="RestaurantPort" rx="2.5" ry="2.5" style="stroke:#181818;stroke-width:0.5;" width="244.668" x="32" y="361.5"/><ellipse cx="103.0049" cy="377.5" fill="#B4A7E5" rx="11" ry="11" style="stroke:#181818;stroke-width:1.0;"/><path d="M103.958,374.1406 L103.958,380.7969 L105.6768,380.7969 Q106.2861,380.7969 106.5518,381.0313 Q106.8174,381.2656 106.8174,381.6563 Q106.8174,382.0313 106.5518,382.2656 Q106.2861,382.5 105.6768,382.5 L100.5361,382.5 Q99.9268,382.5 99.6611,382.2656 Q99.3955,382.0313 99.3955,381.6406 Q99.3955,381.2656 99.6611,381.0313 Q99.9268,380.7969 100.5361,380.7969 L102.2549,380.7969 L102.2549,374.1406 L100.5361,374.1406 Q99.9268,374.1406 99.6611,373.9063 Q99.3955,373.6719 99.3955,373.2813 Q99.3955,372.9063 99.6611,372.6719 Q99.9268,372.4375 100.5361,372.4375 L105.6768,372.4375 Q106.2861,372.4375 106.5518,372.6719 Q106.8174,372.9063 106.8174,373.2813 Q106.8174,373.6719 106.5518,373.9063 Q106.2861,374.1406 105.6768,374.1406 L103.958,374.1406 Z " fill="#000000"/><text fill="#000000" font-family="sans-serif" font-size="14" font-style="italic" lengthAdjust="spacing" textLength="94.1582" x="123.5049" y="383.2969">RestaurantPort</text><line style="stroke:#181818;stroke-width:0.5;" x1="33" x2="275.668" y1="393.5" y2="393.5"/><line style="stroke:#181818;stroke-width:0.5;" x1="33" x2="275.668" y1="401.5" y2="401.5"/><ellipse cx="43" cy="416.3105" fill="#84BE84" rx="3" ry="3" style="stroke:#038048;stroke-width:1.0;"/><text fill="#000000" font-family="sans-serif" font-size="14" lengthAdjust="spacing" textLength="218.668" x="52" y="420.6074">getRestaurants(): List&lt;Restaurant&gt;</text></g><!--class UberEatsScraperAdapter--><g id="elem_UberEatsScraperAdapter"><rect codeLine="26" fill="#F1F1F1" height="66.6211" id="UberEatsScraperAdapter" rx="2.5" ry="2.5" style="stroke:#181818;stroke-width:0.5;" width="244.668" x="294" y="198"/><ellipse cx="334.3147" cy="214" fill="#ADD1B2" rx="11" ry="11" style="stroke:#181818;stroke-width:1.0;"/><path d="M337.0803,209.875 Q337.2366,209.6563 337.4241,209.5469 Q337.6116,209.4375 337.8303,209.4375 Q338.2053,209.4375 338.4397,209.7031 Q338.6741,209.9531 338.6741,210.5625 L338.6741,212.0156 Q338.6741,212.625 338.4397,212.8906 Q338.2053,213.1563 337.8303,213.1563 Q337.4866,213.1563 337.2834,212.9531 Q337.0803,212.7656 336.9709,212.25 Q336.9241,211.8906 336.7366,211.7031 Q336.4084,211.3281 335.7991,211.1094 Q335.1897,210.8906 334.5647,210.8906 Q333.7991,210.8906 333.1584,211.2188 Q332.5334,211.5469 332.0334,212.2969 Q331.5491,213.0469 331.5491,214.0781 L331.5491,215.1719 Q331.5491,216.4063 332.4397,217.2344 Q333.3303,218.0469 334.9241,218.0469 Q335.8616,218.0469 336.5178,217.7969 Q336.9084,217.6406 337.3303,217.2031 Q337.5959,216.9375 337.7366,216.8594 Q337.8928,216.7813 338.0959,216.7813 Q338.4241,216.7813 338.6741,217.0469 Q338.9397,217.2969 338.9397,217.6406 Q338.9397,217.9844 338.5959,218.3906 Q338.0959,218.9688 337.2991,219.2969 Q336.2209,219.75 334.9241,219.75 Q333.4084,219.75 332.2053,219.125 Q331.2209,218.625 330.5334,217.5625 Q329.8459,216.4844 329.8459,215.2031 L329.8459,214.0469 Q329.8459,212.7188 330.4553,211.5781 Q331.0803,210.4219 332.1741,209.8125 Q333.2678,209.1875 334.5022,209.1875 Q335.2366,209.1875 335.8772,209.3594 Q336.5334,209.5156 337.0803,209.875 Z " fill="#000000"/><text fill="#000000" font-family="sans-serif" font-size="14" lengthAdjust="spacing" textLength="156.4131" x="353.9402" y="219.7969">UberEatsScraperAdapter</text><line style="stroke:#181818;stroke-width:0.5;" x1="295" x2="537.668" y1="230" y2="230"/><line style="stroke:#181818;stroke-width:0.5;" x1="295" x2="537.668" y1="238" y2="238"/><ellipse cx="305" cy="252.8105" fill="#84BE84" rx="3" ry="3" style="stroke:#038048;stroke-width:1.0;"/><text fill="#000000" font-family="sans-serif" font-size="14" lengthAdjust="spacing" textLength="218.668" x="314" y="257.1074">getRestaurants(): List&lt;Restaurant&gt;</text></g><!--class Restaurant--><g id="elem_Restaurant"><rect codeLine="30" fill="#F1F1F1" height="122.4844" id="Restaurant" rx="2.5" ry="2.5" style="stroke:#181818;stroke-width:0.5;" width="168.4268" x="301.5" y="7"/><ellipse cx="347.2222" cy="23" fill="#ADD1B2" rx="11" ry="11" style="stroke:#181818;stroke-width:1.0;"/><path d="M349.9878,18.875 Q350.144,18.6563 350.3315,18.5469 Q350.519,18.4375 350.7378,18.4375 Q351.1128,18.4375 351.3472,18.7031 Q351.5815,18.9531 351.5815,19.5625 L351.5815,21.0156 Q351.5815,21.625 351.3472,21.8906 Q351.1128,22.1563 350.7378,22.1563 Q350.394,22.1563 350.1909,21.9531 Q349.9878,21.7656 349.8784,21.25 Q349.8315,20.8906 349.644,20.7031 Q349.3159,20.3281 348.7065,20.1094 Q348.0972,19.8906 347.4722,19.8906 Q346.7065,19.8906 346.0659,20.2188 Q345.4409,20.5469 344.9409,21.2969 Q344.4565,22.0469 344.4565,23.0781 L344.4565,24.1719 Q344.4565,25.4063 345.3472,26.2344 Q346.2378,27.0469 347.8315,27.0469 Q348.769,27.0469 349.4253,26.7969 Q349.8159,26.6406 350.2378,26.2031 Q350.5034,25.9375 350.644,25.8594 Q350.8003,25.7813 351.0034,25.7813 Q351.3315,25.7813 351.5815,26.0469 Q351.8472,26.2969 351.8472,26.6406 Q351.8472,26.9844 351.5034,27.3906 Q351.0034,27.9688 350.2065,28.2969 Q349.1284,28.75 347.8315,28.75 Q346.3159,28.75 345.1128,28.125 Q344.1284,27.625 343.4409,26.5625 Q342.7534,25.4844 342.7534,24.2031 L342.7534,23.0469 Q342.7534,21.7188 343.3628,20.5781 Q343.9878,19.4219 345.0815,18.8125 Q346.1753,18.1875 347.4097,18.1875 Q348.144,18.1875 348.7847,18.3594 Q349.4409,18.5156 349.9878,18.875 Z " fill="#000000"/><text fill="#000000" font-family="sans-serif" font-size="14" lengthAdjust="spacing" textLength="68.4824" x="367.7222" y="28.7969">Restaurant</text><line style="stroke:#181818;stroke-width:0.5;" x1="302.5" x2="468.9268" y1="39" y2="39"/><rect fill="none" height="6" style="stroke:#C82930;stroke-width:1.0;" width="6" x="309.5" y="50.8105"/><text fill="#000000" font-family="sans-serif" font-size="14" lengthAdjust="spacing" textLength="79.3721" x="321.5" y="58.1074">name: String</text><rect fill="none" height="6" style="stroke:#C82930;stroke-width:1.0;" width="6" x="309.5" y="69.4316"/><text fill="#000000" font-family="sans-serif" font-size="14" lengthAdjust="spacing" textLength="108.9648" x="321.5" y="76.7285">location: Location</text><line style="stroke:#181818;stroke-width:0.5;" x1="302.5" x2="468.9268" y1="84.2422" y2="84.2422"/><ellipse cx="312.5" cy="99.0527" fill="#84BE84" rx="3" ry="3" style="stroke:#038048;stroke-width:1.0;"/><text fill="#000000" font-family="sans-serif" font-size="14" lengthAdjust="spacing" textLength="110.4824" x="321.5" y="103.3496">getName(): String</text><ellipse cx="312.5" cy="117.6738" fill="#84BE84" rx="3" ry="3" style="stroke:#038048;stroke-width:1.0;"/><text fill="#000000" font-family="sans-serif" font-size="14" lengthAdjust="spacing" textLength="142.4268" x="321.5" y="121.9707">getLocation(): Location</text></g><!--link RestaurantController to RestaurantService--><g id="link_RestaurantController_RestaurantService"><path codeLine="37" d="M136.5,110.59 C136.5,134.61 136.5,158.73 136.5,182.77 " fill="none" id="RestaurantController-to-RestaurantService" style="stroke:#181818;stroke-width:1.0;"/><polygon fill="#181818" points="136.5,188.77,140.5,179.77,136.5,183.77,132.5,179.77,136.5,188.77" style="stroke:#181818;stroke-width:1.0;"/></g><!--link RestaurantService to RestaurantPort--><g id="link_RestaurantService_RestaurantPort"><path codeLine="38" d="M141.14,274.09 C144.17,301.29 147.4066,330.3368 150.2066,355.5068 " fill="none" id="RestaurantService-to-RestaurantPort" style="stroke:#181818;stroke-width:1.0;"/><polygon fill="#181818" points="150.87,361.47,153.8504,352.0829,150.3172,356.5007,145.8995,352.9674,150.87,361.47" style="stroke:#181818;stroke-width:1.0;"/></g><!--link UberEatsScraperAdapter to RestaurantPort--><g id="link_UberEatsScraperAdapter_RestaurantPort"><path codeLine="39" d="M363.48,265.18 C318.02,293.2 268.1919,323.9133 222.7619,351.9233 " fill="none" id="UberEatsScraperAdapter-to-RestaurantPort" style="stroke:#181818;stroke-width:1.0;stroke-dasharray:7.0,7.0;"/><polygon fill="none" points="207.44,361.37,225.9108,357.0306,219.6129,346.816,207.44,361.37" style="stroke:#181818;stroke-width:1.0;"/></g><!--link UberEatsScraperAdapter to APICaller--><g id="link_UberEatsScraperAdapter_APICaller"><path codeLine="40" d="M416.5,265.18 C416.5,284.91 416.5,292.65 416.5,315.93 " fill="none" id="UberEatsScraperAdapter-to-APICaller" style="stroke:#181818;stroke-width:1.0;"/><polygon fill="none" points="416.5,333.93,422.5,315.93,410.5,315.93,416.5,333.93" style="stroke:#181818;stroke-width:1.0;"/></g><!--SRC=[dL91QiCm4Bph5O8UsX9atqq91DD3ePHGqmTivAqZ8ajcjGw5jd-luZYEKwUGvgOTZMPsTdMxPcv2bgQD1STjRHFjwrHR246L1Yg2MeYkbAyO65gAjDmx9cyjalmKIj9mKI1jZSPinEqX8MQoGZxYuUu-ayycyCCHcullgLalyCjfwOd7DhlwSWzO1IRGBFTcY-LJ3dsScSGFr2rZ3-ua2YRZAd4ZhQ-Cso5RRyfOiz-WozUeDoDm-Z0w6iT8xn1pdFRSEVvdC6yhf4VWK6Y21cbHGiDzuzVDjnkiWng7TbNCgO6DTr6XF-tbNo9jbAl33epExy2EFcU_YrBpCtzZkknJNhVSFu8doTUbLAKYTTYr43y0]--></g></svg>