<svg xmlns="http://www.w3.org/2000/svg" xmlns:xlink="http://www.w3.org/1999/xlink" contentStyleType="text/css" height="757px" preserveAspectRatio="none" style="width:1031px;height:757px;background:#FFFFFF;" version="1.1" viewBox="0 0 1031 757" width="1031px" zoomAndPan="magnify"><defs/><g><rect fill="none" height="63.582" style="stroke:#000000;stroke-width:1.5;" width="190.4131" x="604.1875" y="307.9492"/><line style="stroke:#181818;stroke-width:0.5;stroke-dasharray:5.0,5.0;" x1="33" x2="33" y1="83.6211" y2="674.1504"/><line style="stroke:#181818;stroke-width:0.5;stroke-dasharray:5.0,5.0;" x1="256.9277" x2="256.9277" y1="83.6211" y2="674.1504"/><line style="stroke:#181818;stroke-width:0.5;stroke-dasharray:5.0,5.0;" x1="480.769" x2="480.769" y1="83.6211" y2="674.1504"/><line style="stroke:#181818;stroke-width:0.5;stroke-dasharray:5.0,5.0;" x1="699.1875" x2="699.1875" y1="83.6211" y2="674.1504"/><line style="stroke:#181818;stroke-width:0.5;stroke-dasharray:5.0,5.0;" x1="947.1152" x2="947.1152" y1="83.6211" y2="674.1504"/><text fill="#000000" font-family="sans-serif" font-size="14" lengthAdjust="spacing" textLength="51.3516" x="5" y="80.1074">Reiziger</text><ellipse cx="33.6758" cy="13.5" fill="#E2E2F0" rx="8" ry="8" style="stroke:#181818;stroke-width:0.5;"/><path d="M33.6758,21.5 L33.6758,48.5 M20.6758,29.5 L46.6758,29.5 M33.6758,48.5 L20.6758,63.5 M33.6758,48.5 L46.6758,63.5 " fill="none" style="stroke:#181818;stroke-width:0.5;"/><text fill="#000000" font-family="sans-serif" font-size="14" lengthAdjust="spacing" textLength="51.3516" x="5" y="688.2578">Reiziger</text><ellipse cx="33.6758" cy="700.2715" fill="#E2E2F0" rx="8" ry="8" style="stroke:#181818;stroke-width:0.5;"/><path d="M33.6758,708.2715 L33.6758,735.2715 M20.6758,716.2715 L46.6758,716.2715 M33.6758,735.2715 L20.6758,750.2715 M33.6758,735.2715 L46.6758,750.2715 " fill="none" style="stroke:#181818;stroke-width:0.5;"/><rect fill="#E2E2F0" height="32.6211" rx="2.5" ry="2.5" style="stroke:#181818;stroke-width:0.5;" width="143.1719" x="185.9277" y="50"/><text fill="#000000" font-family="sans-serif" font-size="14" lengthAdjust="spacing" textLength="129.1719" x="192.9277" y="72.1074">RestaurantController</text><rect fill="#E2E2F0" height="32.6211" rx="2.5" ry="2.5" style="stroke:#181818;stroke-width:0.5;" width="143.1719" x="185.9277" y="673.1504"/><text fill="#000000" font-family="sans-serif" font-size="14" lengthAdjust="spacing" textLength="129.1719" x="192.9277" y="695.2578">RestaurantController</text><rect fill="#E2E2F0" height="32.6211" rx="2.5" ry="2.5" style="stroke:#181818;stroke-width:0.5;" width="129.165" x="416.769" y="50"/><text fill="#000000" font-family="sans-serif" font-size="14" lengthAdjust="spacing" textLength="115.165" x="423.769" y="72.1074">RestaurantService</text><rect fill="#E2E2F0" height="32.6211" rx="2.5" ry="2.5" style="stroke:#181818;stroke-width:0.5;" width="129.165" x="416.769" y="673.1504"/><text fill="#000000" font-family="sans-serif" font-size="14" lengthAdjust="spacing" textLength="115.165" x="423.769" y="695.2578">RestaurantService</text><rect fill="#E2E2F0" height="32.6211" rx="2.5" ry="2.5" style="stroke:#181818;stroke-width:0.5;" width="170.4131" x="614.1875" y="50"/><text fill="#000000" font-family="sans-serif" font-size="14" lengthAdjust="spacing" textLength="156.4131" x="621.1875" y="72.1074">UberEatsScraperAdapter</text><rect fill="#E2E2F0" height="32.6211" rx="2.5" ry="2.5" style="stroke:#181818;stroke-width:0.5;" width="170.4131" x="614.1875" y="673.1504"/><text fill="#000000" font-family="sans-serif" font-size="14" lengthAdjust="spacing" textLength="156.4131" x="621.1875" y="695.2578">UberEatsScraperAdapter</text><rect fill="#E2E2F0" height="32.6211" rx="2.5" ry="2.5" style="stroke:#181818;stroke-width:0.5;" width="155.6133" x="870.1152" y="50"/><text fill="#000000" font-family="sans-serif" font-size="14" lengthAdjust="spacing" textLength="141.6133" x="877.1152" y="72.1074">Uber Eats Scraper API</text><rect fill="#E2E2F0" height="32.6211" rx="2.5" ry="2.5" style="stroke:#181818;stroke-width:0.5;" width="155.6133" x="870.1152" y="673.1504"/><text fill="#000000" font-family="sans-serif" font-size="14" lengthAdjust="spacing" textLength="141.6133" x="877.1152" y="695.2578">Uber Eats Scraper API</text><polygon fill="#181818" points="245.5137,182.0762,255.5137,186.0762,245.5137,190.0762,249.5137,186.0762" style="stroke:#181818;stroke-width:1.0;"/><line style="stroke:#181818;stroke-width:1.0;" x1="33.6758" x2="251.5137" y1="186.0762" y2="186.0762"/><text fill="#000000" font-family="sans-serif" font-size="13" font-weight="bold" lengthAdjust="spacing" textLength="7.23" x="40.6758" y="146.2314">1</text><text fill="#000000" font-family="sans-serif" font-size="13" lengthAdjust="spacing" textLength="107.6499" x="51.9058" y="111.6494">POST /restaurants</text><text fill="#000000" font-family="sans-serif" font-size="13" lengthAdjust="spacing" textLength="4.3418" x="51.9058" y="128.9404">{</text><text fill="#000000" font-family="sans-serif" font-size="13" lengthAdjust="spacing" textLength="89.9907" x="62.7412" y="146.2314">"query": "Pizza"</text><text fill="#000000" font-family="sans-serif" font-size="13" lengthAdjust="spacing" textLength="138.3916" x="62.7412" y="163.5225">"address": "Amsterdam"</text><text fill="#000000" font-family="sans-serif" font-size="13" lengthAdjust="spacing" textLength="4.3418" x="51.9058" y="180.8135">}</text><polygon fill="#181818" points="469.3516,213.3672,479.3516,217.3672,469.3516,221.3672,473.3516,217.3672" style="stroke:#181818;stroke-width:1.0;"/><line style="stroke:#181818;stroke-width:1.0;" x1="257.5137" x2="475.3516" y1="217.3672" y2="217.3672"/><text fill="#000000" font-family="sans-serif" font-size="13" font-weight="bold" lengthAdjust="spacing" textLength="7.23" x="264.5137" y="212.1045">2</text><text fill="#000000" font-family="sans-serif" font-size="13" lengthAdjust="spacing" textLength="182.8125" x="275.7437" y="212.1045">getRestaurants(query, address)</text><polygon fill="#181818" points="687.394,244.6582,697.394,248.6582,687.394,252.6582,691.394,248.6582" style="stroke:#181818;stroke-width:1.0;"/><line style="stroke:#181818;stroke-width:1.0;" x1="481.3516" x2="693.394" y1="248.6582" y2="248.6582"/><text fill="#000000" font-family="sans-serif" font-size="13" font-weight="bold" lengthAdjust="spacing" textLength="7.23" x="488.3516" y="243.3955">3</text><text fill="#000000" font-family="sans-serif" font-size="13" lengthAdjust="spacing" textLength="182.8125" x="499.5815" y="243.3955">getRestaurants(query, address)</text><line style="stroke:#181818;stroke-width:1.0;" x1="699.394" x2="741.394" y1="279.9492" y2="279.9492"/><line style="stroke:#181818;stroke-width:1.0;" x1="741.394" x2="741.394" y1="279.9492" y2="292.9492"/><line style="stroke:#181818;stroke-width:1.0;" x1="700.394" x2="741.394" y1="292.9492" y2="292.9492"/><polygon fill="#181818" points="710.394,288.9492,700.394,292.9492,710.394,296.9492,706.394,292.9492" style="stroke:#181818;stroke-width:1.0;"/><text fill="#000000" font-family="sans-serif" font-size="13" font-weight="bold" lengthAdjust="spacing" textLength="7.23" x="706.394" y="274.6865">4</text><text fill="#000000" font-family="sans-serif" font-size="13" lengthAdjust="spacing" textLength="163.2871" x="717.624" y="274.6865">executeAPICall(parameters)</text><path d="M604.1875,307.9492 L669.3984,307.9492 L669.3984,317.2402 L659.3984,327.2402 L604.1875,327.2402 L604.1875,307.9492 " fill="#EEEEEE" style="stroke:#000000;stroke-width:1.5;"/><rect fill="none" height="63.582" style="stroke:#000000;stroke-width:1.5;" width="190.4131" x="604.1875" y="307.9492"/><text fill="#000000" font-family="sans-serif" font-size="13" font-weight="bold" lengthAdjust="spacing" textLength="20.2109" x="619.1875" y="322.9775">opt</text><text fill="#000000" font-family="sans-serif" font-size="11" font-weight="bold" lengthAdjust="spacing" textLength="75.1738" x="684.3984" y="321.8193">[token == null]</text><line style="stroke:#181818;stroke-width:1.0;" x1="699.394" x2="741.394" y1="350.5313" y2="350.5313"/><line style="stroke:#181818;stroke-width:1.0;" x1="741.394" x2="741.394" y1="350.5313" y2="363.5313"/><line style="stroke:#181818;stroke-width:1.0;" x1="700.394" x2="741.394" y1="363.5313" y2="363.5313"/><polygon fill="#181818" points="710.394,359.5313,700.394,363.5313,710.394,367.5313,706.394,363.5313" style="stroke:#181818;stroke-width:1.0;"/><text fill="#000000" font-family="sans-serif" font-size="13" font-weight="bold" lengthAdjust="spacing" textLength="7.23" x="706.394" y="345.2686">5</text><text fill="#000000" font-family="sans-serif" font-size="13" lengthAdjust="spacing" textLength="36.1245" x="717.624" y="345.2686">login()</text><path d="M510,383.5313 L510,444.5313 L693,444.5313 L693,393.5313 L683,383.5313 L510,383.5313 " fill="#FEFFDD" style="stroke:#181818;stroke-width:0.5;"/><path d="M683,383.5313 L683,393.5313 L693,393.5313 L683,383.5313 " fill="#FEFFDD" style="stroke:#181818;stroke-width:0.5;"/><text fill="#000000" font-family="sans-serif" font-size="13" lengthAdjust="spacing" textLength="162.5762" x="516" y="402.5596">De logica van login() is in dit</text><text fill="#000000" font-family="sans-serif" font-size="13" lengthAdjust="spacing" textLength="104.0762" x="516" y="419.8506">prototype nog niet</text><text fill="#000000" font-family="sans-serif" font-size="13" lengthAdjust="spacing" textLength="101.1689" x="516" y="437.1416">ge&#239;mplementeerd</text><line style="stroke:#181818;stroke-width:1.0;" x1="699.394" x2="741.394" y1="473.6953" y2="473.6953"/><line style="stroke:#181818;stroke-width:1.0;" x1="741.394" x2="741.394" y1="473.6953" y2="486.6953"/><line style="stroke:#181818;stroke-width:1.0;" x1="700.394" x2="741.394" y1="486.6953" y2="486.6953"/><polygon fill="#181818" points="710.394,482.6953,700.394,486.6953,710.394,490.6953,706.394,486.6953" style="stroke:#181818;stroke-width:1.0;"/><text fill="#000000" font-family="sans-serif" font-size="13" font-weight="bold" lengthAdjust="spacing" textLength="7.23" x="706.394" y="468.4326">6</text><text fill="#000000" font-family="sans-serif" font-size="13" lengthAdjust="spacing" textLength="114.8672" x="717.624" y="468.4326">callAPI(parameters)</text><polygon fill="#181818" points="935.9219,513.9863,945.9219,517.9863,935.9219,521.9863,939.9219,517.9863" style="stroke:#181818;stroke-width:1.0;"/><line style="stroke:#181818;stroke-width:1.0;" x1="699.394" x2="941.9219" y1="517.9863" y2="517.9863"/><text fill="#000000" font-family="sans-serif" font-size="13" font-weight="bold" lengthAdjust="spacing" textLength="7.23" x="706.394" y="512.7236">7</text><text fill="#000000" font-family="sans-serif" font-size="13" lengthAdjust="spacing" textLength="157.8726" x="717.624" y="512.7236">response = POST API URL</text><line style="stroke:#181818;stroke-width:1.0;" x1="699.394" x2="741.394" y1="549.2773" y2="549.2773"/><line style="stroke:#181818;stroke-width:1.0;" x1="741.394" x2="741.394" y1="549.2773" y2="562.2773"/><line style="stroke:#181818;stroke-width:1.0;" x1="700.394" x2="741.394" y1="562.2773" y2="562.2773"/><polygon fill="#181818" points="710.394,558.2773,700.394,562.2773,710.394,566.2773,706.394,562.2773" style="stroke:#181818;stroke-width:1.0;"/><text fill="#000000" font-family="sans-serif" font-size="13" font-weight="bold" lengthAdjust="spacing" textLength="7.23" x="706.394" y="544.0146">8</text><text fill="#000000" font-family="sans-serif" font-size="13" lengthAdjust="spacing" textLength="223.2979" x="717.624" y="544.0146">Parse response naar List&lt;Restaurant&gt;</text><polygon fill="#181818" points="492.3516,589.5684,482.3516,593.5684,492.3516,597.5684,488.3516,593.5684" style="stroke:#181818;stroke-width:1.0;"/><line style="stroke:#181818;stroke-width:1.0;stroke-dasharray:2.0,2.0;" x1="486.3516" x2="698.394" y1="593.5684" y2="593.5684"/><text fill="#000000" font-family="sans-serif" font-size="13" font-weight="bold" lengthAdjust="spacing" textLength="7.23" x="498.3516" y="588.3057">9</text><text fill="#000000" font-family="sans-serif" font-size="13" lengthAdjust="spacing" textLength="181.3779" x="509.5815" y="588.3057">List&lt;Restaurant&gt; restaurantList</text><polygon fill="#181818" points="268.5137,620.8594,258.5137,624.8594,268.5137,628.8594,264.5137,624.8594" style="stroke:#181818;stroke-width:1.0;"/><line style="stroke:#181818;stroke-width:1.0;stroke-dasharray:2.0,2.0;" x1="262.5137" x2="480.3516" y1="624.8594" y2="624.8594"/><text fill="#000000" font-family="sans-serif" font-size="13" font-weight="bold" lengthAdjust="spacing" textLength="14.46" x="274.5137" y="619.5967">10</text><text fill="#000000" font-family="sans-serif" font-size="13" lengthAdjust="spacing" textLength="181.3779" x="292.9736" y="619.5967">List&lt;Restaurant&gt; restaurantList</text><polygon fill="#181818" points="44.6758,652.1504,34.6758,656.1504,44.6758,660.1504,40.6758,656.1504" style="stroke:#181818;stroke-width:1.0;"/><line style="stroke:#181818;stroke-width:1.0;stroke-dasharray:2.0,2.0;" x1="38.6758" x2="256.5137" y1="656.1504" y2="656.1504"/><text fill="#000000" font-family="sans-serif" font-size="13" font-weight="bold" lengthAdjust="spacing" textLength="14.46" x="50.6758" y="650.8877">11</text><text fill="#000000" font-family="sans-serif" font-size="13" lengthAdjust="spacing" textLength="181.3779" x="69.1357" y="650.8877">List&lt;Restaurant&gt; restaurantList</text><!--SRC=[ZLB1Rjim3BthAnvyIe4DknTBWQ3ROK211ibwwuMrMKEOBAaINQmPzatxYFvOATTEd6v1Tn0WKUyzyf6aNeBlkpjEnb0j8M73TcVRyewKnDOsaXTK6yv2VTBxPV2IWdESAb36uNcAiENqQ6iUqEFz67gZwR-Iv6sTA79QDHHbL1_lV-DH21WPMAs_3V19IT_6J4xmyM9M9Swnljv-nwUqBp3Zrl_I0w1ww3azLUUerdQtesgCKjCeF9VugijQK4DT-Vjjp4nPyup-D4dBScX1NWow7p0AdHap8PKqclmFqeGy8l5FhdjXzNn9pYsqLTInVXL2Y089FzXZkOJldJDg1_-KSQ6rVd5cs3V6-20Cn_U2SByVGg5-uG5O4nx9JnpO3ElHM1amCGK9yXGPFhJmbb_3BJ__wQBZZhsmjh1aGabqmbUjRjJKiQ4PSZPiHMk7Ol2PiNoTRudURAvEQAyfANJFyKG9LpRBvqFxBsRKeyc-nU6mIULhDjgtY_SkSxvCIjvlyBlK5m00]--></g></svg>