<svg xmlns="http://www.w3.org/2000/svg" xmlns:xlink="http://www.w3.org/1999/xlink" contentStyleType="text/css" height="466px" preserveAspectRatio="none" style="width:896px;height:466px;background:#FFFFFF;" version="1.1" viewBox="0 0 896 466" width="896px" zoomAndPan="magnify"><title>Class Diagram - Triptop Backend API Flow</title><defs/><g><text fill="#000000" font-family="sans-serif" font-size="14" font-weight="bold" lengthAdjust="spacing" textLength="283.165" x="299.8789" y="25.1074">Class Diagram - Triptop Backend API Flow</text><!--class ApiClient--><g id="elem_ApiClient"><rect codeLine="3" fill="#F1F1F1" height="66.6211" id="ApiClient" rx="2.5" ry="2.5" style="stroke:#181818;stroke-width:0.5;" width="286.7158" x="7" y="247.1211"/><ellipse cx="118.0942" cy="263.1211" fill="#B4A7E5" rx="11" ry="11" style="stroke:#181818;stroke-width:1.0;"/><path d="M119.0474,259.7617 L119.0474,266.418 L120.7661,266.418 Q121.3755,266.418 121.6411,266.6523 Q121.9067,266.8867 121.9067,267.2773 Q121.9067,267.6523 121.6411,267.8867 Q121.3755,268.1211 120.7661,268.1211 L115.6255,268.1211 Q115.0161,268.1211 114.7505,267.8867 Q114.4849,267.6523 114.4849,267.2617 Q114.4849,266.8867 114.7505,266.6523 Q115.0161,266.418 115.6255,266.418 L117.3442,266.418 L117.3442,259.7617 L115.6255,259.7617 Q115.0161,259.7617 114.7505,259.5273 Q114.4849,259.293 114.4849,258.9023 Q114.4849,258.5273 114.7505,258.293 Q115.0161,258.0586 115.6255,258.0586 L120.7661,258.0586 Q121.3755,258.0586 121.6411,258.293 Q121.9067,258.5273 121.9067,258.9023 Q121.9067,259.293 121.6411,259.5273 Q121.3755,259.7617 120.7661,259.7617 L119.0474,259.7617 Z " fill="#000000"/><text fill="#000000" font-family="sans-serif" font-size="14" font-style="italic" lengthAdjust="spacing" textLength="56.0273" x="138.5942" y="268.918">ApiClient</text><line style="stroke:#181818;stroke-width:0.5;" x1="8" x2="292.7158" y1="279.1211" y2="279.1211"/><line style="stroke:#181818;stroke-width:0.5;" x1="8" x2="292.7158" y1="287.1211" y2="287.1211"/><ellipse cx="18" cy="301.9316" fill="#84BE84" rx="3" ry="3" style="stroke:#038048;stroke-width:1.0;"/><text fill="#000000" font-family="sans-serif" font-size="14" lengthAdjust="spacing" textLength="260.7158" x="27" y="306.2285">sendRequest(endpoint: String): Response</text></g><!--class ApiGateway--><g id="elem_ApiGateway"><rect codeLine="7" fill="#F1F1F1" height="66.6211" id="ApiGateway" rx="2.5" ry="2.5" style="stroke:#181818;stroke-width:0.5;" width="286.7158" x="7" y="392.6211"/><ellipse cx="108.3667" cy="408.6211" fill="#ADD1B2" rx="11" ry="11" style="stroke:#181818;stroke-width:1.0;"/><path d="M111.1323,404.4961 Q111.2886,404.2773 111.4761,404.168 Q111.6636,404.0586 111.8823,404.0586 Q112.2573,404.0586 112.4917,404.3242 Q112.7261,404.5742 112.7261,405.1836 L112.7261,406.6367 Q112.7261,407.2461 112.4917,407.5117 Q112.2573,407.7773 111.8823,407.7773 Q111.5386,407.7773 111.3354,407.5742 Q111.1323,407.3867 111.0229,406.8711 Q110.9761,406.5117 110.7886,406.3242 Q110.4604,405.9492 109.8511,405.7305 Q109.2417,405.5117 108.6167,405.5117 Q107.8511,405.5117 107.2104,405.8398 Q106.5854,406.168 106.0854,406.918 Q105.6011,407.668 105.6011,408.6992 L105.6011,409.793 Q105.6011,411.0273 106.4917,411.8555 Q107.3823,412.668 108.9761,412.668 Q109.9136,412.668 110.5698,412.418 Q110.9604,412.2617 111.3823,411.8242 Q111.6479,411.5586 111.7886,411.4805 Q111.9448,411.4023 112.1479,411.4023 Q112.4761,411.4023 112.7261,411.668 Q112.9917,411.918 112.9917,412.2617 Q112.9917,412.6055 112.6479,413.0117 Q112.1479,413.5898 111.3511,413.918 Q110.2729,414.3711 108.9761,414.3711 Q107.4604,414.3711 106.2573,413.7461 Q105.2729,413.2461 104.5854,412.1836 Q103.8979,411.1055 103.8979,409.8242 L103.8979,408.668 Q103.8979,407.3398 104.5073,406.1992 Q105.1323,405.043 106.2261,404.4336 Q107.3198,403.8086 108.5542,403.8086 Q109.2886,403.8086 109.9292,403.9805 Q110.5854,404.1367 111.1323,404.4961 Z " fill="#000000"/><text fill="#000000" font-family="sans-serif" font-size="14" lengthAdjust="spacing" textLength="75.4824" x="128.8667" y="414.418">ApiGateway</text><line style="stroke:#181818;stroke-width:0.5;" x1="8" x2="292.7158" y1="424.6211" y2="424.6211"/><line style="stroke:#181818;stroke-width:0.5;" x1="8" x2="292.7158" y1="432.6211" y2="432.6211"/><ellipse cx="18" cy="447.4316" fill="#84BE84" rx="3" ry="3" style="stroke:#038048;stroke-width:1.0;"/><text fill="#000000" font-family="sans-serif" font-size="14" lengthAdjust="spacing" textLength="260.7158" x="27" y="451.7285">sendRequest(endpoint: String): Response</text></g><!--class ValidationService--><g id="elem_ValidationService"><rect codeLine="11" fill="#F1F1F1" height="66.6211" id="ValidationService" rx="2.5" ry="2.5" style="stroke:#181818;stroke-width:0.5;" width="246.2471" x="329.5" y="247.1211"/><ellipse cx="394.2876" cy="263.1211" fill="#ADD1B2" rx="11" ry="11" style="stroke:#181818;stroke-width:1.0;"/><path d="M397.0532,258.9961 Q397.2095,258.7773 397.397,258.668 Q397.5845,258.5586 397.8032,258.5586 Q398.1782,258.5586 398.4126,258.8242 Q398.647,259.0742 398.647,259.6836 L398.647,261.1367 Q398.647,261.7461 398.4126,262.0117 Q398.1782,262.2773 397.8032,262.2773 Q397.4595,262.2773 397.2563,262.0742 Q397.0532,261.8867 396.9438,261.3711 Q396.897,261.0117 396.7095,260.8242 Q396.3813,260.4492 395.772,260.2305 Q395.1626,260.0117 394.5376,260.0117 Q393.772,260.0117 393.1313,260.3398 Q392.5063,260.668 392.0063,261.418 Q391.522,262.168 391.522,263.1992 L391.522,264.293 Q391.522,265.5273 392.4126,266.3555 Q393.3032,267.168 394.897,267.168 Q395.8345,267.168 396.4907,266.918 Q396.8813,266.7617 397.3032,266.3242 Q397.5688,266.0586 397.7095,265.9805 Q397.8657,265.9023 398.0688,265.9023 Q398.397,265.9023 398.647,266.168 Q398.9126,266.418 398.9126,266.7617 Q398.9126,267.1055 398.5688,267.5117 Q398.0688,268.0898 397.272,268.418 Q396.1938,268.8711 394.897,268.8711 Q393.3813,268.8711 392.1782,268.2461 Q391.1938,267.7461 390.5063,266.6836 Q389.8188,265.6055 389.8188,264.3242 L389.8188,263.168 Q389.8188,261.8398 390.4282,260.6992 Q391.0532,259.543 392.147,258.9336 Q393.2407,258.3086 394.4751,258.3086 Q395.2095,258.3086 395.8501,258.4805 Q396.5063,258.6367 397.0532,258.9961 Z " fill="#000000"/><text fill="#000000" font-family="sans-serif" font-size="14" lengthAdjust="spacing" textLength="108.1719" x="414.7876" y="268.918">ValidationService</text><line style="stroke:#181818;stroke-width:0.5;" x1="330.5" x2="574.7471" y1="279.1211" y2="279.1211"/><line style="stroke:#181818;stroke-width:0.5;" x1="330.5" x2="574.7471" y1="287.1211" y2="287.1211"/><ellipse cx="340.5" cy="301.9316" fill="#84BE84" rx="3" ry="3" style="stroke:#038048;stroke-width:1.0;"/><text fill="#000000" font-family="sans-serif" font-size="14" lengthAdjust="spacing" textLength="220.2471" x="349.5" y="306.2285">validateData(data: Object): boolean</text></g><!--class LoggingService--><g id="elem_LoggingService"><rect codeLine="15" fill="#F1F1F1" height="103.8633" id="LoggingService" rx="2.5" ry="2.5" style="stroke:#181818;stroke-width:0.5;" width="278.9229" x="611" y="228.6211"/><ellipse cx="697.9565" cy="244.6211" fill="#ADD1B2" rx="11" ry="11" style="stroke:#181818;stroke-width:1.0;"/><path d="M700.7222,240.4961 Q700.8784,240.2773 701.0659,240.168 Q701.2534,240.0586 701.4722,240.0586 Q701.8472,240.0586 702.0815,240.3242 Q702.3159,240.5742 702.3159,241.1836 L702.3159,242.6367 Q702.3159,243.2461 702.0815,243.5117 Q701.8472,243.7773 701.4722,243.7773 Q701.1284,243.7773 700.9253,243.5742 Q700.7222,243.3867 700.6128,242.8711 Q700.5659,242.5117 700.3784,242.3242 Q700.0503,241.9492 699.4409,241.7305 Q698.8315,241.5117 698.2065,241.5117 Q697.4409,241.5117 696.8003,241.8398 Q696.1753,242.168 695.6753,242.918 Q695.1909,243.668 695.1909,244.6992 L695.1909,245.793 Q695.1909,247.0273 696.0815,247.8555 Q696.9722,248.668 698.5659,248.668 Q699.5034,248.668 700.1597,248.418 Q700.5503,248.2617 700.9722,247.8242 Q701.2378,247.5586 701.3784,247.4805 Q701.5347,247.4023 701.7378,247.4023 Q702.0659,247.4023 702.3159,247.668 Q702.5815,247.918 702.5815,248.2617 Q702.5815,248.6055 702.2378,249.0117 Q701.7378,249.5898 700.9409,249.918 Q699.8628,250.3711 698.5659,250.3711 Q697.0503,250.3711 695.8472,249.7461 Q694.8628,249.2461 694.1753,248.1836 Q693.4878,247.1055 693.4878,245.8242 L693.4878,244.668 Q693.4878,243.3398 694.0972,242.1992 Q694.7222,241.043 695.8159,240.4336 Q696.9097,239.8086 698.144,239.8086 Q698.8784,239.8086 699.519,239.9805 Q700.1753,240.1367 700.7222,240.4961 Z " fill="#000000"/><text fill="#000000" font-family="sans-serif" font-size="14" lengthAdjust="spacing" textLength="96.5098" x="718.4565" y="250.418">LoggingService</text><line style="stroke:#181818;stroke-width:0.5;" x1="612" x2="888.9229" y1="260.6211" y2="260.6211"/><line style="stroke:#181818;stroke-width:0.5;" x1="612" x2="888.9229" y1="268.6211" y2="268.6211"/><ellipse cx="622" cy="283.4316" fill="#84BE84" rx="3" ry="3" style="stroke:#038048;stroke-width:1.0;"/><text fill="#000000" font-family="sans-serif" font-size="14" lengthAdjust="spacing" textLength="220.2334" x="631" y="287.7285">logRequest(request: Request): void</text><ellipse cx="622" cy="302.0527" fill="#84BE84" rx="3" ry="3" style="stroke:#038048;stroke-width:1.0;"/><text fill="#000000" font-family="sans-serif" font-size="14" lengthAdjust="spacing" textLength="252.9229" x="631" y="306.3496">logResponse(response: Response): void</text><ellipse cx="622" cy="320.6738" fill="#84BE84" rx="3" ry="3" style="stroke:#038048;stroke-width:1.0;"/><text fill="#000000" font-family="sans-serif" font-size="14" lengthAdjust="spacing" textLength="218.6543" x="631" y="324.9707">logApiVersion(version: String): void</text></g><!--class TriptopBackend--><g id="elem_TriptopBackend"><rect codeLine="21" fill="#F1F1F1" height="122.4844" id="TriptopBackend" rx="2.5" ry="2.5" style="stroke:#181818;stroke-width:0.5;" width="313.9297" x="295.5" y="46.6211"/><ellipse cx="399.1875" cy="62.6211" fill="#ADD1B2" rx="11" ry="11" style="stroke:#181818;stroke-width:1.0;"/><path d="M401.9531,58.4961 Q402.1094,58.2773 402.2969,58.168 Q402.4844,58.0586 402.7031,58.0586 Q403.0781,58.0586 403.3125,58.3242 Q403.5469,58.5742 403.5469,59.1836 L403.5469,60.6367 Q403.5469,61.2461 403.3125,61.5117 Q403.0781,61.7773 402.7031,61.7773 Q402.3594,61.7773 402.1563,61.5742 Q401.9531,61.3867 401.8438,60.8711 Q401.7969,60.5117 401.6094,60.3242 Q401.2813,59.9492 400.6719,59.7305 Q400.0625,59.5117 399.4375,59.5117 Q398.6719,59.5117 398.0313,59.8398 Q397.4063,60.168 396.9063,60.918 Q396.4219,61.668 396.4219,62.6992 L396.4219,63.793 Q396.4219,65.0273 397.3125,65.8555 Q398.2031,66.668 399.7969,66.668 Q400.7344,66.668 401.3906,66.418 Q401.7813,66.2617 402.2031,65.8242 Q402.4688,65.5586 402.6094,65.4805 Q402.7656,65.4023 402.9688,65.4023 Q403.2969,65.4023 403.5469,65.668 Q403.8125,65.918 403.8125,66.2617 Q403.8125,66.6055 403.4688,67.0117 Q402.9688,67.5898 402.1719,67.918 Q401.0938,68.3711 399.7969,68.3711 Q398.2813,68.3711 397.0781,67.7461 Q396.0938,67.2461 395.4063,66.1836 Q394.7188,65.1055 394.7188,63.8242 L394.7188,62.668 Q394.7188,61.3398 395.3281,60.1992 Q395.9531,59.043 397.0469,58.4336 Q398.1406,57.8086 399.375,57.8086 Q400.1094,57.8086 400.75,57.9805 Q401.4063,58.1367 401.9531,58.4961 Z " fill="#000000"/><text fill="#000000" font-family="sans-serif" font-size="14" lengthAdjust="spacing" textLength="98.0547" x="419.6875" y="68.418">TriptopBackend</text><line style="stroke:#181818;stroke-width:0.5;" x1="296.5" x2="608.4297" y1="78.6211" y2="78.6211"/><rect fill="none" height="6" style="stroke:#C82930;stroke-width:1.0;" width="6" x="303.5" y="90.4316"/><text fill="#000000" font-family="sans-serif" font-size="14" lengthAdjust="spacing" textLength="118.2822" x="315.5" y="97.7285">apiClient: ApiClient</text><rect fill="none" height="6" style="stroke:#C82930;stroke-width:1.0;" width="6" x="303.5" y="109.0527"/><text fill="#000000" font-family="sans-serif" font-size="14" lengthAdjust="spacing" textLength="221.7852" x="315.5" y="116.3496">validationService: ValidationService</text><rect fill="none" height="6" style="stroke:#C82930;stroke-width:1.0;" width="6" x="303.5" y="127.6738"/><text fill="#000000" font-family="sans-serif" font-size="14" lengthAdjust="spacing" textLength="196.123" x="315.5" y="134.9707">loggingService: LoggingService</text><line style="stroke:#181818;stroke-width:0.5;" x1="296.5" x2="608.4297" y1="142.4844" y2="142.4844"/><ellipse cx="306.5" cy="157.2949" fill="#84BE84" rx="3" ry="3" style="stroke:#038048;stroke-width:1.0;"/><text fill="#000000" font-family="sans-serif" font-size="14" lengthAdjust="spacing" textLength="287.9297" x="315.5" y="161.5918">processRequest(request: Request): Response</text></g><!--reverse link ApiClient to ApiGateway--><g id="link_ApiClient_ApiGateway"><path d="M137.7165,332.0802 C135.2365,355.4002 137.13,368.7911 139.58,392.1911 " fill="none" id="ApiClient-backto-ApiGateway" style="stroke:#181818;stroke-width:1.0;stroke-dasharray:7.0,7.0;"/><polygon fill="none" points="139.62,314.1811,131.7501,331.4457,143.6829,332.7147,139.62,314.1811" style="stroke:#181818;stroke-width:1.0;"/></g><!--reverse link ApiClient to ApiGateway--><g id="link_ApiClient_ApiGateway"><path codeLine="28" d="M164.0372,332.0677 C166.6672,355.3877 164.66,368.7911 162.06,392.1911 " fill="none" id="ApiClient-backto-ApiGateway-1" style="stroke:#181818;stroke-width:1.0;stroke-dasharray:7.0,7.0;"/><polygon fill="none" points="162.02,314.1811,158.075,332.7401,169.9994,331.3953,162.02,314.1811" style="stroke:#181818;stroke-width:1.0;"/></g><!--reverse link TriptopBackend to ApiClient--><g id="link_TriptopBackend_ApiClient"><path codeLine="29" d="M336.0078,174.5839 C289.4378,200.9539 247.04,224.9611 207.97,247.0811 " fill="none" id="TriptopBackend-backto-ApiClient" style="stroke:#181818;stroke-width:1.0;"/><polygon fill="#181818" points="346.45,168.6711,339.258,168.1468,336.0078,174.5839,343.1999,175.1082,346.45,168.6711" style="stroke:#181818;stroke-width:1.0;"/></g><!--reverse link TriptopBackend to ValidationService--><g id="link_TriptopBackend_ValidationService"><path codeLine="30" d="M452.5,180.9111 C452.5,207.0611 452.5,224.6711 452.5,246.6911 " fill="none" id="TriptopBackend-backto-ValidationService" style="stroke:#181818;stroke-width:1.0;"/><polygon fill="#181818" points="452.5,168.9111,448.5,174.9111,452.5,180.9111,456.5,174.9111,452.5,168.9111" style="stroke:#181818;stroke-width:1.0;"/></g><!--reverse link TriptopBackend to LoggingService--><g id="link_TriptopBackend_LoggingService"><path codeLine="31" d="M567.5493,174.6415 C601.5993,194.1715 628.63,209.6911 661.43,228.5111 " fill="none" id="TriptopBackend-backto-LoggingService" style="stroke:#181818;stroke-width:1.0;"/><polygon fill="#181818" points="557.14,168.6711,560.3545,175.1261,567.5493,174.6415,564.3348,168.1865,557.14,168.6711" style="stroke:#181818;stroke-width:1.0;"/></g><!--SRC=[hP71JiCm38RlUGeV2wXxW8ZBs0H2GW9jQ7UlDLKWJK8IEY7WtJ5DIqixxKGkjkHVVpx_ZYfgWfN6462jiF9OGmwFNhbe7LnXyKAcXEN3BLnhUn12cKZ-2Gk2fLChhSX4-130xm82IpVq-aOXPjmwos89s-YLgSuaR2WuQmA9Bo6AzaEskC581tm7LJjDDRk5_p3UeLObHcNDbdoZcBQtQjA4rXWnumObtE-VgOZiixTM4vh1vivM5NynzT2swcbygZyCRSCkZLNbM9ZOM9cQ0NUcvSLtv0DJPqsgeoLRwIzPTw3-Feai1-oZaqEAtQYPHYBdANLI_MTjEOcXutNU5XJ2YI36PnbkUlcvM8mEBoQRdEVv2Ft8S0vzH3GX_WO0]--></g></svg>