<svg xmlns="http://www.w3.org/2000/svg" xmlns:xlink="http://www.w3.org/1999/xlink" contentStyleType="text/css" height="590px" preserveAspectRatio="none" style="width:828px;height:590px;background:#FFFFFF;" version="1.1" viewBox="0 0 828 590" width="828px" zoomAndPan="magnify"><defs/><g><!--class ApiInterface--><g id="elem_ApiInterface"><rect codeLine="1" fill="#F1F1F1" height="66.6211" id="ApiInterface" rx="2.5" ry="2.5" style="stroke:#181818;stroke-width:0.5;" width="338.0127" x="7" y="189.5"/><ellipse cx="134.4014" cy="205.5" fill="#ADD1B2" rx="11" ry="11" style="stroke:#181818;stroke-width:1.0;"/><path d="M137.167,201.375 Q137.3232,201.1563 137.5107,201.0469 Q137.6982,200.9375 137.917,200.9375 Q138.292,200.9375 138.5264,201.2031 Q138.7607,201.4531 138.7607,202.0625 L138.7607,203.5156 Q138.7607,204.125 138.5264,204.3906 Q138.292,204.6563 137.917,204.6563 Q137.5732,204.6563 137.3701,204.4531 Q137.167,204.2656 137.0576,203.75 Q137.0107,203.3906 136.8232,203.2031 Q136.4951,202.8281 135.8857,202.6094 Q135.2764,202.3906 134.6514,202.3906 Q133.8857,202.3906 133.2451,202.7188 Q132.6201,203.0469 132.1201,203.7969 Q131.6357,204.5469 131.6357,205.5781 L131.6357,206.6719 Q131.6357,207.9063 132.5264,208.7344 Q133.417,209.5469 135.0107,209.5469 Q135.9482,209.5469 136.6045,209.2969 Q136.9951,209.1406 137.417,208.7031 Q137.6826,208.4375 137.8232,208.3594 Q137.9795,208.2813 138.1826,208.2813 Q138.5107,208.2813 138.7607,208.5469 Q139.0264,208.7969 139.0264,209.1406 Q139.0264,209.4844 138.6826,209.8906 Q138.1826,210.4688 137.3857,210.7969 Q136.3076,211.25 135.0107,211.25 Q133.4951,211.25 132.292,210.625 Q131.3076,210.125 130.6201,209.0625 Q129.9326,207.9844 129.9326,206.7031 L129.9326,205.5469 Q129.9326,204.2188 130.542,203.0781 Q131.167,201.9219 132.2607,201.3125 Q133.3545,200.6875 134.5889,200.6875 Q135.3232,200.6875 135.9639,200.8594 Q136.6201,201.0156 137.167,201.375 Z " fill="#000000"/><text fill="#000000" font-family="sans-serif" font-size="14" lengthAdjust="spacing" textLength="74.71" x="154.9014" y="211.2969">ApiInterface</text><line style="stroke:#181818;stroke-width:0.5;" x1="8" x2="344.0127" y1="221.5" y2="221.5"/><line style="stroke:#181818;stroke-width:0.5;" x1="8" x2="344.0127" y1="229.5" y2="229.5"/><ellipse cx="18" cy="244.3105" fill="#84BE84" rx="3" ry="3" style="stroke:#038048;stroke-width:1.0;"/><text fill="#000000" font-family="sans-serif" font-size="14" lengthAdjust="spacing" textLength="312.0127" x="27" y="248.6074">Flight getFlights(String from, String to, String date)</text></g><!--class FlightController--><g id="elem_FlightController"><rect codeLine="5" fill="#F1F1F1" height="103.8633" id="FlightController" rx="2.5" ry="2.5" style="stroke:#181818;stroke-width:0.5;" width="545.791" x="276" y="7"/><ellipse cx="497.1836" cy="23" fill="#ADD1B2" rx="11" ry="11" style="stroke:#181818;stroke-width:1.0;"/><path d="M499.9492,18.875 Q500.1055,18.6563 500.293,18.5469 Q500.4805,18.4375 500.6992,18.4375 Q501.0742,18.4375 501.3086,18.7031 Q501.543,18.9531 501.543,19.5625 L501.543,21.0156 Q501.543,21.625 501.3086,21.8906 Q501.0742,22.1563 500.6992,22.1563 Q500.3555,22.1563 500.1523,21.9531 Q499.9492,21.7656 499.8398,21.25 Q499.793,20.8906 499.6055,20.7031 Q499.2773,20.3281 498.668,20.1094 Q498.0586,19.8906 497.4336,19.8906 Q496.668,19.8906 496.0273,20.2188 Q495.4023,20.5469 494.9023,21.2969 Q494.418,22.0469 494.418,23.0781 L494.418,24.1719 Q494.418,25.4063 495.3086,26.2344 Q496.1992,27.0469 497.793,27.0469 Q498.7305,27.0469 499.3867,26.7969 Q499.7773,26.6406 500.1992,26.2031 Q500.4648,25.9375 500.6055,25.8594 Q500.7617,25.7813 500.9648,25.7813 Q501.293,25.7813 501.543,26.0469 Q501.8086,26.2969 501.8086,26.6406 Q501.8086,26.9844 501.4648,27.3906 Q500.9648,27.9688 500.168,28.2969 Q499.0898,28.75 497.793,28.75 Q496.2773,28.75 495.0742,28.125 Q494.0898,27.625 493.4023,26.5625 Q492.7148,25.4844 492.7148,24.2031 L492.7148,23.0469 Q492.7148,21.7188 493.3242,20.5781 Q493.9492,19.4219 495.043,18.8125 Q496.1367,18.1875 497.3711,18.1875 Q498.1055,18.1875 498.7461,18.3594 Q499.4023,18.5156 499.9492,18.875 Z " fill="#000000"/><text fill="#000000" font-family="sans-serif" font-size="14" lengthAdjust="spacing" textLength="94.9238" x="517.6836" y="28.7969">FlightController</text><line style="stroke:#181818;stroke-width:0.5;" x1="277" x2="820.791" y1="39" y2="39"/><rect fill="none" height="6" style="stroke:#C82930;stroke-width:1.0;" width="6" x="284" y="50.8105"/><text fill="#000000" font-family="sans-serif" font-size="14" lengthAdjust="spacing" textLength="161.0615" x="296" y="58.1074">FlightService flightService</text><line style="stroke:#181818;stroke-width:0.5;" x1="277" x2="820.791" y1="65.6211" y2="65.6211"/><ellipse cx="287" cy="80.4316" fill="#84BE84" rx="3" ry="3" style="stroke:#038048;stroke-width:1.0;"/><text fill="#000000" font-family="sans-serif" font-size="14" lengthAdjust="spacing" textLength="265.3096" x="296" y="84.7285">FlightController(FlightService flightService)</text><ellipse cx="287" cy="99.0527" fill="#84BE84" rx="3" ry="3" style="stroke:#038048;stroke-width:1.0;"/><text fill="#000000" font-family="sans-serif" font-size="14" lengthAdjust="spacing" textLength="519.791" x="296" y="103.3496">ResponseEntity&lt;Flight&gt; getFlights(String from, String to, String date, String version)</text></g><!--class FlightService--><g id="elem_FlightService"><rect codeLine="11" fill="#F1F1F1" height="103.8633" id="FlightService" rx="2.5" ry="2.5" style="stroke:#181818;stroke-width:0.5;" width="338.0127" x="380" y="171"/><ellipse cx="504.2979" cy="187" fill="#ADD1B2" rx="11" ry="11" style="stroke:#181818;stroke-width:1.0;"/><path d="M507.0635,182.875 Q507.2197,182.6563 507.4072,182.5469 Q507.5947,182.4375 507.8135,182.4375 Q508.1885,182.4375 508.4229,182.7031 Q508.6572,182.9531 508.6572,183.5625 L508.6572,185.0156 Q508.6572,185.625 508.4229,185.8906 Q508.1885,186.1563 507.8135,186.1563 Q507.4697,186.1563 507.2666,185.9531 Q507.0635,185.7656 506.9541,185.25 Q506.9072,184.8906 506.7197,184.7031 Q506.3916,184.3281 505.7822,184.1094 Q505.1729,183.8906 504.5479,183.8906 Q503.7822,183.8906 503.1416,184.2188 Q502.5166,184.5469 502.0166,185.2969 Q501.5322,186.0469 501.5322,187.0781 L501.5322,188.1719 Q501.5322,189.4063 502.4229,190.2344 Q503.3135,191.0469 504.9072,191.0469 Q505.8447,191.0469 506.501,190.7969 Q506.8916,190.6406 507.3135,190.2031 Q507.5791,189.9375 507.7197,189.8594 Q507.876,189.7813 508.0791,189.7813 Q508.4072,189.7813 508.6572,190.0469 Q508.9229,190.2969 508.9229,190.6406 Q508.9229,190.9844 508.5791,191.3906 Q508.0791,191.9688 507.2822,192.2969 Q506.2041,192.75 504.9072,192.75 Q503.3916,192.75 502.1885,192.125 Q501.2041,191.625 500.5166,190.5625 Q499.8291,189.4844 499.8291,188.2031 L499.8291,187.0469 Q499.8291,185.7188 500.4385,184.5781 Q501.0635,183.4219 502.1572,182.8125 Q503.251,182.1875 504.4854,182.1875 Q505.2197,182.1875 505.8604,182.3594 Q506.5166,182.5156 507.0635,182.875 Z " fill="#000000"/><text fill="#000000" font-family="sans-serif" font-size="14" lengthAdjust="spacing" textLength="80.917" x="524.7979" y="192.7969">FlightService</text><line style="stroke:#181818;stroke-width:0.5;" x1="381" x2="717.0127" y1="203" y2="203"/><rect fill="none" height="6" style="stroke:#C82930;stroke-width:1.0;" width="6" x="388" y="214.8105"/><text fill="#000000" font-family="sans-serif" font-size="14" lengthAdjust="spacing" textLength="133.0752" x="400" y="222.1074">ApiState currentState</text><line style="stroke:#181818;stroke-width:0.5;" x1="381" x2="717.0127" y1="229.6211" y2="229.6211"/><ellipse cx="391" cy="244.4316" fill="#84BE84" rx="3" ry="3" style="stroke:#038048;stroke-width:1.0;"/><text fill="#000000" font-family="sans-serif" font-size="14" lengthAdjust="spacing" textLength="182.8613" x="400" y="248.7285">FlightService(ApiState apiV1)</text><ellipse cx="391" cy="263.0527" fill="#84BE84" rx="3" ry="3" style="stroke:#038048;stroke-width:1.0;"/><text fill="#000000" font-family="sans-serif" font-size="14" lengthAdjust="spacing" textLength="312.0127" x="400" y="267.3496">Flight getFlights(String from, String to, String date)</text></g><!--class ApiState--><g id="elem_ApiState"><rect codeLine="17" fill="#F1F1F1" height="85.2422" id="ApiState" rx="2.5" ry="2.5" style="stroke:#181818;stroke-width:0.5;" width="338.0127" x="193" y="335"/><ellipse cx="331.2944" cy="351" fill="#B4A7E5" rx="11" ry="11" style="stroke:#181818;stroke-width:1.0;"/><path d="M332.2476,347.6406 L332.2476,354.2969 L333.9663,354.2969 Q334.5757,354.2969 334.8413,354.5313 Q335.1069,354.7656 335.1069,355.1563 Q335.1069,355.5313 334.8413,355.7656 Q334.5757,356 333.9663,356 L328.8257,356 Q328.2163,356 327.9507,355.7656 Q327.6851,355.5313 327.6851,355.1406 Q327.6851,354.7656 327.9507,354.5313 Q328.2163,354.2969 328.8257,354.2969 L330.5444,354.2969 L330.5444,347.6406 L328.8257,347.6406 Q328.2163,347.6406 327.9507,347.4063 Q327.6851,347.1719 327.6851,346.7813 Q327.6851,346.4063 327.9507,346.1719 Q328.2163,345.9375 328.8257,345.9375 L333.9663,345.9375 Q334.5757,345.9375 334.8413,346.1719 Q335.1069,346.4063 335.1069,346.7813 Q335.1069,347.1719 334.8413,347.4063 Q334.5757,347.6406 333.9663,347.6406 L332.2476,347.6406 Z " fill="#000000"/><text fill="#000000" font-family="sans-serif" font-size="14" font-style="italic" lengthAdjust="spacing" textLength="52.9238" x="351.7944" y="356.7969">ApiState</text><line style="stroke:#181818;stroke-width:0.5;" x1="194" x2="530.0127" y1="367" y2="367"/><line style="stroke:#181818;stroke-width:0.5;" x1="194" x2="530.0127" y1="375" y2="375"/><ellipse cx="204" cy="389.8105" fill="#84BE84" rx="3" ry="3" style="stroke:#038048;stroke-width:1.0;"/><text fill="#000000" font-family="sans-serif" font-size="14" lengthAdjust="spacing" textLength="312.0127" x="213" y="394.1074">Flight getFlights(String from, String to, String date)</text><ellipse cx="204" cy="408.4316" fill="#84BE84" rx="3" ry="3" style="stroke:#038048;stroke-width:1.0;"/><text fill="#000000" font-family="sans-serif" font-size="14" lengthAdjust="spacing" textLength="235.0127" x="213" y="412.7285">void setNextState(ApiState nextState)</text></g><!--class ApiV1--><g id="elem_ApiV1"><rect codeLine="22" fill="#F1F1F1" height="103.8633" id="ApiV1" rx="2.5" ry="2.5" style="stroke:#181818;stroke-width:0.5;" width="338.0127" x="7" y="480"/><ellipse cx="153.0771" cy="496" fill="#ADD1B2" rx="11" ry="11" style="stroke:#181818;stroke-width:1.0;"/><path d="M155.8428,491.875 Q155.999,491.6563 156.1865,491.5469 Q156.374,491.4375 156.5928,491.4375 Q156.9678,491.4375 157.2021,491.7031 Q157.4365,491.9531 157.4365,492.5625 L157.4365,494.0156 Q157.4365,494.625 157.2021,494.8906 Q156.9678,495.1563 156.5928,495.1563 Q156.249,495.1563 156.0459,494.9531 Q155.8428,494.7656 155.7334,494.25 Q155.6865,493.8906 155.499,493.7031 Q155.1709,493.3281 154.5615,493.1094 Q153.9521,492.8906 153.3271,492.8906 Q152.5615,492.8906 151.9209,493.2188 Q151.2959,493.5469 150.7959,494.2969 Q150.3115,495.0469 150.3115,496.0781 L150.3115,497.1719 Q150.3115,498.4063 151.2021,499.2344 Q152.0928,500.0469 153.6865,500.0469 Q154.624,500.0469 155.2803,499.7969 Q155.6709,499.6406 156.0928,499.2031 Q156.3584,498.9375 156.499,498.8594 Q156.6553,498.7813 156.8584,498.7813 Q157.1865,498.7813 157.4365,499.0469 Q157.7021,499.2969 157.7021,499.6406 Q157.7021,499.9844 157.3584,500.3906 Q156.8584,500.9688 156.0615,501.2969 Q154.9834,501.75 153.6865,501.75 Q152.1709,501.75 150.9678,501.125 Q149.9834,500.625 149.2959,499.5625 Q148.6084,498.4844 148.6084,497.2031 L148.6084,496.0469 Q148.6084,494.7188 149.2178,493.5781 Q149.8428,492.4219 150.9365,491.8125 Q152.0303,491.1875 153.2646,491.1875 Q153.999,491.1875 154.6396,491.3594 Q155.2959,491.5156 155.8428,491.875 Z " fill="#000000"/><text fill="#000000" font-family="sans-serif" font-size="14" lengthAdjust="spacing" textLength="37.3584" x="173.5771" y="501.7969">ApiV1</text><line style="stroke:#181818;stroke-width:0.5;" x1="8" x2="344.0127" y1="512" y2="512"/><rect fill="none" height="6" style="stroke:#C82930;stroke-width:1.0;" width="6" x="15" y="523.8105"/><text fill="#000000" font-family="sans-serif" font-size="14" lengthAdjust="spacing" textLength="115.9648" x="27" y="531.1074">ApiState nextState</text><line style="stroke:#181818;stroke-width:0.5;" x1="8" x2="344.0127" y1="538.6211" y2="538.6211"/><ellipse cx="18" cy="553.4316" fill="#84BE84" rx="3" ry="3" style="stroke:#038048;stroke-width:1.0;"/><text fill="#000000" font-family="sans-serif" font-size="14" lengthAdjust="spacing" textLength="312.0127" x="27" y="557.7285">Flight getFlights(String from, String to, String date)</text><ellipse cx="18" cy="572.0527" fill="#84BE84" rx="3" ry="3" style="stroke:#038048;stroke-width:1.0;"/><text fill="#000000" font-family="sans-serif" font-size="14" lengthAdjust="spacing" textLength="235.0127" x="27" y="576.3496">void setNextState(ApiState nextState)</text></g><!--class ApiV2--><g id="elem_ApiV2"><rect codeLine="28" fill="#F1F1F1" height="85.2422" id="ApiV2" rx="2.5" ry="2.5" style="stroke:#181818;stroke-width:0.5;" width="338.0127" x="380" y="489.5"/><ellipse cx="526.0771" cy="505.5" fill="#ADD1B2" rx="11" ry="11" style="stroke:#181818;stroke-width:1.0;"/><path d="M528.8428,501.375 Q528.999,501.1563 529.1865,501.0469 Q529.374,500.9375 529.5928,500.9375 Q529.9678,500.9375 530.2021,501.2031 Q530.4365,501.4531 530.4365,502.0625 L530.4365,503.5156 Q530.4365,504.125 530.2021,504.3906 Q529.9678,504.6563 529.5928,504.6563 Q529.249,504.6563 529.0459,504.4531 Q528.8428,504.2656 528.7334,503.75 Q528.6865,503.3906 528.499,503.2031 Q528.1709,502.8281 527.5615,502.6094 Q526.9521,502.3906 526.3271,502.3906 Q525.5615,502.3906 524.9209,502.7188 Q524.2959,503.0469 523.7959,503.7969 Q523.3115,504.5469 523.3115,505.5781 L523.3115,506.6719 Q523.3115,507.9063 524.2021,508.7344 Q525.0928,509.5469 526.6865,509.5469 Q527.624,509.5469 528.2803,509.2969 Q528.6709,509.1406 529.0928,508.7031 Q529.3584,508.4375 529.499,508.3594 Q529.6553,508.2813 529.8584,508.2813 Q530.1865,508.2813 530.4365,508.5469 Q530.7021,508.7969 530.7021,509.1406 Q530.7021,509.4844 530.3584,509.8906 Q529.8584,510.4688 529.0615,510.7969 Q527.9834,511.25 526.6865,511.25 Q525.1709,511.25 523.9678,510.625 Q522.9834,510.125 522.2959,509.0625 Q521.6084,507.9844 521.6084,506.7031 L521.6084,505.5469 Q521.6084,504.2188 522.2178,503.0781 Q522.8428,501.9219 523.9365,501.3125 Q525.0303,500.6875 526.2646,500.6875 Q526.999,500.6875 527.6396,500.8594 Q528.2959,501.0156 528.8428,501.375 Z " fill="#000000"/><text fill="#000000" font-family="sans-serif" font-size="14" lengthAdjust="spacing" textLength="37.3584" x="546.5771" y="511.2969">ApiV2</text><line style="stroke:#181818;stroke-width:0.5;" x1="381" x2="717.0127" y1="521.5" y2="521.5"/><line style="stroke:#181818;stroke-width:0.5;" x1="381" x2="717.0127" y1="529.5" y2="529.5"/><ellipse cx="391" cy="544.3105" fill="#84BE84" rx="3" ry="3" style="stroke:#038048;stroke-width:1.0;"/><text fill="#000000" font-family="sans-serif" font-size="14" lengthAdjust="spacing" textLength="312.0127" x="400" y="548.6074">Flight getFlights(String from, String to, String date)</text><ellipse cx="391" cy="562.9316" fill="#84BE84" rx="3" ry="3" style="stroke:#038048;stroke-width:1.0;"/><text fill="#000000" font-family="sans-serif" font-size="14" lengthAdjust="spacing" textLength="235.0127" x="400" y="567.2285">void setNextState(ApiState nextState)</text></g><!--reverse link ApiState to ApiV2--><g id="link_ApiState_ApiV2"><path codeLine="33" d="M427.0477,431.5481 C453.4277,453.0681 471.59,467.87 497.96,489.38 " fill="none" id="ApiState-backto-ApiV2" style="stroke:#181818;stroke-width:1.0;stroke-dasharray:7.0,7.0;"/><polygon fill="none" points="413.1,420.17,423.255,436.1973,430.8404,426.8989,413.1,420.17" style="stroke:#181818;stroke-width:1.0;"/></g><!--reverse link ApiState to ApiV1--><g id="link_ApiState_ApiV1"><path codeLine="34" d="M297.2501,431.5821 C274.7701,450.0121 262.04,460.45 238.37,479.86 " fill="none" id="ApiState-backto-ApiV1" style="stroke:#181818;stroke-width:1.0;stroke-dasharray:7.0,7.0;"/><polygon fill="none" points="311.17,420.17,293.4461,426.9421,301.0541,436.2221,311.17,420.17" style="stroke:#181818;stroke-width:1.0;"/></g><!--reverse link ApiInterface to ApiState--><g id="link_ApiInterface_ApiState"><path codeLine="35" d="M229.8201,268.1319 C257.6801,290.9719 281.18,310.24 311.18,334.83 " fill="none" id="ApiInterface-backto-ApiState" style="stroke:#181818;stroke-width:1.0;"/><polygon fill="none" points="215.9,256.72,226.0161,272.7719,233.6241,263.4918,215.9,256.72" style="stroke:#181818;stroke-width:1.0;"/></g><!--link FlightController to FlightService--><g id="link_FlightController_FlightService"><path codeLine="36" d="M549,111.26 C549,130.26 549,145.8 549,164.8 " fill="none" id="FlightController-to-FlightService" style="stroke:#181818;stroke-width:1.0;"/><polygon fill="#181818" points="549,170.8,553,161.8,549,165.8,545,161.8,549,170.8" style="stroke:#181818;stroke-width:1.0;"/></g><!--link FlightService to ApiState--><g id="link_FlightService_ApiState"><path codeLine="37" d="M486.21,275.2 C462.44,294.59 440.3504,312.6088 417.7804,331.0088 " fill="none" id="FlightService-to-ApiState" style="stroke:#181818;stroke-width:1.0;"/><polygon fill="#181818" points="413.13,334.8,422.6331,332.2134,417.0054,331.6406,417.5782,326.0129,413.13,334.8" style="stroke:#181818;stroke-width:1.0;"/></g><!--SRC=[nLF1QiCm3BtxAtHCw59epw5GnWgxxB30xY5LCa5c1raB6sl_lMdjE3KPWr7OV99aF_cz9xjgIsjXsz6Z5kIwh12-50nh0RkMcbU11iL5DYc4IJTGitcx0v-82U6-54pLKQdgqjIXxeqMDcsBx1jdVgD0xccuhhxEegidQF839FMOPxITqHOVj91yvWwn-INzaFJ8beoUoHafZ5e6vmePW52zCwEMInAfy8Wad2mxUbcbDvjCOM2XyusJS-3Uq1uioXD-E3KJSpsMhcpPdjNCxGX7_udI-e_D2ENyi5mw1j_KLYhwQVaXconJi_-IPPlu3Qdu3PxtH_G9]--></g></svg>