<svg xmlns="http://www.w3.org/2000/svg" xmlns:xlink="http://www.w3.org/1999/xlink" contentStyleType="text/css" height="666px" preserveAspectRatio="none" style="width:1270px;height:666px;background:#FFFFFF;" version="1.1" viewBox="0 0 1270 666" width="1270px" zoomAndPan="magnify"><title>Sequence Diagram - Triptop Backend</title><defs/><g><text fill="#000000" font-family="sans-serif" font-size="14" font-weight="bold" lengthAdjust="spacing" textLength="248.9443" x="512.1931" y="30.1074">Sequence Diagram - Triptop Backend</text><rect fill="none" height="175.7461" style="stroke:#000000;stroke-width:1.5;" width="836.9033" x="427.4272" y="327.9883"/><line style="stroke:#181818;stroke-width:0.5;stroke-dasharray:5.0,5.0;" x1="25" x2="25" y1="123.2422" y2="583.3164"/><line style="stroke:#181818;stroke-width:0.5;stroke-dasharray:5.0,5.0;" x1="302.7358" x2="302.7358" y1="123.2422" y2="583.3164"/><line style="stroke:#181818;stroke-width:0.5;stroke-dasharray:5.0,5.0;" x1="486.4272" x2="486.4272" y1="123.2422" y2="583.3164"/><line style="stroke:#181818;stroke-width:0.5;stroke-dasharray:5.0,5.0;" x1="652.2407" x2="652.2407" y1="123.2422" y2="583.3164"/><line style="stroke:#181818;stroke-width:0.5;stroke-dasharray:5.0,5.0;" x1="841.2446" x2="841.2446" y1="123.2422" y2="583.3164"/><line style="stroke:#181818;stroke-width:0.5;stroke-dasharray:5.0,5.0;" x1="1006.8545" x2="1006.8545" y1="123.2422" y2="583.3164"/><line style="stroke:#181818;stroke-width:0.5;stroke-dasharray:5.0,5.0;" x1="1209.6274" x2="1209.6274" y1="123.2422" y2="583.3164"/><text fill="#000000" font-family="sans-serif" font-size="14" lengthAdjust="spacing" textLength="35.793" x="5" y="119.7285">Client</text><ellipse cx="25.8965" cy="53.1211" fill="#E2E2F0" rx="8" ry="8" style="stroke:#181818;stroke-width:0.5;"/><path d="M25.8965,61.1211 L25.8965,88.1211 M12.8965,69.1211 L38.8965,69.1211 M25.8965,88.1211 L12.8965,103.1211 M25.8965,88.1211 L38.8965,103.1211 " fill="none" style="stroke:#181818;stroke-width:0.5;"/><text fill="#000000" font-family="sans-serif" font-size="14" lengthAdjust="spacing" textLength="35.793" x="5" y="597.4238">Client</text><ellipse cx="25.8965" cy="609.4375" fill="#E2E2F0" rx="8" ry="8" style="stroke:#181818;stroke-width:0.5;"/><path d="M25.8965,617.4375 L25.8965,644.4375 M12.8965,625.4375 L38.8965,625.4375 M25.8965,644.4375 L12.8965,659.4375 M25.8965,644.4375 L38.8965,659.4375 " fill="none" style="stroke:#181818;stroke-width:0.5;"/><rect fill="#E2E2F0" height="32.6211" rx="2.5" ry="2.5" style="stroke:#181818;stroke-width:0.5;" width="112.8135" x="246.7358" y="89.6211"/><text fill="#000000" font-family="sans-serif" font-size="14" lengthAdjust="spacing" textLength="98.8135" x="253.7358" y="111.7285">Flight Controller</text><rect fill="#E2E2F0" height="32.6211" rx="2.5" ry="2.5" style="stroke:#181818;stroke-width:0.5;" width="112.8135" x="246.7358" y="582.3164"/><text fill="#000000" font-family="sans-serif" font-size="14" lengthAdjust="spacing" textLength="98.8135" x="253.7358" y="604.4238">Flight Controller</text><rect fill="#E2E2F0" height="32.6211" rx="2.5" ry="2.5" style="stroke:#181818;stroke-width:0.5;" width="98.8066" x="437.4272" y="89.6211"/><text fill="#000000" font-family="sans-serif" font-size="14" lengthAdjust="spacing" textLength="84.8066" x="444.4272" y="111.7285">Flight Service</text><rect fill="#E2E2F0" height="32.6211" rx="2.5" ry="2.5" style="stroke:#181818;stroke-width:0.5;" width="98.8066" x="437.4272" y="582.3164"/><text fill="#000000" font-family="sans-serif" font-size="14" lengthAdjust="spacing" textLength="84.8066" x="444.4272" y="604.4238">Flight Service</text><rect fill="#E2E2F0" height="32.6211" rx="2.5" ry="2.5" style="stroke:#181818;stroke-width:0.5;" width="156.3994" x="574.2407" y="89.6211"/><text fill="#000000" font-family="sans-serif" font-size="14" lengthAdjust="spacing" textLength="142.3994" x="581.2407" y="111.7285">ApiState (currentState)</text><rect fill="#E2E2F0" height="32.6211" rx="2.5" ry="2.5" style="stroke:#181818;stroke-width:0.5;" width="156.3994" x="574.2407" y="582.3164"/><text fill="#000000" font-family="sans-serif" font-size="14" lengthAdjust="spacing" textLength="142.3994" x="581.2407" y="604.4238">ApiState (currentState)</text><rect fill="#E2E2F0" height="32.6211" rx="2.5" ry="2.5" style="stroke:#181818;stroke-width:0.5;" width="51.3584" x="816.2446" y="89.6211"/><text fill="#000000" font-family="sans-serif" font-size="14" lengthAdjust="spacing" textLength="37.3584" x="823.2446" y="111.7285">ApiV1</text><rect fill="#E2E2F0" height="32.6211" rx="2.5" ry="2.5" style="stroke:#181818;stroke-width:0.5;" width="51.3584" x="816.2446" y="582.3164"/><text fill="#000000" font-family="sans-serif" font-size="14" lengthAdjust="spacing" textLength="37.3584" x="823.2446" y="604.4238">ApiV1</text><rect fill="#E2E2F0" height="32.6211" rx="2.5" ry="2.5" style="stroke:#181818;stroke-width:0.5;" width="51.3584" x="981.8545" y="89.6211"/><text fill="#000000" font-family="sans-serif" font-size="14" lengthAdjust="spacing" textLength="37.3584" x="988.8545" y="111.7285">ApiV2</text><rect fill="#E2E2F0" height="32.6211" rx="2.5" ry="2.5" style="stroke:#181818;stroke-width:0.5;" width="51.3584" x="981.8545" y="582.3164"/><text fill="#000000" font-family="sans-serif" font-size="14" lengthAdjust="spacing" textLength="37.3584" x="988.8545" y="604.4238">ApiV2</text><rect fill="#E2E2F0" height="32.6211" rx="2.5" ry="2.5" style="stroke:#181818;stroke-width:0.5;" width="88.7031" x="1165.6274" y="89.6211"/><text fill="#000000" font-family="sans-serif" font-size="14" lengthAdjust="spacing" textLength="74.7031" x="1172.6274" y="111.7285">Externe API</text><rect fill="#E2E2F0" height="32.6211" rx="2.5" ry="2.5" style="stroke:#181818;stroke-width:0.5;" width="88.7031" x="1165.6274" y="582.3164"/><text fill="#000000" font-family="sans-serif" font-size="14" lengthAdjust="spacing" textLength="74.7031" x="1172.6274" y="604.4238">Externe API</text><polygon fill="#181818" points="291.1426,152.5332,301.1426,156.5332,291.1426,160.5332,295.1426,156.5332" style="stroke:#181818;stroke-width:1.0;"/><line style="stroke:#181818;stroke-width:1.0;" x1="25.8965" x2="297.1426" y1="156.5332" y2="156.5332"/><text fill="#000000" font-family="sans-serif" font-size="13" lengthAdjust="spacing" textLength="253.2461" x="32.8965" y="151.2705">GET /flights?from=XXX&amp;to=YYY&amp;date=ZZZ</text><polygon fill="#181818" points="474.8306,183.8242,484.8306,187.8242,474.8306,191.8242,478.8306,187.8242" style="stroke:#181818;stroke-width:1.0;"/><line style="stroke:#181818;stroke-width:1.0;" x1="303.1426" x2="480.8306" y1="187.8242" y2="187.8242"/><text fill="#000000" font-family="sans-serif" font-size="13" lengthAdjust="spacing" textLength="141.6099" x="310.1426" y="182.5615">getFlights(from, to, date)</text><polygon fill="#181818" points="640.4404,215.1152,650.4404,219.1152,640.4404,223.1152,644.4404,219.1152" style="stroke:#181818;stroke-width:1.0;"/><line style="stroke:#181818;stroke-width:1.0;" x1="486.8306" x2="646.4404" y1="219.1152" y2="219.1152"/><text fill="#000000" font-family="sans-serif" font-size="13" lengthAdjust="spacing" textLength="141.6099" x="493.8306" y="213.8525">getFlights(from, to, date)</text><polygon fill="#181818" points="829.9238,246.4063,839.9238,250.4063,829.9238,254.4063,833.9238,250.4063" style="stroke:#181818;stroke-width:1.0;"/><line style="stroke:#181818;stroke-width:1.0;" x1="652.4404" x2="835.9238" y1="250.4063" y2="250.4063"/><text fill="#000000" font-family="sans-serif" font-size="13" lengthAdjust="spacing" textLength="165.4834" x="659.4404" y="245.1436">Gebruik ApiV1 als standaard</text><polygon fill="#181818" points="1197.979,277.6973,1207.979,281.6973,1197.979,285.6973,1201.979,281.6973" style="stroke:#181818;stroke-width:1.0;"/><line style="stroke:#181818;stroke-width:1.0;" x1="841.9238" x2="1203.979" y1="281.6973" y2="281.6973"/><text fill="#000000" font-family="sans-serif" font-size="13" lengthAdjust="spacing" textLength="178.4453" x="848.9238" y="276.4346">GET /searchFlights (via ApiV1)</text><polygon fill="#181818" points="497.8306,308.9883,487.8306,312.9883,497.8306,316.9883,493.8306,312.9883" style="stroke:#181818;stroke-width:1.0;"/><line style="stroke:#181818;stroke-width:1.0;stroke-dasharray:2.0,2.0;" x1="491.8306" x2="1208.979" y1="312.9883" y2="312.9883"/><text fill="#000000" font-family="sans-serif" font-size="13" lengthAdjust="spacing" textLength="158.9897" x="503.8306" y="307.7256">Retourneer vluchtgegevens</text><path d="M427.4272,327.9883 L487.5981,327.9883 L487.5981,337.2793 L477.5981,347.2793 L427.4272,347.2793 L427.4272,327.9883 " fill="#EEEEEE" style="stroke:#000000;stroke-width:1.5;"/><rect fill="none" height="175.7461" style="stroke:#000000;stroke-width:1.5;" width="836.9033" x="427.4272" y="327.9883"/><text fill="#000000" font-family="sans-serif" font-size="13" font-weight="bold" lengthAdjust="spacing" textLength="15.1709" x="442.4272" y="343.0166">alt</text><text fill="#000000" font-family="sans-serif" font-size="11" font-weight="bold" lengthAdjust="spacing" textLength="257.313" x="502.5981" y="341.8584">[Resultaat van ApiV1 is ongeldig of niet gewenst]</text><polygon fill="#181818" points="995.5337,366.5703,1005.5337,370.5703,995.5337,374.5703,999.5337,370.5703" style="stroke:#181818;stroke-width:1.0;"/><line style="stroke:#181818;stroke-width:1.0;" x1="841.9238" x2="1001.5337" y1="370.5703" y2="370.5703"/><text fill="#000000" font-family="sans-serif" font-size="13" lengthAdjust="spacing" textLength="117.7744" x="848.9238" y="365.3076">setNextState(ApiV2)</text><polygon fill="#181818" points="995.5337,397.8613,1005.5337,401.8613,995.5337,405.8613,999.5337,401.8613" style="stroke:#181818;stroke-width:1.0;"/><line style="stroke:#181818;stroke-width:1.0;" x1="841.9238" x2="1001.5337" y1="401.8613" y2="401.8613"/><text fill="#000000" font-family="sans-serif" font-size="13" lengthAdjust="spacing" textLength="141.6099" x="848.9238" y="396.5986">getFlights(from, to, date)</text><polygon fill="#181818" points="1197.979,429.1523,1207.979,433.1523,1197.979,437.1523,1201.979,433.1523" style="stroke:#181818;stroke-width:1.0;"/><line style="stroke:#181818;stroke-width:1.0;" x1="1007.5337" x2="1203.979" y1="433.1523" y2="433.1523"/><text fill="#000000" font-family="sans-serif" font-size="13" lengthAdjust="spacing" textLength="178.4453" x="1014.5337" y="427.8896">GET /searchFlights (via ApiV2)</text><polygon fill="#181818" points="1018.5337,460.4434,1008.5337,464.4434,1018.5337,468.4434,1014.5337,464.4434" style="stroke:#181818;stroke-width:1.0;"/><line style="stroke:#181818;stroke-width:1.0;stroke-dasharray:2.0,2.0;" x1="1012.5337" x2="1208.979" y1="464.4434" y2="464.4434"/><text fill="#000000" font-family="sans-serif" font-size="13" lengthAdjust="spacing" textLength="158.9897" x="1024.5337" y="459.1807">Retourneer vluchtgegevens</text><polygon fill="#181818" points="497.8306,491.7344,487.8306,495.7344,497.8306,499.7344,493.8306,495.7344" style="stroke:#181818;stroke-width:1.0;"/><line style="stroke:#181818;stroke-width:1.0;stroke-dasharray:2.0,2.0;" x1="491.8306" x2="1006.5337" y1="495.7344" y2="495.7344"/><text fill="#000000" font-family="sans-serif" font-size="13" lengthAdjust="spacing" textLength="158.9897" x="503.8306" y="490.4717">Retourneer vluchtgegevens</text><polygon fill="#181818" points="314.1426,530.0254,304.1426,534.0254,314.1426,538.0254,310.1426,534.0254" style="stroke:#181818;stroke-width:1.0;"/><line style="stroke:#181818;stroke-width:1.0;stroke-dasharray:2.0,2.0;" x1="308.1426" x2="485.8306" y1="534.0254" y2="534.0254"/><text fill="#000000" font-family="sans-serif" font-size="13" lengthAdjust="spacing" textLength="159.688" x="320.1426" y="528.7627">Retourneer vluchtinformatie</text><polygon fill="#181818" points="36.8965,561.3164,26.8965,565.3164,36.8965,569.3164,32.8965,565.3164" style="stroke:#181818;stroke-width:1.0;"/><line style="stroke:#181818;stroke-width:1.0;stroke-dasharray:2.0,2.0;" x1="30.8965" x2="302.1426" y1="565.3164" y2="565.3164"/><text fill="#000000" font-family="sans-serif" font-size="13" lengthAdjust="spacing" textLength="184.9453" x="42.8965" y="560.0537">HTTP 200 OK (vluchtinformatie)</text><!--SRC=[ZP91Rzim38Nl-XL43qKCD5ZZOu5iyB9s2mPimHmCIMwSpJX25ScJQAy_VxHa7zfiwtmptaVoFP6isH2KzBCZMn5yqDXuFCCSjbwtx5fuZzKZsLefhDXvM1bDbfLgqREkT8kMuUh1wER4i7AMlJE6_1LWW8VL7wcIVAyhIaZv72bQNJ8omQpgl9T1yI-BR779VbyaPN6fv4d9doltJqpU4XIRTT8tQwLI99Y_5STm1n_lj_3c6Bs6TqVlpilTRdVDRhdVxwzhiRCy70vAqA6Wb8A6E4KBim6_0NOtC82P4bseuXLA5GbR3DFfX-_q8yHqW2P0OBGreg-L00EsMKyk0w6lJcDRcFKQKrsc1cW-6Vn6x3g9JHvwqrKdRgYXdcoGfHeMENI64HbwjEDW7S3PXaoj6t17i9fO4loI6bOWtsWbb-w1-0izfKtDujDdBv5_P8za_d-vfiPZjjZwxzccpg-_GZplOLNJ2LoWsXwTFoDhYeiNRZoQE_YqtMuWlxs5hv_5wGiwKxy1]--></g></svg>