<svg xmlns="http://www.w3.org/2000/svg" xmlns:xlink="http://www.w3.org/1999/xlink" contentStyleType="text/css" height="1068px" preserveAspectRatio="none" style="width:1232px;height:1068px;background:#FFFFFF;" version="1.1" viewBox="0 0 1232 1068" width="1232px" zoomAndPan="magnify"><title>Triptop Class Diagram</title><defs/><g><text fill="#000000" font-family="sans-serif" font-size="14" font-weight="bold" lengthAdjust="spacing" textLength="153.8874" x="532.4967" y="24.9659">Triptop Class Diagram</text><!--class EatsController--><g id="elem_EatsController"><rect codeLine="4" fill="#F1F1F1" height="105.2038" id="EatsController" rx="2.5" ry="2.5" style="stroke:#181818;stroke-width:0.5;" width="426.6085" x="7" y="47.0679"/><ellipse cx="169.2664" cy="63.0679" fill="#ADD1B2" rx="11" ry="11" style="stroke:#181818;stroke-width:1.0;"/><path d="M168.7352,69.9898 Q166.9852,69.9898 165.8445,69.2554 Q164.7195,68.5054 164.157,67.1617 Q163.6102,65.8023 163.6102,64.0054 Q163.6102,61.9742 164.2664,60.521 Q164.9227,59.0679 166.2039,58.2867 Q167.4852,57.5054 169.3602,57.5054 Q170.2508,57.5054 170.9227,57.6929 Q171.5945,57.8648 172.282,58.2085 L171.4695,60.2242 Q170.8445,59.9117 170.2977,59.7867 Q169.7664,59.6617 169.282,59.6617 Q168.1102,59.6617 167.407,60.1929 Q166.7039,60.7242 166.407,61.6773 Q166.1102,62.6304 166.1102,63.896 Q166.1102,65.9117 166.8289,66.8804 Q167.5477,67.8335 169.1414,67.8335 Q169.7352,67.8335 170.3602,67.6773 Q170.9852,67.521 171.8133,67.146 L171.8133,69.3648 Q171.0789,69.6773 170.282,69.8335 Q169.5008,69.9898 168.7352,69.9898 Z " fill="#000000"/><text fill="#000000" font-family="sans-serif" font-size="14" lengthAdjust="spacing" textLength="93.5757" x="189.7664" y="68.4999">EatsController</text><line style="stroke:#181818;stroke-width:0.5;" x1="8" x2="432.6085" y1="79.0679" y2="79.0679"/><rect fill="none" height="6" style="stroke:#C82930;stroke-width:1.0;" width="6" x="15" y="91.1019"/><text fill="#000000" font-family="sans-serif" font-size="14" lengthAdjust="spacing" textLength="151.9554" x="27" y="98.0339">EatsService eatsService</text><line style="stroke:#181818;stroke-width:0.5;" x1="8" x2="432.6085" y1="106.1358" y2="106.1358"/><ellipse cx="18" cy="121.1698" fill="#84BE84" rx="3" ry="3" style="stroke:#038048;stroke-width:1.0;"/><text fill="#000000" font-family="sans-serif" font-size="14" lengthAdjust="spacing" textLength="243.3751" x="27" y="125.1018">getAllRestaurants(): List&lt;Restaurant&gt;</text><ellipse cx="18" cy="140.2377" fill="#84BE84" rx="3" ry="3" style="stroke:#038048;stroke-width:1.0;"/><text fill="#000000" font-family="sans-serif" font-size="14" lengthAdjust="spacing" textLength="400.6085" x="27" y="144.1697">getAndSaveAPIResults(RestaurantDTO): RestaurantResponse</text></g><!--class EatsService--><g id="elem_EatsService"><rect codeLine="10" fill="#F1F1F1" height="86.1358" id="EatsService" rx="2.5" ry="2.5" style="stroke:#181818;stroke-width:0.5;" width="345.8428" x="47.38" y="212.2779"/><ellipse cx="181.5765" cy="228.2779" fill="#B4A7E5" rx="11" ry="11" style="stroke:#181818;stroke-width:1.0;"/><path d="M177.6078,234.7779 L177.6078,233.0748 L179.9672,232.8092 L179.9672,224.606 L177.6078,224.3404 L177.6078,222.6373 L184.7484,222.6373 L184.7484,224.3404 L182.3265,224.606 L182.3265,232.8092 L184.7484,233.0748 L184.7484,234.7779 L177.6078,234.7779 Z " fill="#000000"/><text fill="#000000" font-family="sans-serif" font-size="14" font-style="italic" lengthAdjust="spacing" textLength="68.9497" x="202.0765" y="233.7099">EatsService</text><line style="stroke:#181818;stroke-width:0.5;" x1="48.38" x2="392.2228" y1="244.2779" y2="244.2779"/><line style="stroke:#181818;stroke-width:0.5;" x1="48.38" x2="392.2228" y1="252.2779" y2="252.2779"/><ellipse cx="58.38" cy="267.3119" fill="#84BE84" rx="3" ry="3" style="stroke:#038048;stroke-width:1.0;"/><text fill="#000000" font-family="sans-serif" font-size="14" lengthAdjust="spacing" textLength="247.5051" x="67.38" y="271.2439">findAllRestaurants(): List&lt;Restaurant&gt;</text><ellipse cx="58.38" cy="286.3798" fill="#84BE84" rx="3" ry="3" style="stroke:#038048;stroke-width:1.0;"/><text fill="#000000" font-family="sans-serif" font-size="14" lengthAdjust="spacing" textLength="319.8428" x="67.38" y="290.3118">retrieveData(String, String): RestaurantResponse</text></g><!--class EatsServiceImpl--><g id="elem_EatsServiceImpl"><rect codeLine="15" fill="#F1F1F1" height="124.2717" id="EatsServiceImpl" rx="2.5" ry="2.5" style="stroke:#181818;stroke-width:0.5;" width="345.8428" x="47.38" y="358.4079"/><ellipse cx="163.9716" cy="374.4079" fill="#ADD1B2" rx="11" ry="11" style="stroke:#181818;stroke-width:1.0;"/><path d="M163.4403,381.3298 Q161.6903,381.3298 160.5497,380.5954 Q159.4247,379.8454 158.8622,378.5017 Q158.3153,377.1423 158.3153,375.3454 Q158.3153,373.3142 158.9716,371.861 Q159.6278,370.4079 160.9091,369.6267 Q162.1903,368.8454 164.0653,368.8454 Q164.956,368.8454 165.6278,369.0329 Q166.2997,369.2048 166.9872,369.5485 L166.1747,371.5642 Q165.5497,371.2517 165.0028,371.1267 Q164.4716,371.0017 163.9872,371.0017 Q162.8153,371.0017 162.1122,371.5329 Q161.4091,372.0642 161.1122,373.0173 Q160.8153,373.9704 160.8153,375.236 Q160.8153,377.2517 161.5341,378.2204 Q162.2528,379.1735 163.8466,379.1735 Q164.4403,379.1735 165.0653,379.0173 Q165.6903,378.861 166.5185,378.486 L166.5185,380.7048 Q165.7841,381.0173 164.9872,381.1735 Q164.206,381.3298 163.4403,381.3298 Z " fill="#000000"/><text fill="#000000" font-family="sans-serif" font-size="14" lengthAdjust="spacing" textLength="104.1596" x="184.4716" y="379.8399">EatsServiceImpl</text><line style="stroke:#181818;stroke-width:0.5;" x1="48.38" x2="392.2228" y1="390.4079" y2="390.4079"/><rect fill="none" height="6" style="stroke:#C82930;stroke-width:1.0;" width="6" x="55.38" y="402.4419"/><text fill="#000000" font-family="sans-serif" font-size="14" lengthAdjust="spacing" textLength="247.5471" x="67.38" y="409.3739">List&lt;RetrieveDataStrategy&gt; strategies</text><rect fill="none" height="6" style="stroke:#C82930;stroke-width:1.0;" width="6" x="55.38" y="421.5098"/><text fill="#000000" font-family="sans-serif" font-size="14" lengthAdjust="spacing" textLength="169.0074" x="67.38" y="428.4418">EatsRepository repository</text><line style="stroke:#181818;stroke-width:0.5;" x1="48.38" x2="392.2228" y1="436.5438" y2="436.5438"/><ellipse cx="58.38" cy="451.5777" fill="#84BE84" rx="3" ry="3" style="stroke:#038048;stroke-width:1.0;"/><text fill="#000000" font-family="sans-serif" font-size="14" lengthAdjust="spacing" textLength="247.5051" x="67.38" y="455.5097">findAllRestaurants(): List&lt;Restaurant&gt;</text><ellipse cx="58.38" cy="470.6456" fill="#84BE84" rx="3" ry="3" style="stroke:#038048;stroke-width:1.0;"/><text fill="#000000" font-family="sans-serif" font-size="14" lengthAdjust="spacing" textLength="319.8428" x="67.38" y="474.5776">retrieveData(String, String): RestaurantResponse</text></g><!--class RetrieveDataStrategy--><g id="elem_RetrieveDataStrategy"><rect codeLine="22" fill="#F1F1F1" height="67.0679" id="RetrieveDataStrategy" rx="2.5" ry="2.5" style="stroke:#181818;stroke-width:0.5;" width="345.8428" x="160.38" y="542.6779"/><ellipse cx="263.6716" cy="558.6779" fill="#B4A7E5" rx="11" ry="11" style="stroke:#181818;stroke-width:1.0;"/><path d="M259.7029,565.1779 L259.7029,563.4748 L262.0623,563.2092 L262.0623,555.006 L259.7029,554.7404 L259.7029,553.0373 L266.8435,553.0373 L266.8435,554.7404 L264.4216,555.006 L264.4216,563.2092 L266.8435,563.4748 L266.8435,565.1779 L259.7029,565.1779 Z " fill="#000000"/><text fill="#000000" font-family="sans-serif" font-size="14" font-style="italic" lengthAdjust="spacing" textLength="130.7595" x="284.1716" y="564.1099">RetrieveDataStrategy</text><line style="stroke:#181818;stroke-width:0.5;" x1="161.38" x2="505.2228" y1="574.6779" y2="574.6779"/><line style="stroke:#181818;stroke-width:0.5;" x1="161.38" x2="505.2228" y1="582.6779" y2="582.6779"/><ellipse cx="171.38" cy="597.7119" fill="#84BE84" rx="3" ry="3" style="stroke:#038048;stroke-width:1.0;"/><text fill="#000000" font-family="sans-serif" font-size="14" lengthAdjust="spacing" textLength="319.8428" x="180.38" y="601.6439">retrieveData(String, String): RestaurantResponse</text></g><!--class RetrieveFromAPIStrategy--><g id="elem_RetrieveFromAPIStrategy"><rect codeLine="25" fill="#F1F1F1" height="105.2038" id="RetrieveFromAPIStrategy" rx="2.5" ry="2.5" style="stroke:#181818;stroke-width:0.5;" width="345.8428" x="541.38" y="669.7479"/><ellipse cx="627.1507" cy="685.7479" fill="#ADD1B2" rx="11" ry="11" style="stroke:#181818;stroke-width:1.0;"/><path d="M626.6195,692.6698 Q624.8695,692.6698 623.7288,691.9354 Q622.6038,691.1854 622.0413,689.8417 Q621.4945,688.4823 621.4945,686.6854 Q621.4945,684.6542 622.1507,683.201 Q622.807,681.7479 624.0882,680.9667 Q625.3695,680.1854 627.2445,680.1854 Q628.1351,680.1854 628.807,680.3729 Q629.4788,680.5448 630.1663,680.8885 L629.3538,682.9042 Q628.7288,682.5917 628.182,682.4667 Q627.6507,682.3417 627.1663,682.3417 Q625.9945,682.3417 625.2913,682.8729 Q624.5882,683.4042 624.2913,684.3573 Q623.9945,685.3104 623.9945,686.576 Q623.9945,688.5917 624.7132,689.5604 Q625.432,690.5135 627.0257,690.5135 Q627.6195,690.5135 628.2445,690.3573 Q628.8695,690.201 629.6976,689.826 L629.6976,692.0448 Q628.9632,692.3573 628.1663,692.5135 Q627.3851,692.6698 626.6195,692.6698 Z " fill="#000000"/><text fill="#000000" font-family="sans-serif" font-size="14" lengthAdjust="spacing" textLength="165.8014" x="647.6507" y="691.1799">RetrieveFromAPIStrategy</text><line style="stroke:#181818;stroke-width:0.5;" x1="542.38" x2="886.2228" y1="701.7479" y2="701.7479"/><rect fill="none" height="6" style="stroke:#C82930;stroke-width:1.0;" width="6" x="549.38" y="713.7819"/><text fill="#000000" font-family="sans-serif" font-size="14" lengthAdjust="spacing" textLength="164.0514" x="561.38" y="720.7139">EatsAdapter eatsAdapter</text><rect fill="none" height="6" style="stroke:#C82930;stroke-width:1.0;" width="6" x="549.38" y="732.8498"/><text fill="#000000" font-family="sans-serif" font-size="14" lengthAdjust="spacing" textLength="199.4433" x="561.38" y="739.7818">EatsRepository eatsRepository</text><line style="stroke:#181818;stroke-width:0.5;" x1="542.38" x2="886.2228" y1="747.8838" y2="747.8838"/><ellipse cx="552.38" cy="762.9177" fill="#84BE84" rx="3" ry="3" style="stroke:#038048;stroke-width:1.0;"/><text fill="#000000" font-family="sans-serif" font-size="14" lengthAdjust="spacing" textLength="319.8428" x="561.38" y="766.8497">retrieveData(String, String): RestaurantResponse</text></g><!--class RetrieveFromCacheStrategy--><g id="elem_RetrieveFromCacheStrategy"><rect codeLine="30" fill="#F1F1F1" height="86.1358" id="RetrieveFromCacheStrategy" rx="2.5" ry="2.5" style="stroke:#181818;stroke-width:0.5;" width="345.8428" x="160.38" y="679.2779"/><ellipse cx="237.2468" cy="695.2779" fill="#ADD1B2" rx="11" ry="11" style="stroke:#181818;stroke-width:1.0;"/><path d="M236.7155,702.1998 Q234.9655,702.1998 233.8249,701.4654 Q232.6999,700.7154 232.1374,699.3717 Q231.5905,698.0123 231.5905,696.2154 Q231.5905,694.1842 232.2468,692.731 Q232.903,691.2779 234.1843,690.4967 Q235.4655,689.7154 237.3405,689.7154 Q238.2311,689.7154 238.903,689.9029 Q239.5749,690.0748 240.2624,690.4185 L239.4499,692.4342 Q238.8249,692.1217 238.278,691.9967 Q237.7468,691.8717 237.2624,691.8717 Q236.0905,691.8717 235.3874,692.4029 Q234.6843,692.9342 234.3874,693.8873 Q234.0905,694.8404 234.0905,696.106 Q234.0905,698.1217 234.8093,699.0904 Q235.528,700.0435 237.1218,700.0435 Q237.7155,700.0435 238.3405,699.8873 Q238.9655,699.731 239.7936,699.356 L239.7936,701.5748 Q239.0593,701.8873 238.2624,702.0435 Q237.4811,702.1998 236.7155,702.1998 Z " fill="#000000"/><text fill="#000000" font-family="sans-serif" font-size="14" lengthAdjust="spacing" textLength="183.6093" x="257.7468" y="700.7099">RetrieveFromCacheStrategy</text><line style="stroke:#181818;stroke-width:0.5;" x1="161.38" x2="505.2228" y1="711.2779" y2="711.2779"/><rect fill="none" height="6" style="stroke:#C82930;stroke-width:1.0;" width="6" x="168.38" y="723.3119"/><text fill="#000000" font-family="sans-serif" font-size="14" lengthAdjust="spacing" textLength="199.4433" x="180.38" y="730.2439">EatsRepository eatsRepository</text><line style="stroke:#181818;stroke-width:0.5;" x1="161.38" x2="505.2228" y1="738.3458" y2="738.3458"/><ellipse cx="171.38" cy="753.3798" fill="#84BE84" rx="3" ry="3" style="stroke:#038048;stroke-width:1.0;"/><text fill="#000000" font-family="sans-serif" font-size="14" lengthAdjust="spacing" textLength="319.8428" x="180.38" y="757.3118">retrieveData(String, String): RestaurantResponse</text></g><!--class EatsAdapter--><g id="elem_EatsAdapter"><rect codeLine="35" fill="#F1F1F1" height="67.0679" id="EatsAdapter" rx="2.5" ry="2.5" style="stroke:#181818;stroke-width:0.5;" width="367.1508" x="858.73" y="841.6579"/><ellipse cx="1000.5145" cy="857.6579" fill="#B4A7E5" rx="11" ry="11" style="stroke:#181818;stroke-width:1.0;"/><path d="M996.5458,864.1579 L996.5458,862.4548 L998.9052,862.1892 L998.9052,853.986 L996.5458,853.7204 L996.5458,852.0173 L1003.6864,852.0173 L1003.6864,853.7204 L1001.2645,853.986 L1001.2645,862.1892 L1003.6864,862.4548 L1003.6864,864.1579 L996.5458,864.1579 Z " fill="#000000"/><text fill="#000000" font-family="sans-serif" font-size="14" font-style="italic" lengthAdjust="spacing" textLength="75.0817" x="1021.0145" y="863.0899">EatsAdapter</text><line style="stroke:#181818;stroke-width:0.5;" x1="859.73" x2="1224.8808" y1="873.6579" y2="873.6579"/><line style="stroke:#181818;stroke-width:0.5;" x1="859.73" x2="1224.8808" y1="881.6579" y2="881.6579"/><ellipse cx="869.73" cy="896.6919" fill="#84BE84" rx="3" ry="3" style="stroke:#038048;stroke-width:1.0;"/><text fill="#000000" font-family="sans-serif" font-size="14" lengthAdjust="spacing" textLength="341.1508" x="878.73" y="900.6239">getRestaurantsNearUser(String, String): JSONObject</text></g><!--class EatsAdapterImpl--><g id="elem_EatsAdapterImpl"><rect codeLine="38" fill="#F1F1F1" height="86.1358" id="EatsAdapterImpl" rx="2.5" ry="2.5" style="stroke:#181818;stroke-width:0.5;" width="367.1508" x="858.73" y="975.4279"/><ellipse cx="982.9516" cy="991.4279" fill="#ADD1B2" rx="11" ry="11" style="stroke:#181818;stroke-width:1.0;"/><path d="M982.4203,998.3498 Q980.6703,998.3498 979.5297,997.6154 Q978.4047,996.8654 977.8422,995.5217 Q977.2953,994.1623 977.2953,992.3654 Q977.2953,990.3342 977.9516,988.881 Q978.6078,987.4279 979.8891,986.6467 Q981.1703,985.8654 983.0453,985.8654 Q983.9359,985.8654 984.6078,986.0529 Q985.2797,986.2248 985.9672,986.5685 L985.1547,988.5842 Q984.5297,988.2717 983.9828,988.1467 Q983.4516,988.0217 982.9672,988.0217 Q981.7953,988.0217 981.0922,988.5529 Q980.3891,989.0842 980.0922,990.0373 Q979.7953,990.9904 979.7953,992.256 Q979.7953,994.2717 980.5141,995.2404 Q981.2328,996.1935 982.8266,996.1935 Q983.4203,996.1935 984.0453,996.0373 Q984.6703,995.881 985.4984,995.506 L985.4984,997.7248 Q984.7641,998.0373 983.9672,998.1935 Q983.1859,998.3498 982.4203,998.3498 Z " fill="#000000"/><text fill="#000000" font-family="sans-serif" font-size="14" lengthAdjust="spacing" textLength="110.2076" x="1003.4516" y="996.8599">EatsAdapterImpl</text><line style="stroke:#181818;stroke-width:0.5;" x1="859.73" x2="1224.8808" y1="1007.4279" y2="1007.4279"/><rect fill="none" height="6" style="stroke:#C82930;stroke-width:1.0;" width="6" x="866.73" y="1019.4619"/><text fill="#000000" font-family="sans-serif" font-size="14" lengthAdjust="spacing" textLength="86.8137" x="878.73" y="1026.3939">String apiKey</text><line style="stroke:#181818;stroke-width:0.5;" x1="859.73" x2="1224.8808" y1="1034.4958" y2="1034.4958"/><ellipse cx="869.73" cy="1049.5298" fill="#84BE84" rx="3" ry="3" style="stroke:#038048;stroke-width:1.0;"/><text fill="#000000" font-family="sans-serif" font-size="14" lengthAdjust="spacing" textLength="341.1508" x="878.73" y="1053.4618">getRestaurantsNearUser(String, String): JSONObject</text></g><!--class EatsRepository--><g id="elem_EatsRepository"><rect codeLine="43" fill="#F1F1F1" height="80.4799" id="EatsRepository" rx="2.5" ry="2.5" style="stroke:#181818;stroke-width:0.5;" width="194.5873" x="107.01" y="834.9479"/><ellipse cx="154.4838" cy="857.6539" fill="#B4A7E5" rx="11" ry="11" style="stroke:#181818;stroke-width:1.0;"/><path d="M150.5151,864.1539 L150.5151,862.4508 L152.8745,862.1852 L152.8745,853.9821 L150.5151,853.7164 L150.5151,852.0133 L157.6557,852.0133 L157.6557,853.7164 L155.2338,853.9821 L155.2338,862.1852 L157.6557,862.4508 L157.6557,864.1539 L150.5151,864.1539 Z " fill="#000000"/><text fill="#000000" font-family="sans-serif" font-size="12" font-style="italic" lengthAdjust="spacing" textLength="67.4165" x="186.8454" y="852.776">&#171;Repository&#187;</text><text fill="#000000" font-family="sans-serif" font-size="14" font-style="italic" lengthAdjust="spacing" textLength="91.1396" x="174.9838" y="871.258">EatsRepository</text><line style="stroke:#181818;stroke-width:0.5;" x1="108.01" x2="300.5973" y1="880.3599" y2="880.3599"/><line style="stroke:#181818;stroke-width:0.5;" x1="108.01" x2="300.5973" y1="888.3599" y2="888.3599"/><ellipse cx="118.01" cy="903.3939" fill="#84BE84" rx="3" ry="3" style="stroke:#038048;stroke-width:1.0;"/><text fill="#000000" font-family="sans-serif" font-size="14" lengthAdjust="spacing" textLength="168.5873" x="127.01" y="907.3259">findAll(): List&lt;Restaurant&gt;</text></g><!--class RestaurantNotFoundException--><g id="elem_RestaurantNotFoundException"><rect codeLine="47" fill="#F1F1F1" height="48" id="RestaurantNotFoundException" rx="2.5" ry="2.5" style="stroke:#181818;stroke-width:0.5;" width="234.2292" x="336.19" y="851.1879"/><ellipse cx="351.19" cy="867.1879" fill="#ADD1B2" rx="11" ry="11" style="stroke:#181818;stroke-width:1.0;"/><path d="M350.6588,874.1098 Q348.9088,874.1098 347.7681,873.3754 Q346.6431,872.6254 346.0806,871.2817 Q345.5338,869.9223 345.5338,868.1254 Q345.5338,866.0942 346.19,864.641 Q346.8463,863.1879 348.1275,862.4067 Q349.4088,861.6254 351.2838,861.6254 Q352.1744,861.6254 352.8463,861.8129 Q353.5181,861.9848 354.2056,862.3285 L353.3931,864.3442 Q352.7681,864.0317 352.2213,863.9067 Q351.69,863.7817 351.2056,863.7817 Q350.0338,863.7817 349.3306,864.3129 Q348.6275,864.8442 348.3306,865.7973 Q348.0338,866.7504 348.0338,868.016 Q348.0338,870.0317 348.7525,871.0004 Q349.4713,871.9535 351.065,871.9535 Q351.6588,871.9535 352.2838,871.7973 Q352.9088,871.641 353.7369,871.266 L353.7369,873.4848 Q353.0025,873.7973 352.2056,873.9535 Q351.4244,874.1098 350.6588,874.1098 Z " fill="#000000"/><text fill="#000000" font-family="sans-serif" font-size="14" lengthAdjust="spacing" textLength="202.2292" x="365.19" y="872.6199">RestaurantNotFoundException</text><line style="stroke:#181818;stroke-width:0.5;" x1="337.19" x2="569.4192" y1="883.1879" y2="883.1879"/><line style="stroke:#181818;stroke-width:0.5;" x1="337.19" x2="569.4192" y1="891.1879" y2="891.1879"/></g><!--class APIStrategyFailureException--><g id="elem_APIStrategyFailureException"><rect codeLine="49" fill="#F1F1F1" height="48" id="APIStrategyFailureException" rx="2.5" ry="2.5" style="stroke:#181818;stroke-width:0.5;" width="218.1153" x="605.25" y="851.1879"/><ellipse cx="620.25" cy="867.1879" fill="#ADD1B2" rx="11" ry="11" style="stroke:#181818;stroke-width:1.0;"/><path d="M619.7188,874.1098 Q617.9688,874.1098 616.8281,873.3754 Q615.7031,872.6254 615.1406,871.2817 Q614.5938,869.9223 614.5938,868.1254 Q614.5938,866.0942 615.25,864.641 Q615.9063,863.1879 617.1875,862.4067 Q618.4688,861.6254 620.3438,861.6254 Q621.2344,861.6254 621.9063,861.8129 Q622.5781,861.9848 623.2656,862.3285 L622.4531,864.3442 Q621.8281,864.0317 621.2813,863.9067 Q620.75,863.7817 620.2656,863.7817 Q619.0938,863.7817 618.3906,864.3129 Q617.6875,864.8442 617.3906,865.7973 Q617.0938,866.7504 617.0938,868.016 Q617.0938,870.0317 617.8125,871.0004 Q618.5313,871.9535 620.125,871.9535 Q620.7188,871.9535 621.3438,871.7973 Q621.9688,871.641 622.7969,871.266 L622.7969,873.4848 Q622.0625,873.7973 621.2656,873.9535 Q620.4844,874.1098 619.7188,874.1098 Z " fill="#000000"/><text fill="#000000" font-family="sans-serif" font-size="14" lengthAdjust="spacing" textLength="186.1153" x="634.25" y="872.6199">APIStrategyFailureException</text><line style="stroke:#181818;stroke-width:0.5;" x1="606.25" x2="822.3653" y1="883.1879" y2="883.1879"/><line style="stroke:#181818;stroke-width:0.5;" x1="606.25" x2="822.3653" y1="891.1879" y2="891.1879"/></g><!--link EatsController to EatsService--><g id="link_EatsController_EatsService"><path codeLine="51" d="M220.3,152.6979 C220.3,172.0279 220.3,187.7079 220.3,206.0579 " fill="none" id="EatsController-to-EatsService" style="stroke:#181818;stroke-width:1.0;"/><polygon fill="#181818" points="220.3,212.0579,224.3,203.0579,220.3,207.0579,216.3,203.0579,220.3,212.0579" style="stroke:#181818;stroke-width:1.0;"/></g><!--reverse link EatsService to EatsServiceImpl--><g id="link_EatsService_EatsServiceImpl"><path codeLine="52" d="M220.3,316.7979 C220.3,334.8379 220.3,338.2179 220.3,357.9379 " fill="none" id="EatsService-backto-EatsServiceImpl" style="stroke:#181818;stroke-width:1.0;stroke-dasharray:7.0,7.0;"/><polygon fill="none" points="220.3,298.7979,214.3,316.7979,226.3,316.7979,220.3,298.7979" style="stroke:#181818;stroke-width:1.0;"/></g><!--link EatsServiceImpl to RetrieveDataStrategy--><g id="link_EatsServiceImpl_RetrieveDataStrategy"><path codeLine="53" d="M265.61,483.1579 C280.47,503.3679 292.8568,520.2031 305.5268,537.4431 " fill="none" id="EatsServiceImpl-to-RetrieveDataStrategy" style="stroke:#181818;stroke-width:1.0;"/><polygon fill="#181818" points="309.08,542.2779,306.9734,532.657,306.119,538.2489,300.5271,537.3945,309.08,542.2779" style="stroke:#181818;stroke-width:1.0;"/></g><!--reverse link RetrieveDataStrategy to RetrieveFromAPIStrategy--><g id="link_RetrieveDataStrategy_RetrieveFromAPIStrategy"><path codeLine="54" d="M437.0756,616.4667 C483.4156,633.9967 524.67,649.6079 576.95,669.3879 " fill="none" id="RetrieveDataStrategy-backto-RetrieveFromAPIStrategy" style="stroke:#181818;stroke-width:1.0;stroke-dasharray:7.0,7.0;"/><polygon fill="none" points="420.24,610.0979,434.9527,622.0786,439.1986,610.8548,420.24,610.0979" style="stroke:#181818;stroke-width:1.0;"/></g><!--reverse link RetrieveDataStrategy to RetrieveFromCacheStrategy--><g id="link_RetrieveDataStrategy_RetrieveFromCacheStrategy"><path codeLine="55" d="M333.3,627.9179 C333.3,648.3579 333.3,656.8779 333.3,678.9179 " fill="none" id="RetrieveDataStrategy-backto-RetrieveFromCacheStrategy" style="stroke:#181818;stroke-width:1.0;stroke-dasharray:7.0,7.0;"/><polygon fill="none" points="333.3,609.9179,327.3,627.9179,339.3,627.9179,333.3,609.9179" style="stroke:#181818;stroke-width:1.0;"/></g><!--link RetrieveFromAPIStrategy to EatsAdapter--><g id="link_RetrieveFromAPIStrategy_EatsAdapter"><path codeLine="56" d="M827.18,775.2579 C874.81,797.1679 923.3688,819.5011 965.3588,838.8111 " fill="none" id="RetrieveFromAPIStrategy-to-EatsAdapter" style="stroke:#181818;stroke-width:1.0;"/><polygon fill="#181818" points="970.81,841.3179,964.3044,833.9235,966.2673,839.2289,960.962,841.1918,970.81,841.3179" style="stroke:#181818;stroke-width:1.0;"/></g><!--link RetrieveFromAPIStrategy to EatsRepository--><g id="link_RetrieveFromAPIStrategy_EatsRepository"><path codeLine="57" d="M541,771.1479 C454.99,795.0879 360.61,821.7179 318.3,834.9479 C312.91,836.6379 313.0963,836.5536 307.5263,838.3636 " fill="none" id="RetrieveFromAPIStrategy-to-EatsRepository" style="stroke:#181818;stroke-width:1.0;"/><polygon fill="#181818" points="301.82,840.2179,311.6156,841.2407,306.5752,838.6727,309.1432,833.6323,301.82,840.2179" style="stroke:#181818;stroke-width:1.0;"/></g><!--link RetrieveFromCacheStrategy to EatsRepository--><g id="link_RetrieveFromCacheStrategy_EatsRepository"><path codeLine="58" d="M297.03,765.7679 C278.55,787.3779 260.1092,808.9377 241.9992,830.1177 " fill="none" id="RetrieveFromCacheStrategy-to-EatsRepository" style="stroke:#181818;stroke-width:1.0;"/><polygon fill="#181818" points="238.1,834.6779,246.989,830.437,241.3494,830.8777,240.9087,825.238,238.1,834.6779" style="stroke:#181818;stroke-width:1.0;"/></g><!--reverse link EatsAdapter to EatsAdapterImpl--><g id="link_EatsAdapter_EatsAdapterImpl"><path codeLine="59" d="M1042.3,926.9679 C1042.3,946.6179 1042.3,953.8179 1042.3,974.9879 " fill="none" id="EatsAdapter-backto-EatsAdapterImpl" style="stroke:#181818;stroke-width:1.0;stroke-dasharray:7.0,7.0;"/><polygon fill="none" points="1042.3,908.9679,1036.3,926.9679,1048.3,926.9679,1042.3,908.9679" style="stroke:#181818;stroke-width:1.0;"/></g><!--link EatsServiceImpl to EatsRepository--><g id="link_EatsServiceImpl_EatsRepository"><path codeLine="60" d="M171.86,482.9979 C160.19,501.2079 149.36,521.8679 143.3,542.6779 C114.47,641.7979 115.22,675.6179 143.3,774.9479 C149.3,796.1679 157.8762,812.3463 169.6262,829.6263 " fill="none" id="EatsServiceImpl-to-EatsRepository" style="stroke:#181818;stroke-width:1.0;"/><polygon fill="#181818" points="173,834.5879,171.2471,824.8963,170.1885,830.4532,164.6316,829.3947,173,834.5879" style="stroke:#181818;stroke-width:1.0;"/></g><!--link RetrieveFromAPIStrategy to RestaurantNotFoundException--><g id="link_RetrieveFromAPIStrategy_RestaurantNotFoundException"><path codeLine="62" d="M624.48,775.2579 C580.1,800.9179 533.935,827.5959 499.135,847.7059 " fill="none" id="RetrieveFromAPIStrategy-to-RestaurantNotFoundException" style="stroke:#181818;stroke-width:1.0;stroke-dasharray:7.0,7.0;"/><polygon fill="#181818" points="493.94,850.7079,503.7338,849.6682,498.2691,848.2062,499.7311,842.7415,493.94,850.7079" style="stroke:#181818;stroke-width:1.0;"/></g><!--link RetrieveFromAPIStrategy to APIStrategyFailureException--><g id="link_RetrieveFromAPIStrategy_APIStrategyFailureException"><path codeLine="63" d="M714.3,775.2579 C714.3,800.9979 714.3,824.7979 714.3,844.9079 " fill="none" id="RetrieveFromAPIStrategy-to-APIStrategyFailureException" style="stroke:#181818;stroke-width:1.0;stroke-dasharray:7.0,7.0;"/><polygon fill="#181818" points="714.3,850.9079,718.3,841.9079,714.3,845.9079,710.3,841.9079,714.3,850.9079" style="stroke:#181818;stroke-width:1.0;"/></g><!--link RetrieveFromCacheStrategy to RestaurantNotFoundException--><g id="link_RetrieveFromCacheStrategy_RestaurantNotFoundException"><path codeLine="64" d="M367.05,765.7679 C388.96,793.3079 412.9458,823.4516 430.9558,846.1016 " fill="none" id="RetrieveFromCacheStrategy-to-RestaurantNotFoundException" style="stroke:#181818;stroke-width:1.0;stroke-dasharray:7.0,7.0;"/><polygon fill="#181818" points="434.69,850.7979,432.2195,841.2639,431.5781,846.8843,425.9578,846.2429,434.69,850.7979" style="stroke:#181818;stroke-width:1.0;"/></g><!--SRC=[lLHRRi8m4FpFAVn9rS81AXG9yP1eAwW8FO0RbjILiIrxWufexrutBpjf21L2_MBjxCxiZcT1XXp8MZE5Kf4nfyQG2QE9fhiWYBFZbA8PIu5QSWwQ70D2-jbb17hFOY3WOlljbYI08yvNO92ccWeqlPjxyiGC3jrTM6MAJKJtC7gUsuyfjyakQR9Usaftjf6Ima3m5GHC8EWjjVH-AySCTil4veyTQ43DO0yJYhGNsLWaToJ_FKdjP2bevpl52rqA4WTgiIX2SWY9oIC6fb9m1KeQXb8VR2Db-1yZEFNQUYral00ubwR4d6cvimzRWyq77sseiXrarYdYDb6WThnUKsCQlq5BMrUdRjYq7FjOkjzxtmLG_M90_qP-Y9QBvUixn5WDuu5vviih25Ni4GwNKpIQzaGP3jqX3ElRrkhFQblSvKBYJAPYC_s8GI6Jeapnd3AZZASQl9J6dr2_7_eB63INSJ18rMTtoWz4c_c3K-ujCC_MrCtrrogVgPokt8npUPvFJpVIajnqaQTQITscMWEbGx2myzsxwhhCq2LsD-Ct]--></g></svg>