<svg xmlns="http://www.w3.org/2000/svg" xmlns:xlink="http://www.w3.org/1999/xlink" contentStyleType="text/css" height="1074px" preserveAspectRatio="none" style="width:551px;height:1074px;background:#FFFFFF;" version="1.1" viewBox="0 0 551 1074" width="551px" zoomAndPan="magnify"><title>Triptop Component Class Diagram</title><defs/><g><text fill="#000000" font-family="sans-serif" font-size="14" font-weight="bold" lengthAdjust="spacing" textLength="239.1471" x="149.0342" y="24.9659">Triptop Component Class Diagram</text><!--class EatsServicePort--><g id="elem_EatsServicePort"><rect codeLine="4" fill="#F1F1F1" height="67.0679" id="EatsServicePort" rx="2.5" ry="2.5" style="stroke:#181818;stroke-width:0.5;" width="159.1535" x="273.34" y="212.2679"/><ellipse cx="302.8137" cy="228.2679" fill="#B4A7E5" rx="11" ry="11" style="stroke:#181818;stroke-width:1.0;"/><path d="M298.845,234.7679 L298.845,233.0648 L301.2044,232.7992 L301.2044,224.596 L298.845,224.3304 L298.845,222.6273 L305.9856,222.6273 L305.9856,224.3304 L303.5637,224.596 L303.5637,232.7992 L305.9856,233.0648 L305.9856,234.7679 L298.845,234.7679 Z " fill="#000000"/><text fill="#000000" font-family="sans-serif" font-size="14" font-style="italic" lengthAdjust="spacing" textLength="94.9896" x="320.0301" y="233.6999">EatsServicePort</text><line style="stroke:#181818;stroke-width:0.5;" x1="274.34" x2="431.4935" y1="244.2679" y2="244.2679"/><line style="stroke:#181818;stroke-width:0.5;" x1="274.34" x2="431.4935" y1="252.2679" y2="252.2679"/><ellipse cx="284.34" cy="267.3019" fill="#84BE84" rx="3" ry="3" style="stroke:#038048;stroke-width:1.0;"/><text fill="#000000" font-family="sans-serif" font-size="14" lengthAdjust="spacing" textLength="133.1535" x="293.34" y="271.2339">getRestaurantData()</text></g><!--class EatsAdapterPort--><g id="elem_EatsAdapterPort"><rect codeLine="8" fill="#F1F1F1" height="105.2038" id="EatsAdapterPort" rx="2.5" ry="2.5" style="stroke:#181818;stroke-width:0.5;" width="170.7314" x="60.55" y="777.7379"/><ellipse cx="92.4744" cy="793.7379" fill="#B4A7E5" rx="11" ry="11" style="stroke:#181818;stroke-width:1.0;"/><path d="M88.5057,800.2379 L88.5057,798.5348 L90.8651,798.2692 L90.8651,790.066 L88.5057,789.8004 L88.5057,788.0973 L95.6463,788.0973 L95.6463,789.8004 L93.2244,790.066 L93.2244,798.2692 L95.6463,798.5348 L95.6463,800.2379 L88.5057,800.2379 Z " fill="#000000"/><text fill="#000000" font-family="sans-serif" font-size="14" font-style="italic" lengthAdjust="spacing" textLength="101.1216" x="110.2354" y="799.1699">EatsAdapterPort</text><line style="stroke:#181818;stroke-width:0.5;" x1="61.55" x2="230.2814" y1="809.7379" y2="809.7379"/><line style="stroke:#181818;stroke-width:0.5;" x1="61.55" x2="230.2814" y1="817.7379" y2="817.7379"/><ellipse cx="71.55" cy="832.7719" fill="#84BE84" rx="3" ry="3" style="stroke:#038048;stroke-width:1.0;"/><text fill="#000000" font-family="sans-serif" font-size="14" lengthAdjust="spacing" textLength="144.7314" x="80.55" y="836.7039">fetchRestaurantData()</text><ellipse cx="71.55" cy="851.8398" fill="#84BE84" rx="3" ry="3" style="stroke:#038048;stroke-width:1.0;"/><text fill="#000000" font-family="sans-serif" font-size="14" lengthAdjust="spacing" textLength="93.7856" x="80.55" y="855.7718">sendRequest()</text><ellipse cx="71.55" cy="870.9077" fill="#84BE84" rx="3" ry="3" style="stroke:#038048;stroke-width:1.0;"/><text fill="#000000" font-family="sans-serif" font-size="14" lengthAdjust="spacing" textLength="118.9575" x="80.55" y="874.8397">receiveResponse()</text></g><!--class RetrieveDataStrategy--><g id="elem_RetrieveDataStrategy"><rect codeLine="14" fill="#F1F1F1" height="67.0679" id="RetrieveDataStrategy" rx="2.5" ry="2.5" style="stroke:#181818;stroke-width:0.5;" width="162.7595" x="169.53" y="485.4679"/><ellipse cx="184.53" cy="501.4679" fill="#B4A7E5" rx="11" ry="11" style="stroke:#181818;stroke-width:1.0;"/><path d="M180.5613,507.9679 L180.5613,506.2648 L182.9206,505.9992 L182.9206,497.796 L180.5613,497.5304 L180.5613,495.8273 L187.7019,495.8273 L187.7019,497.5304 L185.28,497.796 L185.28,505.9992 L187.7019,506.2648 L187.7019,507.9679 L180.5613,507.9679 Z " fill="#000000"/><text fill="#000000" font-family="sans-serif" font-size="14" font-style="italic" lengthAdjust="spacing" textLength="130.7595" x="198.53" y="506.8999">RetrieveDataStrategy</text><line style="stroke:#181818;stroke-width:0.5;" x1="170.53" x2="331.2895" y1="517.4679" y2="517.4679"/><line style="stroke:#181818;stroke-width:0.5;" x1="170.53" x2="331.2895" y1="525.4679" y2="525.4679"/><ellipse cx="180.53" cy="540.5019" fill="#84BE84" rx="3" ry="3" style="stroke:#038048;stroke-width:1.0;"/><text fill="#000000" font-family="sans-serif" font-size="14" lengthAdjust="spacing" textLength="90.4117" x="189.53" y="544.4339">retrieveData()</text></g><!--class RetrieveFromCacheStrategy--><g id="elem_RetrieveFromCacheStrategy"><rect codeLine="18" fill="#F1F1F1" height="105.2038" id="RetrieveFromCacheStrategy" rx="2.5" ry="2.5" style="stroke:#181818;stroke-width:0.5;" width="253.2192" x="260.3" y="612.5379"/><ellipse cx="292.2244" cy="628.5379" fill="#ADD1B2" rx="11" ry="11" style="stroke:#181818;stroke-width:1.0;"/><path d="M291.6932,635.4598 Q289.9432,635.4598 288.8026,634.7254 Q287.6776,633.9754 287.1151,632.6317 Q286.5682,631.2723 286.5682,629.4754 Q286.5682,627.4442 287.2244,625.991 Q287.8807,624.5379 289.1619,623.7567 Q290.4432,622.9754 292.3182,622.9754 Q293.2088,622.9754 293.8807,623.1629 Q294.5526,623.3348 295.2401,623.6785 L294.4276,625.6942 Q293.8026,625.3817 293.2557,625.2567 Q292.7244,625.1317 292.2401,625.1317 Q291.0682,625.1317 290.3651,625.6629 Q289.6619,626.1942 289.3651,627.1473 Q289.0682,628.1004 289.0682,629.366 Q289.0682,631.3817 289.7869,632.3504 Q290.5057,633.3035 292.0994,633.3035 Q292.6932,633.3035 293.3182,633.1473 Q293.9432,632.991 294.7713,632.616 L294.7713,634.8348 Q294.0369,635.1473 293.2401,635.3035 Q292.4588,635.4598 291.6932,635.4598 Z " fill="#000000"/><text fill="#000000" font-family="sans-serif" font-size="14" lengthAdjust="spacing" textLength="183.6093" x="309.9854" y="633.9699">RetrieveFromCacheStrategy</text><line style="stroke:#181818;stroke-width:0.5;" x1="261.3" x2="512.5192" y1="644.5379" y2="644.5379"/><rect fill="none" height="6" style="stroke:#C82930;stroke-width:1.0;" width="6" x="268.3" y="656.5719"/><text fill="#000000" font-family="sans-serif" font-size="14" lengthAdjust="spacing" textLength="227.2192" x="280.3" y="663.5039">EatsRepositoryPort eatsRepository</text><rect fill="none" height="6" style="stroke:#C82930;stroke-width:1.0;" width="6" x="268.3" y="675.6398"/><text fill="#000000" font-family="sans-serif" font-size="14" lengthAdjust="spacing" textLength="191.8273" x="280.3" y="682.5718">EatsAdapterPort eatsAdapter</text><line style="stroke:#181818;stroke-width:0.5;" x1="261.3" x2="512.5192" y1="690.6738" y2="690.6738"/><ellipse cx="271.3" cy="705.7077" fill="#84BE84" rx="3" ry="3" style="stroke:#038048;stroke-width:1.0;"/><text fill="#000000" font-family="sans-serif" font-size="14" lengthAdjust="spacing" textLength="90.4117" x="280.3" y="709.6397">retrieveData()</text></g><!--class RetrieveFromAPIStrategy--><g id="elem_RetrieveFromAPIStrategy"><rect codeLine="24" fill="#F1F1F1" height="86.1358" id="RetrieveFromAPIStrategy" rx="2.5" ry="2.5" style="stroke:#181818;stroke-width:0.5;" width="217.8273" x="7" y="622.0679"/><ellipse cx="31.0117" cy="638.0679" fill="#ADD1B2" rx="11" ry="11" style="stroke:#181818;stroke-width:1.0;"/><path d="M30.4804,644.9898 Q28.7304,644.9898 27.5898,644.2554 Q26.4648,643.5054 25.9023,642.1617 Q25.3554,640.8023 25.3554,639.0054 Q25.3554,636.9742 26.0117,635.521 Q26.6679,634.0679 27.9492,633.2867 Q29.2304,632.5054 31.1054,632.5054 Q31.996,632.5054 32.6679,632.6929 Q33.3398,632.8648 34.0273,633.2085 L33.2148,635.2242 Q32.5898,634.9117 32.0429,634.7867 Q31.5117,634.6617 31.0273,634.6617 Q29.8554,634.6617 29.1523,635.1929 Q28.4492,635.7242 28.1523,636.6773 Q27.8554,637.6304 27.8554,638.896 Q27.8554,640.9117 28.5742,641.8804 Q29.2929,642.8335 30.8867,642.8335 Q31.4804,642.8335 32.1054,642.6773 Q32.7304,642.521 33.5585,642.146 L33.5585,644.3648 Q32.8242,644.6773 32.0273,644.8335 Q31.246,644.9898 30.4804,644.9898 Z " fill="#000000"/><text fill="#000000" font-family="sans-serif" font-size="14" lengthAdjust="spacing" textLength="165.8014" x="47.0143" y="643.4999">RetrieveFromAPIStrategy</text><line style="stroke:#181818;stroke-width:0.5;" x1="8" x2="223.8273" y1="654.0679" y2="654.0679"/><rect fill="none" height="6" style="stroke:#C82930;stroke-width:1.0;" width="6" x="15" y="666.1019"/><text fill="#000000" font-family="sans-serif" font-size="14" lengthAdjust="spacing" textLength="191.8273" x="27" y="673.0339">EatsAdapterPort eatsAdapter</text><line style="stroke:#181818;stroke-width:0.5;" x1="8" x2="223.8273" y1="681.1358" y2="681.1358"/><ellipse cx="18" cy="696.1698" fill="#84BE84" rx="3" ry="3" style="stroke:#038048;stroke-width:1.0;"/><text fill="#000000" font-family="sans-serif" font-size="14" lengthAdjust="spacing" textLength="90.4117" x="27" y="700.1018">retrieveData()</text></g><!--class EatsService--><g id="elem_EatsService"><rect codeLine="29" fill="#F1F1F1" height="86.1358" id="EatsService" rx="2.5" ry="2.5" style="stroke:#181818;stroke-width:0.5;" width="189.3514" x="258.24" y="339.3379"/><ellipse cx="311.6148" cy="355.3379" fill="#ADD1B2" rx="11" ry="11" style="stroke:#181818;stroke-width:1.0;"/><path d="M311.0836,362.2598 Q309.3336,362.2598 308.1929,361.5254 Q307.0679,360.7754 306.5054,359.4317 Q305.9586,358.0723 305.9586,356.2754 Q305.9586,354.2442 306.6148,352.791 Q307.2711,351.3379 308.5523,350.5567 Q309.8336,349.7754 311.7086,349.7754 Q312.5992,349.7754 313.2711,349.9629 Q313.9429,350.1348 314.6304,350.4785 L313.8179,352.4942 Q313.1929,352.1817 312.6461,352.0567 Q312.1148,351.9317 311.6304,351.9317 Q310.4586,351.9317 309.7554,352.4629 Q309.0523,352.9942 308.7554,353.9473 Q308.4586,354.9004 308.4586,356.166 Q308.4586,358.1817 309.1773,359.1504 Q309.8961,360.1035 311.4898,360.1035 Q312.0836,360.1035 312.7086,359.9473 Q313.3336,359.791 314.1617,359.416 L314.1617,361.6348 Q313.4273,361.9473 312.6304,362.1035 Q311.8492,362.2598 311.0836,362.2598 Z " fill="#000000"/><text fill="#000000" font-family="sans-serif" font-size="14" lengthAdjust="spacing" textLength="74.1017" x="332.1148" y="360.7699">EatsService</text><line style="stroke:#181818;stroke-width:0.5;" x1="259.24" x2="446.5914" y1="371.3379" y2="371.3379"/><line style="stroke:#181818;stroke-width:0.5;" x1="259.24" x2="446.5914" y1="379.3379" y2="379.3379"/><ellipse cx="269.24" cy="394.3719" fill="#84BE84" rx="3" ry="3" style="stroke:#038048;stroke-width:1.0;"/><text fill="#000000" font-family="sans-serif" font-size="14" lengthAdjust="spacing" textLength="133.1535" x="278.24" y="398.3039">getRestaurantData()</text><rect fill="#F24D5C" height="6" style="stroke:#C82930;stroke-width:1.0;" width="6" x="266.24" y="410.4398"/><text fill="#000000" font-family="sans-serif" font-size="14" lengthAdjust="spacing" textLength="163.3514" x="278.24" y="417.3718">handleFallbackScenario()</text></g><!--class EatsRepositoryPort--><g id="elem_EatsRepositoryPort"><rect codeLine="34" fill="#F1F1F1" height="105.2038" id="EatsRepositoryPort" rx="2.5" ry="2.5" style="stroke:#181818;stroke-width:0.5;" width="182.4634" x="295.68" y="777.7379"/><ellipse cx="325.6577" cy="793.7379" fill="#B4A7E5" rx="11" ry="11" style="stroke:#181818;stroke-width:1.0;"/><path d="M321.689,800.2379 L321.689,798.5348 L324.0483,798.2692 L324.0483,790.066 L321.689,789.8004 L321.689,788.0973 L328.8296,788.0973 L328.8296,789.8004 L326.4077,790.066 L326.4077,798.2692 L328.8296,798.5348 L328.8296,800.2379 L321.689,800.2379 Z " fill="#000000"/><text fill="#000000" font-family="sans-serif" font-size="14" font-style="italic" lengthAdjust="spacing" textLength="117.1796" x="342.9861" y="799.1699">EatsRepositoryPort</text><line style="stroke:#181818;stroke-width:0.5;" x1="296.68" x2="477.1434" y1="809.7379" y2="809.7379"/><line style="stroke:#181818;stroke-width:0.5;" x1="296.68" x2="477.1434" y1="817.7379" y2="817.7379"/><ellipse cx="306.68" cy="832.7719" fill="#84BE84" rx="3" ry="3" style="stroke:#038048;stroke-width:1.0;"/><text fill="#000000" font-family="sans-serif" font-size="14" lengthAdjust="spacing" textLength="125.0475" x="315.68" y="836.7039">storeInCache(data)</text><ellipse cx="306.68" cy="851.8398" fill="#84BE84" rx="3" ry="3" style="stroke:#038048;stroke-width:1.0;"/><text fill="#000000" font-family="sans-serif" font-size="14" lengthAdjust="spacing" textLength="134.0075" x="315.68" y="855.7718">retrieveFromCache()</text><ellipse cx="306.68" cy="870.9077" fill="#84BE84" rx="3" ry="3" style="stroke:#038048;stroke-width:1.0;"/><text fill="#000000" font-family="sans-serif" font-size="14" lengthAdjust="spacing" textLength="156.4634" x="315.68" y="874.8397">checkCacheAvailability()</text></g><!--class EatsRepository--><g id="elem_EatsRepository"><rect codeLine="40" fill="#F1F1F1" height="124.2717" id="EatsRepository" rx="2.5" ry="2.5" style="stroke:#181818;stroke-width:0.5;" width="182.4634" x="295.68" y="942.9479"/><ellipse cx="334.358" cy="958.9479" fill="#ADD1B2" rx="11" ry="11" style="stroke:#181818;stroke-width:1.0;"/><path d="M333.8267,965.8698 Q332.0767,965.8698 330.9361,965.1354 Q329.8111,964.3854 329.2486,963.0417 Q328.7017,961.6823 328.7017,959.8854 Q328.7017,957.8542 329.358,956.401 Q330.0142,954.9479 331.2955,954.1667 Q332.5767,953.3854 334.4517,953.3854 Q335.3423,953.3854 336.0142,953.5729 Q336.6861,953.7448 337.3736,954.0885 L336.5611,956.1042 Q335.9361,955.7917 335.3892,955.6667 Q334.858,955.5417 334.3736,955.5417 Q333.2017,955.5417 332.4986,956.0729 Q331.7955,956.6042 331.4986,957.5573 Q331.2017,958.5104 331.2017,959.776 Q331.2017,961.7917 331.9205,962.7604 Q332.6392,963.7135 334.233,963.7135 Q334.8267,963.7135 335.4517,963.5573 Q336.0767,963.401 336.9048,963.026 L336.9048,965.2448 Q336.1705,965.5573 335.3736,965.7135 Q334.5923,965.8698 333.8267,965.8698 Z " fill="#000000"/><text fill="#000000" font-family="sans-serif" font-size="14" lengthAdjust="spacing" textLength="97.8456" x="353.6197" y="964.3799">EatsRepository</text><line style="stroke:#181818;stroke-width:0.5;" x1="296.68" x2="477.1434" y1="974.9479" y2="974.9479"/><rect fill="none" height="6" style="stroke:#C82930;stroke-width:1.0;" width="6" x="303.68" y="986.9819"/><text fill="#000000" font-family="sans-serif" font-size="14" lengthAdjust="spacing" textLength="147.1254" x="315.68" y="993.9139">RedisClient redisClient</text><line style="stroke:#181818;stroke-width:0.5;" x1="296.68" x2="477.1434" y1="1002.0158" y2="1002.0158"/><ellipse cx="306.68" cy="1017.0498" fill="#84BE84" rx="3" ry="3" style="stroke:#038048;stroke-width:1.0;"/><text fill="#000000" font-family="sans-serif" font-size="14" lengthAdjust="spacing" textLength="125.0475" x="315.68" y="1020.9818">storeInCache(data)</text><ellipse cx="306.68" cy="1036.1177" fill="#84BE84" rx="3" ry="3" style="stroke:#038048;stroke-width:1.0;"/><text fill="#000000" font-family="sans-serif" font-size="14" lengthAdjust="spacing" textLength="134.0075" x="315.68" y="1040.0497">retrieveFromCache()</text><ellipse cx="306.68" cy="1055.1856" fill="#84BE84" rx="3" ry="3" style="stroke:#038048;stroke-width:1.0;"/><text fill="#000000" font-family="sans-serif" font-size="14" lengthAdjust="spacing" textLength="156.4634" x="315.68" y="1059.1176">checkCacheAvailability()</text></g><!--class EatsAdapter--><g id="elem_EatsAdapter"><rect codeLine="47" fill="#F1F1F1" height="105.2038" id="EatsAdapter" rx="2.5" ry="2.5" style="stroke:#181818;stroke-width:0.5;" width="170.7314" x="60.55" y="952.4779"/><ellipse cx="101.9118" cy="968.4779" fill="#ADD1B2" rx="11" ry="11" style="stroke:#181818;stroke-width:1.0;"/><path d="M101.3805,975.3998 Q99.6305,975.3998 98.4899,974.6654 Q97.3649,973.9154 96.8024,972.5717 Q96.2555,971.2123 96.2555,969.4154 Q96.2555,967.3842 96.9118,965.931 Q97.568,964.4779 98.8493,963.6967 Q100.1305,962.9154 102.0055,962.9154 Q102.8962,962.9154 103.568,963.1029 Q104.2399,963.2748 104.9274,963.6185 L104.1149,965.6342 Q103.4899,965.3217 102.943,965.1967 Q102.4118,965.0717 101.9274,965.0717 Q100.7555,965.0717 100.0524,965.6029 Q99.3493,966.1342 99.0524,967.0873 Q98.7555,968.0404 98.7555,969.306 Q98.7555,971.3217 99.4743,972.2904 Q100.193,973.2435 101.7868,973.2435 Q102.3805,973.2435 103.0055,973.0873 Q103.6305,972.931 104.4587,972.556 L104.4587,974.7748 Q103.7243,975.0873 102.9274,975.2435 Q102.1462,975.3998 101.3805,975.3998 Z " fill="#000000"/><text fill="#000000" font-family="sans-serif" font-size="14" lengthAdjust="spacing" textLength="80.1497" x="121.7699" y="973.9099">EatsAdapter</text><line style="stroke:#181818;stroke-width:0.5;" x1="61.55" x2="230.2814" y1="984.4779" y2="984.4779"/><line style="stroke:#181818;stroke-width:0.5;" x1="61.55" x2="230.2814" y1="992.4779" y2="992.4779"/><ellipse cx="71.55" cy="1007.5119" fill="#84BE84" rx="3" ry="3" style="stroke:#038048;stroke-width:1.0;"/><text fill="#000000" font-family="sans-serif" font-size="14" lengthAdjust="spacing" textLength="144.7314" x="80.55" y="1011.4439">fetchRestaurantData()</text><ellipse cx="71.55" cy="1026.5798" fill="#84BE84" rx="3" ry="3" style="stroke:#038048;stroke-width:1.0;"/><text fill="#000000" font-family="sans-serif" font-size="14" lengthAdjust="spacing" textLength="93.7856" x="80.55" y="1030.5118">sendRequest()</text><ellipse cx="71.55" cy="1045.6477" fill="#84BE84" rx="3" ry="3" style="stroke:#038048;stroke-width:1.0;"/><text fill="#000000" font-family="sans-serif" font-size="14" lengthAdjust="spacing" textLength="118.9575" x="80.55" y="1049.5797">receiveResponse()</text></g><!--class EatsController--><g id="elem_EatsController"><rect codeLine="53" fill="#F1F1F1" height="105.2038" id="EatsController" rx="2.5" ry="2.5" style="stroke:#181818;stroke-width:0.5;" width="254.3671" x="225.73" y="47.0679"/><ellipse cx="301.8757" cy="63.0679" fill="#ADD1B2" rx="11" ry="11" style="stroke:#181818;stroke-width:1.0;"/><path d="M301.3445,69.9898 Q299.5945,69.9898 298.4539,69.2554 Q297.3289,68.5054 296.7664,67.1617 Q296.2195,65.8023 296.2195,64.0054 Q296.2195,61.9742 296.8757,60.521 Q297.532,59.0679 298.8132,58.2867 Q300.0945,57.5054 301.9695,57.5054 Q302.8601,57.5054 303.532,57.6929 Q304.2039,57.8648 304.8914,58.2085 L304.0789,60.2242 Q303.4539,59.9117 302.907,59.7867 Q302.3757,59.6617 301.8914,59.6617 Q300.7195,59.6617 300.0164,60.1929 Q299.3132,60.7242 299.0164,61.6773 Q298.7195,62.6304 298.7195,63.896 Q298.7195,65.9117 299.4382,66.8804 Q300.157,67.8335 301.7507,67.8335 Q302.3445,67.8335 302.9695,67.6773 Q303.5945,67.521 304.4226,67.146 L304.4226,69.3648 Q303.6882,69.6773 302.8914,69.8335 Q302.1101,69.9898 301.3445,69.9898 Z " fill="#000000"/><text fill="#000000" font-family="sans-serif" font-size="14" lengthAdjust="spacing" textLength="93.5757" x="322.3757" y="68.4999">EatsController</text><line style="stroke:#181818;stroke-width:0.5;" x1="226.73" x2="479.0971" y1="79.0679" y2="79.0679"/><rect fill="none" height="6" style="stroke:#C82930;stroke-width:1.0;" width="6" x="233.73" y="91.1019"/><text fill="#000000" font-family="sans-serif" font-size="14" lengthAdjust="spacing" textLength="179.7313" x="245.73" y="98.0339">EatsServicePort eatsService</text><line style="stroke:#181818;stroke-width:0.5;" x1="226.73" x2="479.0971" y1="106.1358" y2="106.1358"/><ellipse cx="236.73" cy="121.1698" fill="#84BE84" rx="3" ry="3" style="stroke:#038048;stroke-width:1.0;"/><text fill="#000000" font-family="sans-serif" font-size="14" lengthAdjust="spacing" textLength="228.3671" x="245.73" y="125.1018">processRestaurantRequest(details)</text><ellipse cx="236.73" cy="140.2377" fill="#84BE84" rx="3" ry="3" style="stroke:#038048;stroke-width:1.0;"/><text fill="#000000" font-family="sans-serif" font-size="14" lengthAdjust="spacing" textLength="175.3073" x="245.73" y="144.1697">sendResultToApiGateway()</text></g><!--class EatsFallbackException--><g id="elem_EatsFallbackException"><rect codeLine="59" fill="#F1F1F1" height="48" id="EatsFallbackException" rx="2.5" ry="2.5" style="stroke:#181818;stroke-width:0.5;" width="176.6055" x="367.61" y="495.0079"/><ellipse cx="382.61" cy="511.0079" fill="#D94321" rx="11" ry="11" style="stroke:#181818;stroke-width:1.0;"/><path d="M377.9538,517.5079 L381.5944,511.2579 L378.1881,505.3673 L380.7038,505.3673 L382.7038,509.1954 L384.6881,505.3673 L387.235,505.3673 L383.8288,511.2423 L387.4694,517.5079 L384.8756,517.5079 L382.6881,513.2892 L380.4694,517.5079 L377.9538,517.5079 Z " fill="#000000"/><text fill="#000000" font-family="sans-serif" font-size="14" lengthAdjust="spacing" textLength="144.6055" x="396.61" y="516.4399">EatsFallbackException</text><line style="stroke:#181818;stroke-width:0.5;" x1="368.61" x2="543.2155" y1="527.0079" y2="527.0079"/><line style="stroke:#181818;stroke-width:0.5;" x1="368.61" x2="543.2155" y1="535.0079" y2="535.0079"/></g><!--reverse link RetrieveDataStrategy to RetrieveFromCacheStrategy--><g id="link_RetrieveDataStrategy_RetrieveFromCacheStrategy"><path d="M294.1229,565.8002 C310.6629,583.3302 319.07,592.2379 337.77,612.0579 " fill="none" id="RetrieveDataStrategy-backto-RetrieveFromCacheStrategy" style="stroke:#181818;stroke-width:1.0;stroke-dasharray:7.0,7.0;"/><polygon fill="none" points="281.77,552.7079,289.7588,569.9178,298.4869,561.6825,281.77,552.7079" style="stroke:#181818;stroke-width:1.0;"/></g><!--reverse link RetrieveDataStrategy to RetrieveFromAPIStrategy--><g id="link_RetrieveDataStrategy_RetrieveFromAPIStrategy"><path d="M207.9768,565.8468 C188.8368,586.2868 176.3,599.6679 155.66,621.7079 " fill="none" id="RetrieveDataStrategy-backto-RetrieveFromAPIStrategy" style="stroke:#181818;stroke-width:1.0;stroke-dasharray:7.0,7.0;"/><polygon fill="none" points="220.28,552.7079,203.5971,561.7457,212.3564,569.9479,220.28,552.7079" style="stroke:#181818;stroke-width:1.0;"/></g><!--reverse link EatsServicePort to EatsService--><g id="link_EatsServicePort_EatsService"><path d="M352.91,297.7279 C352.91,315.5479 352.91,319.7679 352.91,338.8879 " fill="none" id="EatsServicePort-backto-EatsService" style="stroke:#181818;stroke-width:1.0;stroke-dasharray:7.0,7.0;"/><polygon fill="none" points="352.91,279.7279,346.91,297.7279,358.91,297.7279,352.91,279.7279" style="stroke:#181818;stroke-width:1.0;"/></g><!--reverse link EatsRepositoryPort to EatsRepository--><g id="link_EatsRepositoryPort_EatsRepository"><path d="M386.91,901.1679 C386.91,919.8579 386.91,923.1179 386.91,942.5479 " fill="none" id="EatsRepositoryPort-backto-EatsRepository" style="stroke:#181818;stroke-width:1.0;stroke-dasharray:7.0,7.0;"/><polygon fill="none" points="386.91,883.1679,380.91,901.1679,392.91,901.1679,386.91,883.1679" style="stroke:#181818;stroke-width:1.0;"/></g><!--reverse link EatsAdapterPort to EatsAdapter--><g id="link_EatsAdapterPort_EatsAdapter"><path d="M145.91,901.1679 C145.91,922.9379 145.91,930.1979 145.91,951.9979 " fill="none" id="EatsAdapterPort-backto-EatsAdapter" style="stroke:#181818;stroke-width:1.0;stroke-dasharray:7.0,7.0;"/><polygon fill="none" points="145.91,883.1679,139.91,901.1679,151.91,901.1679,145.91,883.1679" style="stroke:#181818;stroke-width:1.0;"/></g><!--link EatsController to EatsServicePort--><g id="link_EatsController_EatsServicePort"><path codeLine="62" d="M352.91,152.6979 C352.91,172.5379 352.91,188.5779 352.91,206.1179 " fill="none" id="EatsController-to-EatsServicePort" style="stroke:#181818;stroke-width:1.0;"/><polygon fill="#181818" points="352.91,212.1179,356.91,203.1179,352.91,207.1179,348.91,203.1179,352.91,212.1179" style="stroke:#181818;stroke-width:1.0;"/></g><!--link EatsService to RetrieveDataStrategy--><g id="link_EatsService_RetrieveDataStrategy"><path codeLine="63" d="M320.92,425.6179 C306.31,444.8979 292.9051,462.5968 279.2951,480.5468 " fill="none" id="EatsService-to-RetrieveDataStrategy" style="stroke:#181818;stroke-width:1.0;"/><polygon fill="#181818" points="275.67,485.3279,284.295,480.573,278.6909,481.3437,277.9203,475.7396,275.67,485.3279" style="stroke:#181818;stroke-width:1.0;"/></g><!--link EatsService to EatsFallbackException--><g id="link_EatsService_EatsFallbackException"><path codeLine="64" d="M385.22,425.6179 C402.68,448.4479 419.9328,470.9937 434.4628,489.9737 " fill="none" id="EatsService-to-EatsFallbackException" style="stroke:#181818;stroke-width:1.0;"/><polygon fill="#181818" points="438.11,494.7379,435.8153,485.1601,435.0707,490.7677,429.463,490.0231,438.11,494.7379" style="stroke:#181818;stroke-width:1.0;"/></g><!--link RetrieveFromCacheStrategy to EatsRepositoryPort--><g id="link_RetrieveFromCacheStrategy_EatsRepositoryPort"><path codeLine="65" d="M386.91,718.2279 C386.91,737.1679 386.91,752.5579 386.91,771.4679 " fill="none" id="RetrieveFromCacheStrategy-to-EatsRepositoryPort" style="stroke:#181818;stroke-width:1.0;"/><polygon fill="#181818" points="386.91,777.4679,390.91,768.4679,386.91,772.4679,382.91,768.4679,386.91,777.4679" style="stroke:#181818;stroke-width:1.0;"/></g><!--link RetrieveFromCacheStrategy to EatsAdapterPort--><g id="link_RetrieveFromCacheStrategy_EatsAdapterPort"><path codeLine="66" d="M310,718.2279 C282.03,737.1679 255.4189,755.1949 227.4789,774.1049 " fill="none" id="RetrieveFromCacheStrategy-to-EatsAdapterPort" style="stroke:#181818;stroke-width:1.0;"/><polygon fill="#181818" points="222.51,777.4679,232.2054,775.736,226.6508,774.6654,227.7214,769.1108,222.51,777.4679" style="stroke:#181818;stroke-width:1.0;"/></g><!--link RetrieveFromAPIStrategy to EatsAdapterPort--><g id="link_RetrieveFromAPIStrategy_EatsAdapterPort"><path codeLine="67" d="M123.72,708.5979 C127.59,729.6579 131.2159,749.3767 135.2959,771.5867 " fill="none" id="RetrieveFromAPIStrategy-to-EatsAdapterPort" style="stroke:#181818;stroke-width:1.0;"/><polygon fill="#181818" points="136.38,777.4879,138.6881,767.9133,135.4766,772.5702,130.8197,769.3587,136.38,777.4879" style="stroke:#181818;stroke-width:1.0;"/></g><!--SRC=[jLJ1Ri8m3BttAtBSDF4Bar21YHig_8193LYaIPOODeJsxqi3NKie4qBYrZX-Vk_5TfbOeLWuicoio4rbZKRD8bVWlHWHh1rKMKQQqQr0eXW3-pcwFKcS6SVYc0dn9jR81Ng6dGFD8s1uUSr-KjYm11lE7TWAMMwkWFMDHrqM-BaBT-U8Gucqnv0T97fC2GfaHxZ7kiQS7J2k3v4bGjkx4qv6UmrcuaoLWzpW7v0ggx0A3-7_AIm6qLQ1rdXYumxH6Lw4EdbT-zYUOyPz6eUpwKCA7sFkTBhBTly0rFGRqAN22IYr1BcTIzJWoFHDH_ACfx8-d76gOtDUob2scOMaSUSP2Lzo6mF3FP229IdYGsggPKfzzMWOXESjoUUAwhLmxVVpz9tRaufxmlgqdBdHx8nIWVRaEcqpjkTOppeZqVkMlQ4haOCrtzNXTueNPcZf8ypc5vmDZxybMYQZ8rSp8ctq69CkjGq6xwcoh3kdzNtVEbmbzL9cjty83UPoGku0TBgMtThbljnV]--></g></svg>