<svg xmlns="http://www.w3.org/2000/svg" xmlns:xlink="http://www.w3.org/1999/xlink" contentStyleType="text/css" height="792px" preserveAspectRatio="none" style="width:1940px;height:792px;background:#FFFFFF;" version="1.1" viewBox="0 0 1940 792" width="1940px" zoomAndPan="magnify"><defs/><g><rect fill="none" height="209.9421" style="stroke:#000000;stroke-width:1.5;" width="1752.701" x="10" y="481.5401"/><line style="stroke:#181818;stroke-width:0.5;stroke-dasharray:5.0,5.0;" x1="49" x2="49" y1="84.0679" y2="708.4822"/><line style="stroke:#181818;stroke-width:0.5;stroke-dasharray:5.0,5.0;" x1="297.0693" x2="297.0693" y1="84.0679" y2="708.4822"/><line style="stroke:#181818;stroke-width:0.5;stroke-dasharray:5.0,5.0;" x1="507.8294" x2="507.8294" y1="84.0679" y2="708.4822"/><line style="stroke:#181818;stroke-width:0.5;stroke-dasharray:5.0,5.0;" x1="717.0667" x2="717.0667" y1="84.0679" y2="708.4822"/><line style="stroke:#181818;stroke-width:0.5;stroke-dasharray:5.0,5.0;" x1="927.2248" x2="927.2248" y1="84.0679" y2="708.4822"/><line style="stroke:#181818;stroke-width:0.5;stroke-dasharray:5.0,5.0;" x1="1129.6662" x2="1129.6662" y1="84.0679" y2="708.4822"/><line style="stroke:#181818;stroke-width:0.5;stroke-dasharray:5.0,5.0;" x1="1304.9155" x2="1304.9155" y1="84.0679" y2="708.4822"/><line style="stroke:#181818;stroke-width:0.5;stroke-dasharray:5.0,5.0;" x1="1576.2697" x2="1576.2697" y1="84.0679" y2="708.4822"/><line style="stroke:#181818;stroke-width:0.5;stroke-dasharray:5.0,5.0;" x1="1693.9913" x2="1693.9913" y1="84.0679" y2="708.4822"/><line style="stroke:#181818;stroke-width:0.5;stroke-dasharray:5.0,5.0;" x1="1900.0215" x2="1900.0215" y1="84.0679" y2="708.4822"/><text fill="#000000" font-family="sans-serif" font-size="14" lengthAdjust="spacing" textLength="52.6958" x="20" y="79.9659">Reiziger</text><ellipse cx="49.3479" cy="13.5" fill="#E2E2F0" rx="8" ry="8" style="stroke:#181818;stroke-width:0.5;"/><path d="M49.3479,21.5 L49.3479,48.5 M36.3479,29.5 L62.3479,29.5 M49.3479,48.5 L36.3479,63.5 M49.3479,48.5 L62.3479,63.5 " fill="none" style="stroke:#181818;stroke-width:0.5;"/><text fill="#000000" font-family="sans-serif" font-size="14" lengthAdjust="spacing" textLength="52.6958" x="20" y="722.4482">Reiziger</text><ellipse cx="49.3479" cy="735.0501" fill="#E2E2F0" rx="8" ry="8" style="stroke:#181818;stroke-width:0.5;"/><path d="M49.3479,743.0501 L49.3479,770.0501 M36.3479,751.0501 L62.3479,751.0501 M49.3479,770.0501 L36.3479,785.0501 M49.3479,770.0501 L62.3479,785.0501 " fill="none" style="stroke:#181818;stroke-width:0.5;"/><rect fill="#E2E2F0" height="52.1358" rx="2.5" ry="2.5" style="stroke:#181818;stroke-width:0.5;" width="111.4396" x="242.0693" y="30.9321"/><text fill="#000000" font-family="sans-serif" font-size="14" lengthAdjust="spacing" textLength="97.4396" x="249.0693" y="52.898">eatsController:</text><text fill="#000000" font-family="sans-serif" font-size="14" lengthAdjust="spacing" textLength="93.5757" x="252.8213" y="71.9659">EatsController</text><rect fill="#E2E2F0" height="52.1358" rx="2.5" ry="2.5" style="stroke:#181818;stroke-width:0.5;" width="111.4396" x="242.0693" y="707.4822"/><text fill="#000000" font-family="sans-serif" font-size="14" lengthAdjust="spacing" textLength="97.4396" x="249.0693" y="729.4482">eatsController:</text><text fill="#000000" font-family="sans-serif" font-size="14" lengthAdjust="spacing" textLength="93.5757" x="252.8213" y="748.5161">EatsController</text><rect fill="#E2E2F0" height="52.1358" rx="2.5" ry="2.5" style="stroke:#181818;stroke-width:0.5;" width="122.0236" x="446.8294" y="30.9321"/><text fill="#000000" font-family="sans-serif" font-size="14" lengthAdjust="spacing" textLength="108.0236" x="453.8294" y="52.898">eatsServiceImpl:</text><text fill="#000000" font-family="sans-serif" font-size="14" lengthAdjust="spacing" textLength="104.1596" x="457.5814" y="71.9659">EatsServiceImpl</text><rect fill="#E2E2F0" height="52.1358" rx="2.5" ry="2.5" style="stroke:#181818;stroke-width:0.5;" width="122.0236" x="446.8294" y="707.4822"/><text fill="#000000" font-family="sans-serif" font-size="14" lengthAdjust="spacing" textLength="108.0236" x="453.8294" y="729.4482">eatsServiceImpl:</text><text fill="#000000" font-family="sans-serif" font-size="14" lengthAdjust="spacing" textLength="104.1596" x="457.5814" y="748.5161">EatsServiceImpl</text><rect fill="#E2E2F0" height="52.1358" rx="2.5" ry="2.5" style="stroke:#181818;stroke-width:0.5;" width="157.6535" x="639.0667" y="30.9321"/><text fill="#000000" font-family="sans-serif" font-size="14" lengthAdjust="spacing" textLength="140.8395" x="647.4736" y="52.898">retrieveDataStrategy:</text><text fill="#000000" font-family="sans-serif" font-size="14" lengthAdjust="spacing" textLength="140.0135" x="649.7066" y="71.9659">RetrieveDataStrategy</text><rect fill="#E2E2F0" height="52.1358" rx="2.5" ry="2.5" style="stroke:#181818;stroke-width:0.5;" width="157.6535" x="639.0667" y="707.4822"/><text fill="#000000" font-family="sans-serif" font-size="14" lengthAdjust="spacing" textLength="140.8395" x="647.4736" y="729.4482">retrieveDataStrategy:</text><text fill="#000000" font-family="sans-serif" font-size="14" lengthAdjust="spacing" textLength="140.0135" x="649.7066" y="748.5161">RetrieveDataStrategy</text><rect fill="#E2E2F0" height="52.1358" rx="2.5" ry="2.5" style="stroke:#181818;stroke-width:0.5;" width="183.4414" x="836.2248" y="30.9321"/><text fill="#000000" font-family="sans-serif" font-size="14" lengthAdjust="spacing" textLength="166.6274" x="844.6318" y="52.898">retrieveFromAPIStrategy:</text><text fill="#000000" font-family="sans-serif" font-size="14" lengthAdjust="spacing" textLength="165.8014" x="846.8648" y="71.9659">RetrieveFromAPIStrategy</text><rect fill="#E2E2F0" height="52.1358" rx="2.5" ry="2.5" style="stroke:#181818;stroke-width:0.5;" width="183.4414" x="836.2248" y="707.4822"/><text fill="#000000" font-family="sans-serif" font-size="14" lengthAdjust="spacing" textLength="166.6274" x="844.6318" y="729.4482">retrieveFromAPIStrategy:</text><text fill="#000000" font-family="sans-serif" font-size="14" lengthAdjust="spacing" textLength="165.8014" x="846.8648" y="748.5161">RetrieveFromAPIStrategy</text><rect fill="#E2E2F0" height="52.1358" rx="2.5" ry="2.5" style="stroke:#181818;stroke-width:0.5;" width="201.2493" x="1029.6662" y="30.9321"/><text fill="#000000" font-family="sans-serif" font-size="14" lengthAdjust="spacing" textLength="184.4353" x="1038.0732" y="52.898">retrieveFromCacheStrategy:</text><text fill="#000000" font-family="sans-serif" font-size="14" lengthAdjust="spacing" textLength="183.6093" x="1040.3062" y="71.9659">RetrieveFromCacheStrategy</text><rect fill="#E2E2F0" height="52.1358" rx="2.5" ry="2.5" style="stroke:#181818;stroke-width:0.5;" width="201.2493" x="1029.6662" y="707.4822"/><text fill="#000000" font-family="sans-serif" font-size="14" lengthAdjust="spacing" textLength="184.4353" x="1038.0732" y="729.4482">retrieveFromCacheStrategy:</text><text fill="#000000" font-family="sans-serif" font-size="14" lengthAdjust="spacing" textLength="183.6093" x="1040.3062" y="748.5161">RetrieveFromCacheStrategy</text><rect fill="#E2E2F0" height="52.1358" rx="2.5" ry="2.5" style="stroke:#181818;stroke-width:0.5;" width="128.0716" x="1240.9155" y="30.9321"/><text fill="#000000" font-family="sans-serif" font-size="14" lengthAdjust="spacing" textLength="114.0716" x="1247.9155" y="52.898">eatsAdapterImpl:</text><text fill="#000000" font-family="sans-serif" font-size="14" lengthAdjust="spacing" textLength="110.2076" x="1251.6675" y="71.9659">EatsAdapterImpl</text><rect fill="#E2E2F0" height="52.1358" rx="2.5" ry="2.5" style="stroke:#181818;stroke-width:0.5;" width="128.0716" x="1240.9155" y="707.4822"/><text fill="#000000" font-family="sans-serif" font-size="14" lengthAdjust="spacing" textLength="114.0716" x="1247.9155" y="729.4482">eatsAdapterImpl:</text><text fill="#000000" font-family="sans-serif" font-size="14" lengthAdjust="spacing" textLength="110.2076" x="1251.6675" y="748.5161">EatsAdapterImpl</text><rect fill="#E2E2F0" height="52.1358" rx="2.5" ry="2.5" style="stroke:#181818;stroke-width:0.5;" width="99.7217" x="1527.2697" y="30.9321"/><text fill="#000000" font-family="sans-serif" font-size="14" lengthAdjust="spacing" textLength="84.2517" x="1535.0047" y="52.898">uberEatsAPI:</text><text fill="#000000" font-family="sans-serif" font-size="14" lengthAdjust="spacing" textLength="82.0817" x="1537.9096" y="71.9659">UberEatsAPI</text><rect fill="#E2E2F0" height="52.1358" rx="2.5" ry="2.5" style="stroke:#181818;stroke-width:0.5;" width="99.7217" x="1527.2697" y="707.4822"/><text fill="#000000" font-family="sans-serif" font-size="14" lengthAdjust="spacing" textLength="84.2517" x="1535.0047" y="729.4482">uberEatsAPI:</text><text fill="#000000" font-family="sans-serif" font-size="14" lengthAdjust="spacing" textLength="82.0817" x="1537.9096" y="748.5161">UberEatsAPI</text><rect fill="#E2E2F0" height="52.1358" rx="2.5" ry="2.5" style="stroke:#181818;stroke-width:0.5;" width="115.7096" x="1636.9913" y="30.9321"/><text fill="#000000" font-family="sans-serif" font-size="14" lengthAdjust="spacing" textLength="101.7096" x="1643.9913" y="52.898">eatsRepository:</text><text fill="#000000" font-family="sans-serif" font-size="14" lengthAdjust="spacing" textLength="97.8456" x="1647.7433" y="71.9659">EatsRepository</text><rect fill="#E2E2F0" height="52.1358" rx="2.5" ry="2.5" style="stroke:#181818;stroke-width:0.5;" width="115.7096" x="1636.9913" y="707.4822"/><text fill="#000000" font-family="sans-serif" font-size="14" lengthAdjust="spacing" textLength="101.7096" x="1643.9913" y="729.4482">eatsRepository:</text><text fill="#000000" font-family="sans-serif" font-size="14" lengthAdjust="spacing" textLength="97.8456" x="1647.7433" y="748.5161">EatsRepository</text><text fill="#000000" font-family="sans-serif" font-size="14" lengthAdjust="spacing" textLength="72.5757" x="1861.0215" y="79.9659">redisCache</text><path d="M1882.3093,29 C1882.3093,19 1900.3093,19 1900.3093,19 C1900.3093,19 1918.3093,19 1918.3093,29 L1918.3093,55 C1918.3093,65 1900.3093,65 1900.3093,65 C1900.3093,65 1882.3093,65 1882.3093,55 L1882.3093,29 " fill="#E2E2F0" style="stroke:#181818;stroke-width:1.5;"/><path d="M1882.3093,29 C1882.3093,39 1900.3093,39 1900.3093,39 C1900.3093,39 1918.3093,39 1918.3093,29 " fill="none" style="stroke:#181818;stroke-width:1.5;"/><text fill="#000000" font-family="sans-serif" font-size="14" lengthAdjust="spacing" textLength="72.5757" x="1861.0215" y="722.4482">redisCache</text><path d="M1882.3093,736.5501 C1882.3093,726.5501 1900.3093,726.5501 1900.3093,726.5501 C1900.3093,726.5501 1918.3093,726.5501 1918.3093,736.5501 L1918.3093,762.5501 C1918.3093,772.5501 1900.3093,772.5501 1900.3093,772.5501 C1900.3093,772.5501 1882.3093,772.5501 1882.3093,762.5501 L1882.3093,736.5501 " fill="#E2E2F0" style="stroke:#181818;stroke-width:1.5;"/><path d="M1882.3093,736.5501 C1882.3093,746.5501 1900.3093,746.5501 1900.3093,746.5501 C1900.3093,746.5501 1918.3093,746.5501 1918.3093,736.5501 " fill="none" style="stroke:#181818;stroke-width:1.5;"/><polygon fill="#181818" points="285.7891,113.7739,295.7891,117.7739,285.7891,121.7739,289.7891,117.7739" style="stroke:#181818;stroke-width:1.0;"/><line style="stroke:#181818;stroke-width:1.0;" x1="49.3479" x2="291.7891" y1="117.7739" y2="117.7739"/><text fill="#000000" font-family="sans-serif" font-size="13" font-weight="bold" lengthAdjust="spacing" textLength="7.436" x="56.3479" y="111.9649">1</text><text fill="#000000" font-family="sans-serif" font-size="13" lengthAdjust="spacing" textLength="213.0052" x="67.7839" y="111.9649">POST /restaurants (query, address)</text><polygon fill="#181818" points="495.8412,145.4799,505.8412,149.4799,495.8412,153.4799,499.8412,149.4799" style="stroke:#181818;stroke-width:1.0;"/><line style="stroke:#181818;stroke-width:1.0;" x1="297.7891" x2="501.8412" y1="149.4799" y2="149.4799"/><text fill="#000000" font-family="sans-serif" font-size="13" font-weight="bold" lengthAdjust="spacing" textLength="7.436" x="304.7891" y="143.6709">2</text><text fill="#000000" font-family="sans-serif" font-size="13" lengthAdjust="spacing" textLength="174.6161" x="316.2251" y="143.6709">retrieveData(query, address)</text><polygon fill="#181818" points="705.8934,177.186,715.8934,181.186,705.8934,185.186,709.8934,181.186" style="stroke:#181818;stroke-width:1.0;"/><line style="stroke:#181818;stroke-width:1.0;" x1="507.8412" x2="711.8934" y1="181.186" y2="181.186"/><text fill="#000000" font-family="sans-serif" font-size="13" font-weight="bold" lengthAdjust="spacing" textLength="7.436" x="514.8412" y="175.377">3</text><text fill="#000000" font-family="sans-serif" font-size="13" lengthAdjust="spacing" textLength="174.6161" x="526.2772" y="175.377">retrieveData(query, address)</text><polygon fill="#181818" points="915.9455,208.892,925.9455,212.892,915.9455,216.892,919.9455,212.892" style="stroke:#181818;stroke-width:1.0;"/><line style="stroke:#181818;stroke-width:1.0;" x1="717.8934" x2="921.9455" y1="212.892" y2="212.892"/><text fill="#000000" font-family="sans-serif" font-size="13" font-weight="bold" lengthAdjust="spacing" textLength="7.436" x="724.8934" y="207.083">4</text><text fill="#000000" font-family="sans-serif" font-size="13" lengthAdjust="spacing" textLength="174.6161" x="736.3294" y="207.083">retrieveData(query, address)</text><polygon fill="#181818" points="1292.9513,240.598,1302.9513,244.598,1292.9513,248.598,1296.9513,244.598" style="stroke:#181818;stroke-width:1.0;"/><line style="stroke:#181818;stroke-width:1.0;" x1="927.9455" x2="1298.9513" y1="244.598" y2="244.598"/><text fill="#000000" font-family="sans-serif" font-size="13" font-weight="bold" lengthAdjust="spacing" textLength="7.436" x="934.9455" y="238.789">5</text><text fill="#000000" font-family="sans-serif" font-size="13" lengthAdjust="spacing" textLength="250.0682" x="946.3815" y="238.789">getRestaurantsNearUser(query, address)</text><polygon fill="#181818" points="1565.1305,272.304,1575.1305,276.304,1565.1305,280.304,1569.1305,276.304" style="stroke:#181818;stroke-width:1.0;"/><line style="stroke:#181818;stroke-width:1.0;" x1="1304.9513" x2="1571.1305" y1="276.304" y2="276.304"/><text fill="#000000" font-family="sans-serif" font-size="13" font-weight="bold" lengthAdjust="spacing" textLength="7.436" x="1311.9513" y="270.495">6</text><text fill="#000000" font-family="sans-serif" font-size="13" lengthAdjust="spacing" textLength="236.7432" x="1323.3873" y="270.495">JSONObject apiResponse = API request</text><polygon fill="#181818" points="938.9455,304.01,928.9455,308.01,938.9455,312.01,934.9455,308.01" style="stroke:#181818;stroke-width:1.0;"/><line style="stroke:#181818;stroke-width:1.0;stroke-dasharray:2.0,2.0;" x1="932.9455" x2="1303.9513" y1="308.01" y2="308.01"/><text fill="#000000" font-family="sans-serif" font-size="13" font-weight="bold" lengthAdjust="spacing" textLength="7.436" x="944.9455" y="302.201">7</text><text fill="#000000" font-family="sans-serif" font-size="13" lengthAdjust="spacing" textLength="61.373" x="956.3815" y="302.201">JSON data</text><polygon fill="#181818" points="1682.8462,335.716,1692.8462,339.716,1682.8462,343.716,1686.8462,339.716" style="stroke:#181818;stroke-width:1.0;"/><line style="stroke:#181818;stroke-width:1.0;" x1="927.9455" x2="1688.8462" y1="339.716" y2="339.716"/><text fill="#000000" font-family="sans-serif" font-size="13" font-weight="bold" lengthAdjust="spacing" textLength="7.436" x="934.9455" y="333.907">8</text><text fill="#000000" font-family="sans-serif" font-size="13" lengthAdjust="spacing" textLength="246.1682" x="946.3815" y="333.907">saveRestaurants(JSONArray restaurants)</text><polygon fill="#181818" points="1888.3093,367.4221,1898.3093,371.4221,1888.3093,375.4221,1892.3093,371.4221" style="stroke:#181818;stroke-width:1.0;"/><line style="stroke:#181818;stroke-width:1.0;" x1="1694.8462" x2="1894.3093" y1="371.4221" y2="371.4221"/><text fill="#000000" font-family="sans-serif" font-size="13" font-weight="bold" lengthAdjust="spacing" textLength="7.436" x="1701.8462" y="365.6131">9</text><text fill="#000000" font-family="sans-serif" font-size="13" lengthAdjust="spacing" textLength="170.0271" x="1713.2822" y="365.6131">save(Restaurant restaurant)</text><polygon fill="#181818" points="518.8412,399.1281,508.8412,403.1281,518.8412,407.1281,514.8412,403.1281" style="stroke:#181818;stroke-width:1.0;"/><line style="stroke:#181818;stroke-width:1.0;stroke-dasharray:2.0,2.0;" x1="512.8412" x2="926.9455" y1="403.1281" y2="403.1281"/><text fill="#000000" font-family="sans-serif" font-size="13" font-weight="bold" lengthAdjust="spacing" textLength="14.872" x="524.8412" y="397.3191">10</text><text fill="#000000" font-family="sans-serif" font-size="13" lengthAdjust="spacing" textLength="216.5802" x="543.7132" y="397.3191">RestaurantResponse (cached=false)</text><polygon fill="#181818" points="308.7891,430.8341,298.7891,434.8341,308.7891,438.8341,304.7891,434.8341" style="stroke:#181818;stroke-width:1.0;"/><line style="stroke:#181818;stroke-width:1.0;stroke-dasharray:2.0,2.0;" x1="302.7891" x2="506.8412" y1="434.8341" y2="434.8341"/><text fill="#000000" font-family="sans-serif" font-size="13" font-weight="bold" lengthAdjust="spacing" textLength="14.872" x="314.7891" y="429.0251">11</text><text fill="#000000" font-family="sans-serif" font-size="13" lengthAdjust="spacing" textLength="126.1521" x="333.6611" y="429.0251">RestaurantResponse</text><polygon fill="#181818" points="60.3479,462.5401,50.3479,466.5401,60.3479,470.5401,56.3479,466.5401" style="stroke:#181818;stroke-width:1.0;"/><line style="stroke:#181818;stroke-width:1.0;stroke-dasharray:2.0,2.0;" x1="54.3479" x2="296.7891" y1="466.5401" y2="466.5401"/><text fill="#000000" font-family="sans-serif" font-size="13" font-weight="bold" lengthAdjust="spacing" textLength="14.872" x="66.3479" y="460.7311">12</text><text fill="#000000" font-family="sans-serif" font-size="13" lengthAdjust="spacing" textLength="93.1971" x="85.2199" y="460.7311">JSON Response</text><path d="M10,481.5401 L72.303,481.5401 L72.303,491.2461 L62.303,501.2461 L10,501.2461 L10,481.5401 " fill="#EEEEEE" style="stroke:#000000;stroke-width:1.5;"/><rect fill="none" height="209.9421" style="stroke:#000000;stroke-width:1.5;" width="1752.701" x="10" y="481.5401"/><text fill="#000000" font-family="sans-serif" font-size="13" font-weight="bold" lengthAdjust="spacing" textLength="17.303" x="25" y="496.4371">alt</text><text fill="#000000" font-family="sans-serif" font-size="11" font-weight="bold" lengthAdjust="spacing" textLength="107.7002" x="87.303" y="495.299">[API Strategie faalt]</text><polygon fill="#181818" points="518.8412,520.9521,508.8412,524.9521,518.8412,528.9521,514.8412,524.9521" style="stroke:#181818;stroke-width:1.0;"/><line style="stroke:#181818;stroke-width:1.0;" x1="512.8412" x2="926.9455" y1="524.9521" y2="524.9521"/><text fill="#000000" font-family="sans-serif" font-size="13" font-weight="bold" lengthAdjust="spacing" textLength="14.872" x="524.8412" y="519.1431">13</text><text fill="#000000" font-family="sans-serif" font-size="13" lengthAdjust="spacing" textLength="212.3812" x="543.7132" y="519.1431">throw APIStrategyFailureException</text><polygon fill="#181818" points="1118.2908,552.6582,1128.2908,556.6582,1118.2908,560.6582,1122.2908,556.6582" style="stroke:#181818;stroke-width:1.0;"/><line style="stroke:#181818;stroke-width:1.0;" x1="507.8412" x2="1124.2908" y1="556.6582" y2="556.6582"/><text fill="#000000" font-family="sans-serif" font-size="13" font-weight="bold" lengthAdjust="spacing" textLength="14.872" x="514.8412" y="550.8492">14</text><text fill="#000000" font-family="sans-serif" font-size="13" lengthAdjust="spacing" textLength="174.6161" x="533.7132" y="550.8492">retrieveData(query, address)</text><polygon fill="#181818" points="1682.8462,584.3642,1692.8462,588.3642,1682.8462,592.3642,1686.8462,588.3642" style="stroke:#181818;stroke-width:1.0;"/><line style="stroke:#181818;stroke-width:1.0;" x1="1130.2908" x2="1688.8462" y1="588.3642" y2="588.3642"/><text fill="#000000" font-family="sans-serif" font-size="13" font-weight="bold" lengthAdjust="spacing" textLength="14.872" x="1137.2908" y="582.5552">15</text><text fill="#000000" font-family="sans-serif" font-size="13" lengthAdjust="spacing" textLength="237.8222" x="1156.1629" y="582.5552">List&lt;Restaurant&gt; restaurants = findAll()</text><polygon fill="#181818" points="518.8412,616.0702,508.8412,620.0702,518.8412,624.0702,514.8412,620.0702" style="stroke:#181818;stroke-width:1.0;"/><line style="stroke:#181818;stroke-width:1.0;stroke-dasharray:2.0,2.0;" x1="512.8412" x2="1129.2908" y1="620.0702" y2="620.0702"/><text fill="#000000" font-family="sans-serif" font-size="13" font-weight="bold" lengthAdjust="spacing" textLength="14.872" x="524.8412" y="614.2612">16</text><text fill="#000000" font-family="sans-serif" font-size="13" lengthAdjust="spacing" textLength="213.3302" x="543.7132" y="614.2612">RestaurantResponse (cached=true)</text><polygon fill="#181818" points="308.7891,647.7762,298.7891,651.7762,308.7891,655.7762,304.7891,651.7762" style="stroke:#181818;stroke-width:1.0;"/><line style="stroke:#181818;stroke-width:1.0;stroke-dasharray:2.0,2.0;" x1="302.7891" x2="506.8412" y1="651.7762" y2="651.7762"/><text fill="#000000" font-family="sans-serif" font-size="13" font-weight="bold" lengthAdjust="spacing" textLength="14.872" x="314.7891" y="645.9672">17</text><text fill="#000000" font-family="sans-serif" font-size="13" lengthAdjust="spacing" textLength="126.1521" x="333.6611" y="645.9672">RestaurantResponse</text><polygon fill="#181818" points="60.3479,679.4822,50.3479,683.4822,60.3479,687.4822,56.3479,683.4822" style="stroke:#181818;stroke-width:1.0;"/><line style="stroke:#181818;stroke-width:1.0;stroke-dasharray:2.0,2.0;" x1="54.3479" x2="296.7891" y1="683.4822" y2="683.4822"/><text fill="#000000" font-family="sans-serif" font-size="13" font-weight="bold" lengthAdjust="spacing" textLength="14.872" x="66.3479" y="677.6732">18</text><text fill="#000000" font-family="sans-serif" font-size="13" lengthAdjust="spacing" textLength="93.1971" x="85.2199" y="677.6732">JSON Response</text><!--SRC=[bPJ1RgD0343lV8ML4vLsrNkrhHHrModLgecIzhON1vnqAWAinsGt-_KT2043KvBc5EoPDsFx0HQIfSLkJHm464d6m6J-coqne8N9idwO146EB2OoEQO2X6BlirGuIv9wPJTqypk5XqvaCW2iYFScejakJng2YfqGAjHbC0aRsjDF55m9ez3sK85yYPAszCJzo4VETjF5p4ljvJIub_gSVO_H6trAxsJx_4vosDHfZBaGTvggOgUcgb1lj8LJeLgnc5K0zLnkVcqVXuSlAS-iSH8TchFRqEdeDk9EZjqercZ9TISsjkw4-rTLwVADZD_lUjBTm6A-Ue5h9YjOiBk2XV1FGNpu1XZ7BcolWfwdDKHBrh78krzhwW1UkSOfNb4Lgc_KPRI-etLnUjYm9Lcs_Nacv5TBx2rJY-DGUkpmj9e_pzVl50bWRXmnpr8tirie9M5oE2j3o5Y59H7AuPyhH_a35lUaoWbBo9GP3w0aE5QZJAokuPGwxWzRWDerqbMVCosZwKKObSR6jnjCB7d4yVWxf0nyhUv-V0FgdZLB0qoawdzzLKEmGHSBmFtEDBLJZBnnzXVKgaSqIS7qy2-YN4oMLiIHDs7uoHeNk7_1xiVGC_TVnigFjbjtUjnEmer9uscIX6V9NnobS45N_k8lc-PfwuKJfJGEFW00]--></g></svg>